<svg width="20" height="21" viewBox="0 0 20 21" fill="none" xmlns="http://www.w3.org/2000/svg">
<path d="M18.3334 14.6004V17.1004C18.3344 17.3325 18.2868 17.5622 18.1939 17.7749C18.1009 17.9875 17.9645 18.1784 17.7935 18.3353C17.6225 18.4922 17.4206 18.6116 17.2007 18.686C16.9809 18.7603 16.7479 18.788 16.5168 18.7671C13.9525 18.4884 11.4893 17.6122 9.32511 16.2087C7.31163 14.9293 5.60455 13.2222 4.32511 11.2087C2.91676 9.03474 2.04031 6.55957 1.76677 3.98374C1.74595 3.7533 1.77334 3.52104 1.84719 3.30176C1.92105 3.08248 2.03975 2.88098 2.19575 2.71009C2.35174 2.5392 2.54161 2.40266 2.75327 2.30917C2.96492 2.21569 3.19372 2.16729 3.42511 2.16707H5.92511C6.32953 2.16309 6.7216 2.30631 7.02824 2.57002C7.33488 2.83373 7.53517 3.19995 7.59177 3.60041C7.69729 4.40046 7.89298 5.18601 8.17511 5.94207C8.28723 6.24034 8.31149 6.5645 8.24503 6.87614C8.17857 7.18778 8.02416 7.47383 7.80011 7.70041L6.74177 8.75874C7.92807 10.845 9.65549 12.5724 11.7418 13.7587L12.8001 12.7004C13.0267 12.4764 13.3127 12.3219 13.6244 12.2555C13.936 12.189 14.2602 12.2133 14.5584 12.3254C15.3145 12.6075 16.1001 12.8032 16.9001 12.9087C17.3049 12.9658 17.6746 13.1697 17.9389 13.4817C18.2032 13.7936 18.3436 14.1917 18.3334 14.6004Z" stroke="white" stroke-width="1.5" stroke-linecap="round" stroke-linejoin="round"/>
</svg>
