<svg width="137" height="24" viewBox="0 0 137 24" fill="none" xmlns="http://www.w3.org/2000/svg">
<g opacity="0.8">
<path d="M12 2L15.09 8.26L22 9.27L17 14.14L18.18 21.02L12 17.77L5.82 21.02L7 14.14L2 9.27L8.91 8.26L12 2Z" fill="#FF7A00"/>
<path d="M40.25 2L43.34 8.26L50.25 9.27L45.25 14.14L46.43 21.02L40.25 17.77L34.07 21.02L35.25 14.14L30.25 9.27L37.16 8.26L40.25 2Z" fill="#FF7A00"/>
<path d="M68.5 2L71.59 8.26L78.5 9.27L73.5 14.14L74.68 21.02L68.5 17.77L62.32 21.02L63.5 14.14L58.5 9.27L65.41 8.26L68.5 2Z" fill="#FF7A00"/>
<path d="M96.75 2L99.84 8.26L106.75 9.27L101.75 14.14L102.93 21.02L96.75 17.77L90.57 21.02L91.75 14.14L86.75 9.27L93.66 8.26L96.75 2Z" fill="#FF7A00"/>
<path d="M125 2L128.09 8.26L135 9.27L130 14.14L131.18 21.02L125 17.77L118.82 21.02L120 14.14L115 9.27L121.91 8.26L125 2Z" fill="#FF7A00"/>
</g>
</svg>
