<svg width="20" height="20" viewBox="0 0 20 20" fill="none" xmlns="http://www.w3.org/2000/svg">
<path fill-rule="evenodd" clip-rule="evenodd" d="M9.81732 1.66699C11.9955 1.66699 13.795 3.32671 14.0168 5.44943L14.0787 5.45016C15.2871 5.45016 16.7562 6.25266 17.2521 8.50349L17.9096 13.5927C18.1454 15.2352 17.8504 16.5527 17.0312 17.4977C16.2162 18.4377 14.9262 18.9352 13.3004 18.9352H6.34374C4.5579 18.9352 3.31374 18.4977 2.53957 17.5985C1.76207 16.6968 1.50207 15.3443 1.76707 13.5793L2.41374 8.55766C2.83873 6.25516 4.3929 5.45016 5.59624 5.45016C5.70012 4.49222 6.13207 3.58091 6.81732 2.89783C7.60482 2.11533 8.69065 1.66699 9.79982 1.66699H9.81732ZM14.0787 6.70016H5.59624C5.22874 6.70016 4.0004 6.84849 3.6479 8.75182L3.00457 13.7518C2.7954 15.1543 2.95707 16.1693 3.48624 16.7835C4.00874 17.3902 4.94374 17.6852 6.34374 17.6852H13.3004C14.1737 17.6852 15.3662 17.511 16.0862 16.6793C16.6579 16.0202 16.8546 15.0385 16.6712 13.761L16.0221 8.71766C15.7454 7.47516 15.0154 6.70016 14.0787 6.70016ZM12.2477 9.02024C12.5927 9.02024 12.8919 9.30024 12.8919 9.64524C12.8919 9.99024 12.6311 10.2702 12.2861 10.2702H12.2477C11.9027 10.2702 11.6227 9.99024 11.6227 9.64524C11.6227 9.30024 11.9027 9.02024 12.2477 9.02024ZM7.38932 9.02024C7.73432 9.02024 8.03349 9.30024 8.03349 9.64524C8.03349 9.99024 7.77182 10.2702 7.42682 10.2702H7.38932C7.04432 10.2702 6.76432 9.99024 6.76432 9.64524C6.76432 9.30024 7.04432 9.02024 7.38932 9.02024ZM9.81482 2.91699H9.80232C9.01815 2.91699 8.25399 3.23283 7.69982 3.78366C7.2484 4.23305 6.95317 4.82382 6.85766 5.44977L12.7571 5.45C12.5429 4.01814 11.3047 2.91699 9.81482 2.91699Z" fill="#3A2D32"/>
</svg>
