<svg width="262" height="276" viewBox="0 0 262 276" fill="none" xmlns="http://www.w3.org/2000/svg">
<g clip-path="url(#clip0_2_225)">
<path fill-rule="evenodd" clip-rule="evenodd" d="M259.669 0.141174C258.822 1.41293 258.469 1.97812 258.045 2.54334C253.102 9.11398 249.641 16.3205 247.311 24.1629C245.122 31.6521 245.122 38.9999 247.947 46.277C249.006 49.1032 250.206 51.9292 251.478 54.6847C253.243 58.7119 255.15 62.5977 256.774 66.6249C257.975 69.3803 258.893 72.3477 259.811 75.2444C262.847 84.7825 261.435 93.7553 256.35 102.234C253.526 106.967 250.701 111.772 248.088 116.576C244.557 123.147 243.215 130.212 244.133 137.701C244.416 139.75 244.627 141.869 244.981 143.918C246.205 152.444 244.463 160.286 239.755 167.446C237.024 171.543 234.246 175.618 231.422 179.668C227.82 184.897 224.43 190.196 221.605 195.918C217.58 204.114 215.815 212.734 216.662 221.848C216.944 224.603 217.298 227.429 217.721 230.185C219.84 242.831 219.275 255.478 216.662 267.984C214.614 277.875 209.6 286.282 202.609 293.489C197.665 298.647 191.874 302.674 185.377 305.571C180.363 307.831 175.208 309.81 170.123 311.859C164.121 314.261 158.118 316.592 152.186 319.065C149.856 319.984 147.666 321.043 145.477 322.174C139.333 325.282 135.025 330.016 132.271 336.304C130.859 339.484 129.799 342.875 128.387 346.125C126.975 349.304 125.562 352.554 123.867 355.592C121.537 359.973 117.865 363.081 113.486 365.272C110.52 366.779 107.625 368.357 104.8 370.005C98.2323 373.891 94.207 379.755 92.0178 386.962C89.193 396.288 88.8399 405.685 90.676 415.152C91.1703 418.049 91.7353 420.946 92.4415 423.772C93.7833 428.929 95.5488 433.875 98.3029 438.467C100.139 441.576 101.975 444.755 103.882 447.793C104.871 449.489 105.93 451.255 107.837 452.174C108.402 452.456 108.613 453.163 108.331 453.728C108.049 454.152 107.413 454.576 106.989 454.576C106.354 454.647 105.577 454.435 105.012 454.011C104.235 453.375 103.458 452.598 102.893 451.75C99.9272 446.946 96.8199 442.212 94.207 437.266C91.2409 431.755 89.6167 425.75 88.4162 419.603C87.4981 414.728 86.7919 409.853 86.0151 405.049C85.3089 400.739 84.7439 396.429 83.8259 392.19C82.5547 385.973 80.1536 380.109 77.0463 374.527C75.2102 371.348 73.021 368.451 70.1962 366.049C67.442 363.717 64.6172 361.456 61.7218 359.266C56.9903 355.592 51.5525 354.038 45.6205 353.897C42.5838 353.897 39.5472 354.109 36.5105 354.179C32.9089 354.321 29.2366 354.603 25.635 354.533C23.1633 354.462 20.6916 354.179 18.3612 353.614C14.3358 352.696 11.2992 350.364 9.67492 346.549C8.68624 344.288 7.98003 341.886 7.48569 339.484C6.07329 332.136 6.4264 324.788 7.90941 317.511C9.10996 311.717 10.3105 305.994 11.4404 300.272C12.7116 293.701 11.9348 287.413 9.25119 281.337C7.90941 278.299 6.49699 275.331 5.15523 272.364C1.41237 264.239 -0.282519 255.69 0.0705995 246.717C0.35307 239.935 1.97734 233.505 5.01399 227.429C9.03933 219.304 14.2652 211.956 20.3385 205.174C24.9523 200.087 30.4136 196.13 36.7223 193.304C41.807 191.114 47.0328 189.348 52.2587 187.723C55.0835 186.804 57.9083 186.027 60.6625 185.109C62.9929 184.261 65.3234 183.413 67.5126 182.283C72.3148 179.951 75.8458 176.277 78.035 171.402C80.1536 166.527 81.7779 161.511 83.1196 156.424C84.8851 149.5 87.9924 143.282 92.5121 137.701C96.608 132.685 101.551 128.869 107.413 126.114C112.498 123.712 117.935 122.157 123.444 121.027C128.74 119.967 134.037 118.908 139.262 117.777C142.158 117.141 144.983 116.364 147.808 115.516C149.785 114.88 151.762 114.174 153.74 113.326C163.556 109.157 169.276 101.456 171.818 91.3531C173.019 86.6195 173.513 81.6738 174.361 76.7988C176.832 62.5977 182.764 50.0923 192.934 39.6357C197.877 34.6194 203.174 29.9564 208.964 25.9999C220.758 18.0868 233.399 11.5162 246.11 5.2988C249.712 3.53247 253.384 1.83682 257.198 0.777039C257.763 0.635743 258.328 0.494446 259.669 0.141174ZM80.9304 345.842C81.3542 345.206 81.7073 344.783 81.9191 344.288C85.097 338.283 89.4048 333.266 94.9132 329.31C102.823 323.516 111.509 319.065 121.043 316.734C125.703 315.603 130.435 314.614 135.167 313.907C142.864 312.848 150.562 312.071 158.189 311.081C162.426 310.587 166.522 309.81 170.547 308.397C176.197 306.418 181.776 304.228 187.072 301.402C199.078 294.902 207.693 285.364 212.354 272.435C214.402 266.5 215.179 260.353 215.532 254.136C215.532 253.924 215.391 253.712 215.32 253.359C214.896 253.571 214.473 253.712 214.12 253.994C211.86 255.973 209.317 257.386 206.705 258.728C200.82 261.696 194.746 264.168 188.485 266.147C179.586 268.902 170.547 270.668 161.296 271.587C152.327 272.505 143.288 273.141 134.319 273.848C127.681 274.413 121.043 275.119 114.475 276.391C106.212 277.946 98.4442 280.984 91.241 285.152C87.9218 287.06 84.8852 289.321 82.3428 292.076C76.8345 297.94 73.7978 304.723 74.4334 313.06C75.2102 323.869 77.4701 334.397 80.2242 344.853C80.2949 345.136 80.5774 345.348 80.9304 345.842ZM77.5407 283.174C78.2469 283.033 78.3881 283.103 78.4587 283.033C78.8824 282.75 79.2591 282.444 79.5887 282.114C89.5461 272.929 101.269 267.065 114.192 263.391C120.972 261.484 127.893 260.282 134.884 259.152C143.782 257.668 152.68 256.114 161.508 254.418C168.57 253.076 175.42 251.168 182.199 248.766C187.213 247.071 192.016 244.951 196.677 242.407C202.538 239.157 207.623 234.848 211.719 229.478C213.413 227.288 214.12 225.098 213.767 222.272C212.778 214.641 213.908 207.152 216.733 199.875C218.357 195.706 220.264 191.679 222.523 187.864C223.441 186.38 223.441 186.38 223.512 184.826C223.23 185.038 222.947 185.25 222.665 185.462C208.258 197.755 191.592 204.962 173.019 207.929C166.31 209.06 159.53 209.554 152.751 210.049C147.384 210.473 142.017 211.038 136.72 211.674C132.342 212.239 128.246 213.511 124.22 215.206C121.749 216.196 119.56 217.467 117.723 219.375C113.416 223.826 108.896 228.136 104.729 232.728C92.724 246.081 84.0377 261.342 78.7412 278.511C78.3175 279.994 78.035 281.478 77.5407 283.174ZM170.265 103.364C169.347 104.494 168.852 104.989 168.499 105.554C165.462 109.864 161.437 113.043 156.706 115.234C153.951 116.505 151.056 117.636 148.161 118.484C143.147 119.897 138.203 121.168 133.119 122.157C130.506 122.652 128.952 123.924 127.751 126.114C125.421 130.353 123.938 134.946 123.091 139.679C121.961 146.462 122.172 153.244 123.585 159.956C124.574 164.761 125.845 169.565 126.904 174.369C128.034 179.244 129.164 184.19 130.011 189.136C130.859 193.799 131.071 198.462 130.435 203.196C130.364 203.619 130.364 204.043 130.364 204.821C131.212 204.397 131.847 204.114 132.342 203.761C136.085 201.288 139.827 198.886 143.57 196.413C149.644 192.315 155.788 188.147 161.932 183.978C163.273 183.06 164.474 182 165.392 180.587C169.205 174.511 172.383 168.152 174.361 161.158C177.468 150.136 178.103 139.043 175.561 127.81C173.796 119.967 171.253 112.196 170.265 103.364ZM70.6199 306.842C70.8082 306.795 70.973 306.748 71.1143 306.701C71.1613 306.136 71.2084 305.571 71.2555 305.005C71.538 301.402 71.6792 297.799 72.1736 294.196C73.1622 286.494 75.2808 279.005 77.8231 271.728C78.4587 269.891 78.6706 268.125 78.6 266.217C78.3175 260.801 77.3524 255.502 75.7046 250.321C74.6217 246.976 73.5153 243.656 72.3854 240.359C69.1369 231.103 66.524 221.777 64.9703 212.098C63.7698 204.538 63.2754 196.978 64.4054 189.348C64.476 188.712 64.3347 188.076 64.3347 187.369C63.911 187.369 63.6285 187.299 63.4167 187.369C57.2021 189.348 50.8463 191.185 44.7024 193.446C40.7477 194.859 37.0048 196.837 33.1207 198.533C30.5078 199.734 29.0248 201.783 27.9655 204.467C24.9288 212.451 24.2226 220.576 25.3525 228.984C26.5531 237.886 29.9428 245.94 34.6744 253.5C39.4059 261.201 45.0555 268.196 50.8463 275.119C53.8595 278.699 56.8019 282.35 59.6738 286.071C63.8404 291.511 67.0183 297.516 69.4194 303.946C69.7725 304.935 70.1962 305.853 70.6199 306.842ZM127.398 123.853C126.763 123.641 126.551 123.571 126.339 123.571C120.901 124.56 115.534 125.902 110.45 128.022C106.848 129.576 103.458 131.413 100.492 133.956C99.3622 134.946 98.3029 136.076 97.4555 137.348C96.2549 139.326 95.1957 141.446 94.207 143.565C88.7692 155.364 86.4388 167.799 86.0857 180.728C85.7326 192.951 86.7919 205.103 88.4161 217.185C89.5461 225.946 90.676 234.636 90.8172 243.467C90.8172 243.821 90.9585 244.103 91.0997 244.739C91.594 244.244 92.0884 243.962 92.4415 243.538C94.7719 240.429 96.9612 237.25 99.4329 234.283C107.201 225.027 115.675 216.478 125.35 209.06C127.54 207.364 128.811 205.315 128.952 202.63C129.164 200.44 129.305 198.179 129.234 195.989C129.093 190.549 128.105 185.25 126.833 180.022C125.562 174.652 124.15 169.283 122.949 163.913C121.89 159.462 121.113 154.94 120.972 150.348C120.76 141.799 122.102 133.533 126.339 125.902C126.692 125.337 126.975 124.701 127.398 123.853ZM243.356 10.1738C242.509 10.5271 241.732 10.739 241.096 11.0923C237.707 12.8586 234.388 14.5542 231.068 16.3205C223.653 20.3477 216.309 24.5162 209.388 29.3912C204.515 32.8531 200.066 36.8097 195.758 40.9782C192.51 44.0868 190.462 47.7607 189.191 51.9999C188.343 54.6846 187.637 57.4401 187.213 60.1955C185.448 70.2282 185.66 80.2607 187.072 90.2933C187.92 96.2281 188.838 102.163 189.826 108.027C190.956 115.304 191.733 122.652 192.157 130.071C192.51 136.288 192.369 142.505 191.168 148.652C190.744 150.913 190.25 153.174 189.756 155.435C190.674 154.94 191.309 154.304 191.733 153.598C197.595 143.706 201.549 133.038 204.021 121.875C205.857 113.538 206.705 104.989 207.481 96.4401C208.046 89.2336 208.399 81.9564 208.894 74.7499C209.459 67.3314 210.73 60.0542 212.848 52.989C215.532 44.2988 220.264 36.8097 225.56 29.6032C230.292 23.2444 235.729 17.6629 241.661 12.4346C242.297 11.8694 243.286 11.5162 243.356 10.1738ZM75.5633 341.321C75.7752 340.967 75.987 340.755 75.9164 340.614C75.2102 337.647 74.7159 334.609 73.7272 331.712C71.1849 324.223 67.7245 317.228 63.2048 310.728C57.6258 302.674 51.4819 295.185 44.3493 288.473C40.2533 284.658 36.1574 280.772 32.2733 276.674C19.7736 263.533 11.511 248.13 8.96872 229.902C8.8981 229.408 8.68623 228.913 8.54498 228.348C8.12127 228.56 7.83879 228.63 7.76817 228.772C5.93205 232.587 4.44902 236.543 3.74281 240.712C1.97731 250.886 3.38972 260.636 7.41507 270.033C8.6156 272.788 9.95738 275.543 11.2285 278.299C12.9234 282.185 14.2652 286.141 14.9008 290.38C15.042 291.793 15.5364 293.136 16.0307 294.408C18.7143 300.625 23.0927 305.429 28.3186 309.598C32.4852 312.989 37.0755 315.744 41.807 318.429C47.4566 321.538 53.1768 324.505 58.7558 327.755C64.476 331.005 69.7725 334.821 74.0803 339.908C74.5746 340.402 75.069 340.826 75.5633 341.321ZM88.6986 385.337C88.887 385.384 89.0988 385.408 89.3342 385.408C89.5225 384.889 89.7109 384.348 89.8992 383.783C92.5827 376.435 97.2436 370.783 104.023 366.897C106.707 365.413 109.39 364 112.074 362.587C116.24 360.538 119.489 357.641 121.608 353.543C122.596 351.706 123.585 349.799 124.362 347.891C125.633 344.853 126.692 341.744 127.963 338.706C129.023 336.092 130.223 333.549 131.636 331.076C134.602 325.989 138.768 322.103 144.065 319.56C147.737 317.723 151.55 316.168 155.293 314.473C156.141 314.049 157.059 313.625 157.906 313.201C156.988 312.777 156.211 312.777 155.434 312.918C148.796 313.696 142.158 314.473 135.59 315.321C132.977 315.603 130.435 316.098 127.963 316.522C116.382 318.712 105.718 323.163 96.1843 330.087C93.0771 332.418 90.1817 334.962 87.7806 338C85.3795 340.967 83.3315 344.076 82.0604 347.679C81.6366 348.88 81.4954 350.081 81.8485 351.424C82.6959 354.462 83.4021 357.571 84.3202 360.609C86.3682 367.956 87.7806 375.446 88.3455 383.076C88.3455 383.853 88.5574 384.63 88.6986 385.337ZM214.402 228.842C213.837 229.054 213.696 229.054 213.696 229.125C213.366 229.502 213.06 229.878 212.778 230.255C208.399 236.261 202.82 240.783 196.323 244.244C191.851 246.6 187.213 248.601 182.411 250.25C175.773 252.511 168.993 254.489 162.073 255.761C153.104 257.456 144.065 258.94 135.096 260.565C129.305 261.625 123.514 262.685 117.794 263.956C111.156 265.44 104.8 267.842 98.656 270.81C91.3116 274.413 84.7439 279.076 78.8825 284.799C77.0463 286.565 75.987 288.685 75.6339 291.228C75.3515 293.418 74.9277 295.609 74.7159 297.799C74.6453 298.435 74.8571 299 74.9984 300.201C78.6 292.712 83.9671 287.766 90.4641 283.951C97.8086 279.641 105.647 276.603 114.051 275.049C119.771 273.918 125.562 273.141 131.424 272.647C139.051 272.081 146.607 271.516 154.234 270.88C163.132 270.174 171.96 268.902 180.646 266.853C190.038 264.592 199.007 261.201 207.552 256.679C209.812 255.478 212.001 254.136 213.837 252.228C215.25 250.886 216.026 249.331 216.026 247.282C216.097 241.984 215.673 236.755 214.896 231.527C214.755 230.679 214.614 229.902 214.402 228.842ZM205.363 129.435C206.069 129.293 206.351 129.293 206.493 129.152C210.377 125.902 214.826 123.571 219.134 120.956C222.877 118.766 226.619 116.576 230.15 114.103C237.989 108.592 244.274 101.81 248.582 93.1901C252.396 85.489 254.091 77.2934 253.455 68.6738C253.314 66.6955 252.89 64.7879 251.972 62.951C250.348 59.5596 248.794 56.1684 247.24 52.7771C246.958 52.2825 246.887 51.576 245.828 51.7173C245.616 52.2825 245.334 52.8477 245.051 53.4836C243.851 56.6629 242.156 59.6303 240.249 62.4564C233.046 72.7716 224.077 81.1792 213.413 87.8912C212.637 88.3858 211.93 88.951 211.154 89.4455C209.882 102.869 208.753 116.152 205.363 129.435ZM242.015 151.054C241.026 152.326 240.461 153.103 239.896 153.81C237.919 156.141 236.153 158.614 233.964 160.734C218.992 175.076 201.479 184.755 180.999 188.924C176.691 189.772 172.242 190.407 167.793 190.973C163.203 191.609 158.542 192.386 154.093 193.869C152.68 194.364 151.268 195 149.997 195.848C145.053 198.956 140.133 202.159 135.237 205.456C132.624 207.223 130.153 209.13 127.61 211.038C127.186 211.321 126.551 211.674 127.045 212.38C127.257 212.38 127.54 212.38 127.751 212.31C134.531 210.261 141.452 209.342 148.514 208.848C152.751 208.565 156.917 208.353 161.155 208C175.279 206.799 188.908 203.831 201.761 197.473C216.662 190.054 229.232 180.092 237.495 165.326C238.625 163.277 239.684 161.158 240.531 158.967C241.45 156.706 242.297 154.375 242.015 151.054ZM12.0054 312.565C11.4404 315.533 10.8755 318.147 10.3811 320.831C9.32181 326.978 9.32181 333.196 10.5223 339.342C10.8754 341.25 11.511 343.228 12.2172 345.065C13.2765 347.538 15.1126 349.234 17.7256 350.223C20.621 351.283 23.587 351.636 26.6943 351.565C30.4372 351.494 34.18 351.212 37.9229 351.141C40.9596 351 43.9962 350.859 47.0329 351C52.5412 351.212 57.5552 352.978 62.2161 355.946C71.8205 362.092 79.4474 370.005 83.7552 380.744C83.8965 381.215 84.0848 381.639 84.3202 382.016C84.4614 382.158 84.6733 382.228 84.8852 382.369C84.9558 382.158 85.1676 381.946 85.1676 381.804C84.8146 376.011 83.7553 370.429 81.0011 365.201C77.9644 359.619 74.5747 354.25 69.7019 350.081C66.3827 347.185 62.7105 344.571 59.0383 342.098C52.0469 337.364 44.1375 334.185 36.5105 330.652C32.697 328.815 28.8835 326.978 25.2819 324.859C20.4798 322.033 16.2426 318.571 13.2059 313.766C12.9941 313.413 12.6409 313.13 12.0054 312.565ZM170.477 181.859C171.041 181.929 171.395 182 171.677 181.929C177.986 180.186 184.318 178.467 190.674 176.772C201.337 173.875 210.8 168.647 219.346 161.652C227.82 154.799 234.741 146.603 239.755 136.853C240.461 135.581 240.885 134.31 240.885 132.897C240.814 129.223 241.45 125.619 242.509 122.157C242.579 122.016 242.368 121.734 242.297 121.592C242.226 121.522 242.085 121.451 242.015 121.522C241.52 121.804 241.026 122.087 240.602 122.511C235.235 127.386 229.303 131.554 222.877 135.087C220.122 136.571 217.298 137.984 214.543 139.609C211.083 141.799 207.552 143.918 204.233 146.321C199.219 149.994 194.982 154.516 191.451 159.674C189.685 162.288 187.708 164.761 185.66 167.234C181.776 171.755 177.397 175.853 172.807 179.598C172.03 180.234 171.041 180.728 170.477 181.859ZM80.083 264.239C80.2713 264.239 80.4832 264.263 80.7186 264.31C82.2016 261.272 83.614 258.163 85.3089 255.196C86.2269 253.571 86.4388 252.016 86.0857 250.179C85.662 248.342 85.4501 246.505 85.1676 244.668C83.1197 232.304 81.0717 219.869 79.2355 207.505C77.6819 197.755 77.2582 187.935 79.0943 178.114C79.1649 177.761 78.9531 177.337 78.8825 176.842C76.8345 178.821 75.1396 180.799 73.0916 182.283C70.973 183.908 68.5719 185.179 66.1709 186.592C66.1002 187.158 65.8884 187.723 65.8178 188.288C65.1116 194.081 64.8997 199.946 65.6059 205.81C66.6652 215.842 68.925 225.663 72.1736 235.272C73.7272 239.793 75.2808 244.386 76.7639 248.908C78.2469 253.429 79.3062 257.951 79.7299 262.685C79.8005 263.179 79.9417 263.744 80.083 264.239ZM211.719 80.614C212.848 79.7662 213.484 79.3423 214.12 78.8477C219.487 74.2553 223.936 68.8151 227.891 62.951C232.269 56.5216 235.517 49.527 237.707 42.0379C240.037 34.0542 243.215 26.4238 245.969 18.5107C246.675 16.4619 247.735 14.4836 248.582 12.4346C248.794 11.9401 249.006 11.4455 249.147 10.951C248.794 10.8803 248.653 10.8097 248.582 10.8097C248.158 11.0923 247.735 11.3042 247.382 11.5869C237.495 19.5706 228.95 28.826 222.312 39.7064C219.628 44.1575 217.298 48.7499 215.815 53.6955C214.12 59.2064 213.06 64.8586 212.354 70.5814C212.001 73.6901 211.507 76.7988 211.719 80.614ZM187.425 52.2119C187.237 52.1177 187.072 52.047 186.931 51.9999C186.154 53.2716 185.307 54.5434 184.6 55.8151C181.634 61.114 179.728 66.7662 178.315 72.5597C176.267 80.7553 175.632 89.0216 177.185 97.3586C178.103 102.516 179.092 107.744 180.222 112.902C181.564 119.331 182.764 125.761 183.471 132.331C184.036 138.078 184.012 143.801 183.4 149.5C182.694 155.576 181.14 161.511 178.668 167.163C178.174 168.364 177.397 169.494 177.327 171.473C179.798 169.424 181.423 167.304 183.259 165.397C185.519 163.136 186.79 160.522 187.637 157.484C190.25 148.511 191.309 139.397 190.744 130C190.179 122.087 189.332 114.103 188.061 106.261C186.978 99.5252 186.013 92.7897 185.165 86.0542C184.036 77.364 184.318 68.7444 185.73 60.1249C186.154 57.4401 186.86 54.826 187.425 52.2119ZM80.5067 361.103C80.695 361.009 80.8834 360.938 81.0717 360.891C80.9304 360.255 80.8598 359.619 80.7186 358.984C79.9417 355.875 79.0237 352.837 78.3175 349.728C77.8232 347.397 76.7639 345.418 75.2808 343.511C71.9382 339.225 68.0305 335.527 63.5579 332.418C57.6965 328.391 51.2701 325.212 44.9849 321.75C39.0528 318.5 33.1207 315.179 27.7536 310.94C23.1633 307.337 19.2086 303.31 16.3838 298.152C16.1013 297.658 15.7482 297.234 15.1126 296.456C14.9008 297.728 14.7596 298.647 14.6183 299.565C14.124 302.109 13.7709 304.652 13.2059 307.125C12.7822 308.891 12.9941 310.375 13.7709 311.859C14.9714 314.19 16.5957 316.168 18.5024 317.935C21.9628 321.185 25.7762 323.869 30.0134 325.989C35.1452 328.533 40.3475 330.958 45.6205 333.266C51.6938 335.88 57.3434 339.13 62.7811 342.804C69.5606 347.397 75.4927 352.837 79.6593 359.973C79.9417 360.326 80.2242 360.679 80.5067 361.103ZM69.3488 309.668C67.3714 301.685 64.1229 294.478 59.2501 288.049C56.3547 284.092 53.1768 280.277 50.1401 276.462C46.1854 271.446 42.1601 266.571 38.3466 261.554C34.3919 256.326 30.9315 250.674 28.3186 244.598C22.8808 231.739 21.5391 218.598 26.2706 205.174C26.4118 204.821 26.8355 204.397 26.0587 203.902C25.635 204.255 25.1407 204.538 24.7876 204.962C23.1633 206.658 21.6097 208.353 19.9854 210.049C18.2199 211.956 17.4431 214.147 17.09 216.69C16.4544 222.696 16.5957 228.63 17.7962 234.565C19.5617 242.902 23.0221 250.533 27.8242 257.668C31.6377 263.25 35.9455 268.549 40.5358 273.565C44.4905 277.875 48.5159 282.114 52.4706 286.424C58.6851 293.065 63.9816 300.342 68.5013 308.185C68.7838 308.703 69.0663 309.197 69.3488 309.668ZM158.401 190.973C161.979 190.455 165.557 189.937 169.135 189.418C172.595 188.853 176.126 188.429 179.586 187.723C200.066 183.837 217.651 174.299 232.763 159.956C236.012 156.918 238.625 153.315 241.167 149.641C241.944 148.511 242.368 147.38 242.156 146.038C241.873 143.918 241.661 141.869 241.308 139.75C241.238 139.397 240.955 139.043 240.673 138.478C238.766 141.446 237.142 144.342 235.235 146.956C224.218 161.793 210.094 172.391 192.227 177.761C187.002 179.315 181.564 180.516 176.338 182.141C172.524 183.272 168.782 184.614 165.039 185.956C162.355 186.946 160.307 188.782 158.401 190.973ZM69.9843 318.924C70.1727 318.877 70.361 318.806 70.5493 318.712C70.4787 318.147 70.4081 317.581 70.2668 317.016C69.2311 313.013 67.6068 309.268 65.394 305.783C61.0156 298.811 56.0251 292.311 50.4226 286.283C44.4905 279.924 38.6997 273.494 32.9795 266.924C28.6717 261.978 24.9994 256.538 22.0334 250.603C17.0194 240.783 14.6183 230.397 15.4657 219.304C15.5364 218.527 15.5364 217.821 15.607 216.549C14.9008 217.114 14.4771 217.397 14.2652 217.679C13.3471 219.092 12.5703 220.505 11.511 221.848C10.2398 223.543 9.81613 225.38 10.0986 227.429C10.3105 228.489 10.3105 229.549 10.5223 230.609C11.8641 239.087 14.4064 247.212 18.3612 254.913C22.4571 262.755 27.6124 269.891 33.8269 276.25C37.711 280.277 41.807 284.092 45.9029 287.978C55.0129 296.739 62.8517 306.489 69.0663 317.511C69.3487 318.005 69.7019 318.5 69.9843 318.924ZM255.15 72.5597C255.103 73.2662 255.032 73.9491 254.938 74.6086C254.091 86.6194 249.571 97.076 241.52 105.978C236.718 111.206 231.21 115.516 225.136 119.119C221.393 121.38 217.651 123.5 213.908 125.69C211.083 127.386 208.399 129.293 206.069 131.625C204.586 132.967 203.385 134.522 202.82 136.571C202.609 137.418 202.185 138.266 201.902 139.185C201.832 139.538 201.832 139.962 201.832 140.81C208.329 136.924 214.473 133.321 220.546 129.576C223.724 127.598 226.761 125.407 229.727 123.147C236.718 117.918 242.791 111.772 248.017 104.777C251.76 99.7607 255.009 94.5325 257.339 88.739C257.833 87.5379 258.328 86.2662 258.328 84.9944C258.328 80.614 257.339 76.4455 255.15 72.5597ZM87.7099 249.967C89.193 248.978 89.2636 247.989 89.193 246.929C89.193 243.043 89.2636 239.158 88.9105 235.342C88.4161 229.125 87.6393 222.978 86.8625 216.761C85.4501 205.456 84.3908 194.152 84.6027 182.777C84.7439 171.755 86.2269 161.016 89.8285 150.63C90.6054 148.44 91.4528 146.25 92.5121 143.353C91.4528 144.696 90.7466 145.331 90.3935 146.179C89.193 148.723 87.9924 151.266 87.0744 153.951C85.8032 157.837 84.8145 161.864 83.5434 165.679C81.4954 171.614 80.4361 177.761 79.7299 183.907C78.8118 191.821 79.4474 199.663 80.648 207.435C82.6959 220.717 84.8851 234.071 87.0038 247.353C87.145 248.13 87.4275 248.908 87.7099 249.967ZM211.295 87.3966C212.707 86.6195 213.555 86.1955 214.331 85.701C223.371 79.6249 231.21 72.3477 237.707 63.5868C240.602 59.6303 243.074 55.3912 244.698 50.6575C245.192 49.1738 245.263 47.8314 244.769 46.277C243.427 42.5325 242.65 38.576 242.721 34.5488C242.721 34.1956 242.438 33.7716 242.156 32.7825C241.238 35.7499 240.531 38.0814 239.755 40.4129C237.495 47.0542 235.164 53.6955 231.563 59.7716C226.407 68.3205 220.193 76.0923 212.213 82.239C211.93 82.451 211.719 82.7336 211.365 83.0868C211.365 84.2879 211.365 85.489 211.295 87.3966ZM168.429 178.679C170.759 177.407 171.96 175.924 173.019 174.44C176.832 169.212 179.022 163.348 180.575 157.13C182.694 148.652 182.976 139.962 181.846 131.272C181.14 125.69 180.081 120.179 179.092 114.668C177.892 108.168 176.62 101.739 175.349 95.3097C175.279 94.8151 175.137 94.2499 174.855 93.2607C173.796 94.8151 173.654 96.2282 172.948 97.4292C171.606 99.902 171.465 102.587 171.96 105.272C172.572 108.757 173.278 112.196 174.078 115.587C175.137 120.533 176.55 125.408 177.468 130.353C180.222 144.766 177.892 158.543 171.818 171.826C170.9 173.946 169.77 175.994 168.429 178.679ZM197.877 149.359C198.442 149.076 198.795 148.935 199.007 148.723C204.021 144.272 209.6 140.668 215.532 137.418C218.498 135.864 221.464 134.239 224.43 132.543C231.28 128.587 237.565 123.853 242.933 118.06C244.062 116.929 244.981 115.516 245.828 114.174C248.158 110.359 250.489 106.543 252.607 102.657C253.879 100.397 255.503 98.3477 255.997 95.5923C255.715 95.8749 255.503 96.0162 255.362 96.2281C250.277 104.989 243.992 112.831 236.365 119.543C229.656 125.478 222.312 130.424 214.614 134.946C211.365 136.83 208.117 138.714 204.868 140.598C201.691 142.505 199.007 144.837 197.948 148.581C197.877 148.723 197.948 148.793 197.877 149.359Z" fill="#E8C597" fill-opacity="0.35"/>
</g>
<defs>
<clipPath id="clip0_2_225">
<rect width="262" height="276" fill="white" transform="translate(262 276) rotate(180)"/>
</clipPath>
</defs>
</svg>
