<svg width="184" height="308" viewBox="0 0 184 308" fill="none" xmlns="http://www.w3.org/2000/svg">
<g clip-path="url(#clip0_2_89)">
<path fill-rule="evenodd" clip-rule="evenodd" d="M94.1285 296.577C93.2941 296.099 92.579 295.801 91.9234 295.442C88.586 293.831 85.3678 291.981 82.7455 289.355C80.0041 286.609 77.4414 283.684 74.8192 280.82C73.5677 279.506 72.4353 278.074 71.1838 276.761C68.1444 273.419 64.4494 270.912 60.3372 269.002C59.344 268.524 58.3308 268.087 57.2978 267.689C53.424 266.137 49.7886 264.167 46.2725 262.019C43.6502 260.407 40.9088 258.855 38.1673 257.483C33.042 254.916 27.6783 254.379 22.0763 255.513C15.5206 256.826 9.263 259.034 3.48214 262.377C-0.51083 264.764 -4.38461 267.271 -8.37757 269.778C-8.85435 270.076 -9.39072 270.375 -9.86749 270.792C-10.8806 271.628 -11.8938 271.747 -13.1453 271.151C-16.1847 269.778 -19.4029 269.181 -22.6807 269.002C-23.2171 268.942 -23.6939 268.882 -24.2303 268.823C-24.2899 268.823 -24.3494 268.763 -24.409 268.703C-23.7535 267.748 -23.7535 267.748 -22.8595 267.331C-20.3565 266.137 -17.7938 265.063 -15.41 263.69C-11.7746 261.482 -8.19879 259.034 -4.62299 256.587C-3.60985 255.871 -2.7755 254.797 -1.88155 253.901C-0.808812 252.767 0.204334 251.633 1.39626 250.559C5.27004 247.038 9.91857 245.486 15.1035 245.725C18.5601 245.844 21.9571 246.62 25.2945 247.515C32.4063 249.465 39.5579 249.544 46.7492 247.754C48.2987 247.336 49.9078 246.918 51.4574 246.5C56.4635 245.068 61.112 242.86 65.9989 241.069C66.1777 241.009 66.3565 240.771 66.7141 240.532C66.3565 240.353 66.1181 240.114 65.8201 240.054C63.1979 239.398 60.814 238.264 58.5493 236.772C58.1918 236.533 57.8342 236.294 57.4766 236.056C51.8149 232.474 45.7957 231.758 39.4188 233.489C34.7703 234.742 30.539 236.831 26.4864 239.279C24.3409 240.592 22.1954 241.885 20.05 243.158C19.3944 243.576 18.6793 243.874 17.8449 243.695C12.5408 242.8 7.59429 243.934 2.94577 246.441C2.88617 246.5 2.76698 246.441 2.52859 246.441C2.58819 246.083 2.58818 245.784 2.76698 245.486C6.46196 239.219 9.02461 232.474 11.1701 225.551C12.6004 221.134 14.2095 216.717 15.759 212.36C16.2358 210.809 17.1297 209.555 18.2621 208.481C26.0692 200.96 35.2471 196.902 46.2725 197.558C49.4311 197.737 52.5897 198.215 55.6887 198.991C59.0261 199.767 62.3635 200.722 65.7009 201.438C68.9787 202.154 72.3162 202.87 75.594 203.288C77.9778 203.646 80.4213 203.646 82.8051 203.587C88.3675 203.507 93.4729 201.896 98.1214 198.752C100.863 196.962 103.545 195.171 106.346 193.44C110.22 191.172 114.391 189.859 118.801 189.441C120.768 189.202 122.735 189.083 124.702 188.904C128.694 188.486 132.509 187.651 136.144 185.979C138.945 184.666 141.448 182.995 143.713 181.026C146.514 178.578 149.196 176.072 151.937 173.565C154.977 170.819 158.254 168.492 161.711 166.343C167.73 162.583 174.167 159.778 180.901 157.51C181.676 157.271 182.51 156.913 183.285 156.614C183.344 156.614 183.404 156.495 183.523 156.316C182.749 156.256 182.093 156.137 181.437 156.137C177.742 156.077 174.047 155.958 170.293 155.958C163.141 155.958 156.347 154.466 149.911 151.123C146.812 149.452 143.594 147.96 140.316 146.647C132.568 143.483 124.463 142.946 116.239 144.319C113.676 144.737 111.233 145.751 108.908 146.826C107.597 147.482 106.286 148.079 104.915 148.676C101.22 150.347 97.3467 151.422 93.2941 152.018C90.0759 152.436 86.8577 153.033 83.6395 153.69C79.8849 154.406 76.3687 155.779 72.9717 157.45C68.6212 159.658 64.9858 162.822 61.5888 166.283C55.2119 172.67 50.325 180.19 46.1533 188.188C44.9017 190.456 43.7694 192.784 42.5179 195.171C38.4653 195.648 34.3531 196.066 30.4794 197.678C26.7248 199.289 23.2682 201.438 19.6328 204.004C19.6328 202.751 20.1096 202.095 20.4076 201.438C24.6389 192.605 30.0026 184.487 36.6178 177.265C39.7764 173.744 43.0542 170.342 46.0937 166.701C48.2987 164.075 50.325 161.21 52.1725 158.345C56.2847 152.018 61.9463 147.721 68.7999 144.976C72.6737 143.424 76.6667 142.469 80.8384 142.111C83.997 141.872 87.1557 141.514 90.3739 141.215C91.4466 141.156 92.579 140.977 93.7113 140.917C99.0154 140.38 103.664 138.231 107.657 134.769C112.186 130.95 116.596 126.951 121.066 123.011C122.576 121.698 124.066 120.385 125.536 119.072C125.774 118.893 125.953 118.595 126.311 118.177C125.834 117.998 125.536 117.819 125.297 117.819C120.887 117.461 116.477 117.52 112.186 118.535C108.908 119.311 105.571 119.729 102.234 119.967C100.267 120.146 98.3002 120.445 96.3335 120.743C91.685 121.519 87.8112 123.787 84.295 126.891C79.7657 130.95 76.0111 135.605 73.0909 141.156C67.1908 142.887 61.5292 145.274 56.5826 149.81C56.6422 149.154 56.5827 148.795 56.6422 148.497C57.9534 144.916 59.2049 141.335 60.6352 137.873C62.4827 133.456 65.4029 129.875 69.0979 126.891C71.6407 124.862 74.2431 122.892 76.9051 120.982C81.8516 117.341 86.7385 113.7 91.1486 109.403C96.8699 103.912 101.638 97.8241 104.915 90.5425C108.432 82.9624 109.445 75.084 107.776 66.8474C106.644 61.1176 104.915 55.6265 103.068 50.1952C101.101 44.2863 99.075 38.4371 97.2275 32.5283C94.784 24.4708 93.5921 16.2342 93.2941 7.81853C93.1749 5.31174 92.9961 2.86464 92.8769 0.417535C92.1618 0.119108 91.983 0.596591 91.7446 0.835333C86.5001 6.92324 82.3283 13.608 79.2889 21.009C77.9182 24.3514 76.4879 27.6938 75.2364 31.0958C72.9121 37.6612 69.0979 43.1523 64.0322 47.9271C61.5292 50.2549 59.0857 52.7019 56.821 55.3281C51.0402 62.0726 47.3452 69.8317 46.5704 78.8442C46.0341 84.8724 47.4644 90.4828 50.325 95.7351C52.4705 99.6147 54.9139 103.255 57.5958 106.777C59.6817 109.582 61.6484 112.507 63.2575 115.67C64.2706 117.58 65.105 119.609 65.4625 121.698C65.7009 122.892 65.7009 124.086 65.7605 125.339C65.8003 126.294 65.4625 127.13 64.7474 127.846C61.1716 131.308 58.9665 135.545 57.2382 140.081C56.5827 141.872 55.8675 143.603 55.3311 145.453C52.7685 154.048 48.0603 161.389 42.0411 167.954C38.9421 171.416 35.7835 174.818 32.6844 178.34C25.2349 186.934 19.6924 196.723 15.3419 207.227C12.8984 213.017 10.8125 218.986 8.96502 225.014C7.41551 230.087 5.62762 235.16 3.18416 239.935C0.323528 245.665 -3.19268 250.917 -7.84121 255.453C-10.7614 258.258 -14.0988 260.586 -17.7342 262.377C-22.0252 264.525 -26.4949 266.435 -30.9051 268.405C-31.1435 268.524 -31.501 268.584 -32.097 268.823C-31.8586 268.286 -31.8586 267.928 -31.6798 267.748C-27.4485 263.511 -25.005 258.378 -23.3363 252.767C-22.502 250.022 -21.608 247.336 -20.7737 244.591C-19.0454 239.219 -16.4827 234.265 -12.9665 229.789C-8.97354 224.775 -4.86138 219.761 -0.808813 214.688C1.39626 211.943 3.54173 209.137 5.27004 206.034C6.64076 203.587 7.95187 201.02 9.02461 198.394C12.362 190.157 12.6004 181.801 9.32259 173.446C7.71349 169.327 5.9256 165.328 4.1973 161.27C3.18415 158.823 2.11141 156.376 1.15787 153.869C-0.630029 149.154 -1.58357 144.259 -1.64317 139.246C-1.64317 137.097 -1.58357 134.948 -1.58357 132.8C-1.58357 129.815 -1.58357 126.891 -1.70277 123.966C-1.82196 117.52 -3.90784 111.671 -7.00686 106.061C-9.50991 101.644 -12.013 97.2273 -14.1584 92.6315C-15.5888 89.5875 -17.0787 86.5436 -18.9262 83.7384C-19.3433 83.0221 -19.8797 82.3656 -20.3565 81.7091C-20.6545 81.8881 -20.8929 81.9478 -20.8929 82.0672C-21.608 87.1404 -23.8131 91.6168 -26.5545 95.8545C-28.1636 98.3016 -29.9515 100.629 -31.6202 103.017C-33.7061 106.061 -35.9112 109.045 -37.8183 112.208C-42.586 120.087 -44.8507 128.681 -44.4931 137.873C-44.2547 142.946 -42.9436 147.721 -41.1557 152.436C-40.0829 155.182 -39.1294 157.927 -38.5334 160.792C-37.6991 164.731 -37.5799 168.671 -38.593 172.61C-39.4274 175.873 -40.2617 179.136 -41.0961 182.398C-43.2416 190.456 -42.3476 198.275 -38.6526 205.735C-37.5799 207.944 -36.4475 210.092 -35.1364 212.062C-31.2626 217.792 -27.2697 223.402 -23.3959 229.072C-22.4424 230.445 -21.4888 231.758 -20.6545 233.191C-19.7605 234.683 -19.6413 236.056 -20.4757 237.786C-21.8464 240.95 -22.9191 244.232 -24.0515 247.455C-24.7666 249.485 -25.3626 251.574 -25.9586 253.663C-27.6869 259.512 -31.1435 264.287 -35.5536 268.465C-38.295 270.971 -41.2153 273.18 -44.5527 274.851C-46.3406 275.687 -47.9497 276.821 -49.6184 277.776C-50.1548 277.477 -49.976 277.119 -49.7972 276.821C-49.678 276.522 -49.4992 276.224 -49.3204 275.925C-47.2345 271.926 -45.983 267.629 -45.8042 263.093C-45.6254 259.154 -45.3274 255.334 -44.4335 251.514C-43.7779 248.769 -43.0628 246.023 -42.288 243.277C-41.6325 240.771 -40.9173 238.264 -40.2617 235.757C-39.0102 230.803 -38.6526 225.73 -38.9506 220.597C-39.0102 219.045 -39.3082 217.553 -39.785 216.061C-40.3213 214.27 -40.7981 212.42 -41.3345 210.63C-41.4537 210.152 -41.8112 209.734 -42.1092 209.197C-42.5264 209.675 -42.7648 209.973 -43.0032 210.331C-44.4335 212.539 -46.2214 214.39 -48.1285 216.18C-52.3002 220 -54.9225 224.835 -56.3528 230.266C-57.7235 235.638 -57.9619 241.129 -57.0084 246.68C-56.2932 250.559 -55.4588 254.439 -54.2073 258.199C-53.5518 260.347 -52.9558 262.496 -52.3598 264.645C-51.2871 268.465 -51.5255 272.165 -53.075 275.806C-54.8033 279.984 -57.2467 283.684 -60.5246 286.788C-66.0074 292.1 -70.8348 297.89 -74.8873 304.395C-75.4237 305.171 -75.8409 306.007 -76.258 306.842C-76.4368 307.32 -76.258 307.797 -75.8409 307.976C-75.6025 308.096 -75.1257 308.036 -74.8873 307.857C-74.5297 307.559 -74.1722 307.081 -73.9338 306.663C-69.6031 300.098 -64.6367 294.05 -59.0346 288.519C-52.777 282.312 -45.685 277.477 -37.6395 273.836C-36.4475 273.359 -35.2556 272.881 -34.1233 272.285C-32.7526 271.568 -31.3818 271.27 -29.8919 271.27C-27.8656 271.27 -25.899 271.21 -23.9323 271.21C-18.509 271.27 -13.6221 272.881 -9.09273 275.866C-7.12605 277.238 -5.21896 278.671 -3.19268 280.044C-0.391635 281.834 2.4094 283.684 5.32963 285.356C9.79937 287.982 14.7459 289.056 19.9308 288.937C22.1955 288.877 24.4005 288.698 26.6652 288.579C29.4066 288.4 32.1481 288.221 34.8895 288.041C40.0148 287.683 45.0209 288.459 49.8482 290.31C53.9008 291.802 57.8938 293.354 61.9463 294.786C66.5353 296.517 71.303 297.83 76.1899 298.427C79.7061 298.845 83.2223 298.904 86.7385 298.307C88.586 298.009 90.4335 297.651 92.3406 297.352C92.9366 297.233 93.4729 297.054 94.1285 296.577ZM-48.0689 258.318C-48.0689 258.278 -48.0887 258.219 -48.1285 258.139C-48.1285 258.139 -48.1086 258.119 -48.0689 258.079C-48.0689 258.119 -48.0689 258.159 -48.0689 258.199C-48.0689 258.239 -48.0689 258.278 -48.0689 258.318ZM-48.4265 257.542C-49.2012 252.171 -49.38 246.739 -48.9628 241.308C-48.9032 240.472 -48.5456 239.816 -47.8901 239.338C-46.0426 237.906 -44.4335 236.235 -43.0628 234.384C-42.9436 234.146 -42.6456 234.026 -42.288 233.787C-42.4072 234.444 -42.4072 234.981 -42.5264 235.399C-43.0032 237.428 -43.5395 239.458 -44.1355 241.427C-45.685 246.56 -46.9961 251.693 -47.6517 257.065C-47.7113 257.423 -47.9497 257.781 -48.0689 258.079C-48.2477 257.9 -48.4265 257.721 -48.4265 257.542ZM-47.9497 258.736C-48.0291 258.736 -48.1086 258.716 -48.1881 258.676C-48.1483 258.557 -48.1086 258.438 -48.0689 258.318C-48.0291 258.438 -47.9894 258.577 -47.9497 258.736ZM-6.47049 113.7C-5.09977 115.849 -4.623 117.64 -4.20582 120.863C-3.78865 124.623 -3.72905 128.383 -3.78864 132.203C-3.82838 135.545 -3.80851 138.908 -3.72905 142.29C-3.66945 143.424 -3.78864 144.438 -4.38461 145.453C-7.60282 151.063 -9.45032 157.151 -10.5231 163.478C-11.119 166.582 -11.8342 169.685 -12.5493 172.789C-13.1453 175.415 -14.1584 177.922 -15.6484 180.13C-15.8867 180.429 -16.2443 180.608 -16.6615 180.966C-17.3767 178.698 -17.913 176.609 -18.6282 174.58C-20.1181 170.282 -21.608 165.985 -23.2171 161.687C-23.6939 160.434 -23.8131 159.181 -23.5747 157.927C-23.3363 156.793 -23.1575 155.659 -22.7999 154.645C-21.7868 151.959 -20.8333 149.273 -19.5817 146.766C-18.0322 143.543 -16.1251 140.439 -14.3372 137.276C-12.5493 134.173 -10.6423 131.069 -9.27153 127.727C-7.54323 123.608 -6.47049 119.371 -6.53009 114.894C-6.53009 114.476 -6.47049 114.118 -6.47049 113.7ZM2.4094 162.941C3.06496 164.433 3.54173 165.388 4.0185 166.403C5.56802 169.864 6.99833 173.386 8.13066 177.027C9.79936 182.637 9.79937 188.188 8.19026 193.798C7.15726 197.379 5.70707 200.781 3.83972 204.004C2.05182 207.168 -0.0340561 210.152 -2.29873 212.957C-7.36443 219.284 -12.7281 225.372 -17.3767 231.997C-17.4363 231.997 -17.6746 231.937 -17.9726 231.878C-16.4827 223.343 -14.0988 214.927 -13.7413 206.332C-13.6221 206.093 -13.5625 206.034 -13.5029 205.974C-12.9864 205.536 -12.45 205.099 -11.8938 204.661C-6.11291 200.125 -2.17953 194.276 -0.391639 187.054C0.621498 182.936 1.27706 178.817 1.33666 174.52C1.39626 172.132 1.39626 169.745 1.45585 167.298C1.51545 166.045 1.57505 164.731 2.4094 162.941ZM-16.1847 182.816C-12.6089 177.265 -12.1918 176.251 -10.7018 169.447C-10.0463 166.522 -9.50991 163.538 -8.91395 160.613C-8.02 156.077 -6.53008 151.78 -4.44421 147.721C-4.20582 147.303 -3.90784 146.886 -3.43107 146.169C-3.19268 146.945 -3.07349 147.303 -3.01389 147.721C-2.33846 150.944 -1.34519 154.048 -0.034066 157.032C0.44271 158.166 0.800292 159.3 1.33666 160.374C1.69424 161.15 1.69424 161.867 1.39625 162.642C0.681098 164.254 0.502304 165.925 0.442711 167.656C0.402977 170.004 0.363251 172.331 0.323517 174.639C0.263924 178.817 -0.391639 182.876 -1.40478 186.875C-3.07349 193.679 -6.70888 199.17 -12.0726 203.527C-12.4301 203.825 -12.7877 204.303 -13.5625 204.064C-13.8009 202.333 -13.6221 200.543 -13.8009 198.752C-13.9201 196.962 -14.0392 195.171 -14.2776 193.38C-14.516 191.59 -14.814 189.799 -15.112 188.009C-15.4696 186.218 -15.8271 184.487 -16.1847 182.816ZM78.8718 90.6022C77.9182 89.1697 77.2627 88.1551 76.5475 87.2001C74.3424 84.2755 71.4818 82.0672 68.6211 79.8588C66.7141 78.4264 64.807 76.9342 63.0191 75.3227C61.5292 74.0096 60.0988 72.6369 59.2049 70.8463C57.4766 67.3846 56.821 63.6841 56.9402 59.8642C56.9402 58.9092 57.2382 58.193 57.8938 57.5365C59.5625 55.8056 61.1716 54.015 62.8403 52.2842C63.4363 51.6873 64.0322 51.0904 64.7474 50.4936C65.105 50.792 65.4029 51.0308 65.5817 51.2695C66.8929 53.1794 68.5616 54.7909 70.3495 56.2831C71.303 57.1585 72.2565 58.0338 73.2101 58.9092C76.1303 61.7741 77.9778 65.1762 78.2758 69.3542C78.395 70.7866 78.4546 72.2788 78.6334 73.7112C78.9314 76.9939 79.3485 80.2169 80.9576 83.1415C81.196 83.5593 81.3152 84.2158 81.196 84.6336C80.6596 86.4839 80.0637 88.3341 78.8718 90.6022ZM66.8929 180.011C69.4555 178.698 71.6606 177.385 73.9848 176.251C76.7859 174.938 79.6465 173.684 82.4475 172.371C83.9375 171.715 85.4274 171.655 86.9173 172.192C88.2284 172.61 89.5395 173.028 90.7911 173.684C92.5194 174.52 94.3073 175.475 95.9164 176.609C98.1215 178.101 100.267 179.712 102.353 181.384C105.511 183.771 108.67 186.159 112.484 187.412C112.723 187.472 112.901 187.651 113.319 187.949C112.723 188.188 112.246 188.427 111.829 188.606C110.458 189.143 109.028 189.561 107.716 190.217C106.227 190.933 104.677 191.411 103.008 191.411C101.161 191.411 99.2538 191.351 97.4063 191.112C94.2477 190.695 91.387 189.561 88.586 188.188C86.1425 186.994 83.6991 185.681 81.196 184.487C76.9051 182.458 72.4949 180.847 67.6676 180.488C67.5484 180.488 67.4292 180.309 66.8929 180.011ZM78.2162 97.5257C78.0374 97.4063 77.9182 97.2869 77.9778 97.2273C78.097 96.7498 78.2162 96.2723 78.395 95.7948C81.2556 88.8713 83.8183 81.8284 85.7254 74.5468C86.0233 73.4128 86.6789 72.8159 87.692 72.3981C89.8375 71.5029 91.685 70.1301 93.4133 68.5186C94.7244 67.2055 96.1547 65.9521 97.5255 64.639C99.0154 63.2663 100.624 62.1919 102.472 61.416C102.889 61.237 103.366 61.1773 103.843 61.0579C104.856 63.5647 106.167 69.3542 106.107 71.7416C106.107 72.2788 105.988 72.9353 105.809 73.4725C103.843 79.0232 100.327 83.3802 95.3204 86.4242C93.2941 87.6179 91.2678 88.7519 89.2416 89.886C85.9041 91.7362 82.6263 93.8252 79.7657 96.4514C79.2889 96.9288 78.693 97.2273 78.2162 97.5257ZM89.4203 7.34104C89.5793 7.38083 89.7382 7.44052 89.8971 7.5201C89.7779 7.99758 89.6587 8.47506 89.5395 8.95255C86.7981 17.5472 85.6657 26.2613 86.7385 35.2738C87.1557 38.4968 87.3345 41.7795 87.5728 45.0622C88.4668 56.2234 86.7981 67.0861 83.4607 77.7101C83.3415 78.0682 83.1627 78.4264 82.7455 79.3216C82.5667 78.2473 82.4475 77.7698 82.4475 77.352C82.5667 75.3824 82.6859 73.3531 82.8647 71.3835C83.0435 68.817 83.3415 66.2505 83.4607 63.6841C83.5203 60.461 82.8051 57.3574 81.494 54.3731C80.6596 52.4234 79.7657 50.4737 78.8122 48.524C77.3222 45.3606 76.1303 42.1973 75.7727 38.6759C75.6535 37.4225 75.5939 36.1691 76.1303 34.9157C77.9182 30.6183 79.5869 26.2613 81.3748 21.964C82.8647 18.2635 84.6526 14.742 86.7385 11.34C87.5728 9.9672 88.5264 8.65412 89.4203 7.34104ZM169.339 158.464C168.326 159.002 167.373 159.061 166.479 159.24C160.817 160.255 155.275 161.807 149.97 164.135C146.752 165.567 143.534 167.179 140.375 168.611C132.628 172.192 124.582 172.491 116.358 170.879C116.12 170.819 115.881 170.7 115.643 170.521C115.583 169.506 116.179 168.73 116.716 167.954C119.397 163.956 123.271 161.687 127.801 160.494C129.946 159.957 132.211 159.778 134.416 159.479C137.157 159.121 139.899 158.942 142.58 158.524C145.143 158.166 147.408 157.151 149.434 155.659C150.03 155.182 150.686 154.764 151.103 154.525C154.261 155.48 157.062 156.495 159.983 157.151C163.022 157.808 166.061 158.047 169.339 158.464ZM77.0243 95.6158C76.4283 97.2273 75.8323 98.7791 75.2364 100.331C74.5808 101.883 74.2828 103.614 73.3293 105.106C72.8525 105.106 72.4353 105.225 72.0182 105.165C71.2434 105.106 70.4686 105.046 69.7535 104.867C64.0322 103.435 58.9069 101.047 54.616 96.9288C52.9473 95.3372 51.6759 93.5069 50.8018 91.4378C48.9543 87.2598 48.3583 82.8431 48.8947 78.307C48.9543 77.8892 48.9543 77.4714 49.5503 77.352C49.9078 77.8892 50.325 78.486 50.6826 79.0232C52.2917 81.6494 54.4968 83.6787 57.119 85.2305C58.4897 85.9467 59.9201 86.663 61.3504 87.2001C63.7342 88.1551 66.1777 88.9907 68.5616 89.886C70.0515 90.4231 71.4818 90.9603 72.8525 91.6765C74.5212 92.5121 76.1303 93.5864 77.0243 95.6158ZM-27.2697 147.005C-27.3889 146.169 -27.5081 145.572 -27.5677 145.035C-28.1636 139.783 -27.8657 134.65 -26.5545 129.636C-25.7798 126.413 -24.707 123.31 -23.7535 120.206C-22.502 116.148 -21.1312 112.149 -19.9393 108.09C-18.4494 102.957 -17.4959 97.7047 -17.615 92.3331C-17.6746 92.0346 -17.4959 91.7362 -17.3767 91.199C-16.1251 93.8252 -14.9332 96.2126 -13.8605 98.6597C-13.4433 99.555 -13.0261 100.57 -12.7877 101.525C-11.7746 106.24 -11.9534 110.955 -12.7281 115.67C-13.8605 122.415 -16.6019 128.502 -20.3565 134.173C-22.9191 138.052 -25.3626 142.051 -26.7333 146.527C-26.7929 146.587 -26.8525 146.647 -27.2697 147.005ZM-39.6062 187.173C-39.189 187.77 -38.9506 188.009 -38.8314 188.248C-37.6395 190.933 -35.9112 193.321 -34.2425 195.708C-29.7131 202.154 -23.9919 207.287 -17.1979 211.167C-16.6615 211.465 -16.1847 211.764 -15.7079 212.002C-15.8867 215.225 -17.3171 222.925 -18.9262 229.669C-18.9858 229.848 -19.1645 230.027 -19.2837 230.326C-19.5817 230.087 -19.7605 230.027 -19.9393 229.848C-24.8262 223.581 -29.2364 217.016 -33.5273 210.391C-35.1364 207.944 -36.4476 205.318 -37.5799 202.632C-39.487 198.334 -40.2021 193.739 -39.9042 189.023C-39.8446 188.546 -39.7254 188.068 -39.6062 187.173ZM107.121 168.85C104.558 168.551 101.995 168.253 99.4326 168.074C96.8699 167.895 94.2477 168.014 91.7446 168.492C89.2416 169.029 86.7981 169.626 84.1758 170.163C84.295 169.805 84.295 169.506 84.4142 169.327C85.9637 166.761 87.5133 164.135 89.0628 161.628C89.9567 160.195 90.7911 158.763 91.8042 157.51C93.3537 155.659 95.2608 154.107 97.6447 153.57C101.638 152.615 105.333 151.063 108.968 149.273C111.054 148.318 113.199 147.303 115.464 146.826C115.822 146.766 116.179 146.886 116.596 146.945C116.358 147.244 116.298 147.423 116.179 147.542C116.06 147.661 115.881 147.721 115.762 147.84C113.378 149.989 111.849 152.635 111.173 155.779C110.875 157.271 110.637 158.823 110.339 160.315C110.041 161.926 109.743 163.538 109.326 165.09C108.908 166.522 108.372 167.895 107.121 168.85ZM-21.9656 169.387C-21.608 170.103 -21.31 170.64 -21.1312 171.177C-20.5353 172.849 -19.9989 174.46 -19.5221 176.131C-17.913 181.324 -16.5423 186.517 -15.7675 191.948C-15.7079 192.485 -15.3504 193.142 -16.0655 193.56C-23.4555 191.709 -32.991 184.07 -37.1031 176.549C-36.6859 174.341 -36.09 172.073 -35.792 169.805C-35.5536 167.417 -35.6728 165.03 -35.6132 162.463C-35.196 162.762 -34.8384 162.941 -34.5405 163.239C-33.7061 164.015 -32.9909 164.851 -32.1566 165.567C-29.3556 168.193 -26.2565 170.103 -21.9656 169.387ZM4.07811 273.359C8.60744 272.404 12.66 271.747 16.653 270.792C19.3348 270.196 21.7783 270.434 24.2813 271.27C28.9895 272.822 33.3996 274.911 37.2734 278.014C40.432 280.581 43.3522 283.326 46.3917 285.953C46.5704 286.132 46.5704 286.37 46.7492 286.788C46.0937 286.728 45.5573 286.669 45.0805 286.549C42.3391 285.893 39.4785 285.654 36.6178 285.714C34.9491 285.773 33.2208 285.893 31.4925 285.953C30.3006 285.953 29.0491 285.893 27.9167 285.714C24.6389 285.296 21.5399 284.162 18.7389 282.371C17.0106 281.297 15.2823 280.163 13.6136 278.969C10.9317 277.059 8.19026 275.269 5.15084 274.015C4.91245 273.956 4.73367 273.777 4.07811 273.359ZM-38.7718 119.43C-37.6991 119.848 -37.2223 120.624 -36.8647 121.4C-36.388 122.415 -35.9708 123.429 -35.6132 124.504C-34.9576 126.234 -34.4213 128.085 -33.7061 129.815C-32.991 131.606 -31.9778 133.158 -30.4283 134.352C-29.9515 134.71 -29.5344 135.128 -29.0576 135.545C-29.0576 136.023 -28.998 136.441 -29.0576 136.858C-29.4748 142.767 -28.7596 148.557 -27.0313 154.167C-25.9586 157.629 -24.707 161.031 -23.5747 164.433C-23.3959 165.09 -23.2171 165.686 -22.9787 166.641C-23.6343 166.283 -24.0515 166.104 -24.3494 165.865C-26.7333 163.956 -28.7596 161.747 -30.1303 159.002C-31.501 156.256 -32.7526 153.391 -34.0041 150.586C-35.9112 146.169 -37.8779 141.753 -41.5729 138.41C-42.288 137.873 -42.2284 137.097 -42.2284 136.321C-42.3476 130.711 -41.2153 125.339 -39.2486 120.146C-39.1294 119.967 -38.9506 119.729 -38.7718 119.43ZM102.412 192.605C102.452 192.764 102.492 192.923 102.532 193.082C101.399 193.858 100.207 194.634 99.1346 195.41C98.0023 196.305 96.7507 196.783 95.38 197.021C91.5658 197.857 87.8112 197.558 84.1759 196.245C81.8516 195.35 79.5869 194.276 77.3222 193.261C75.1768 192.306 73.1505 191.232 70.9454 190.336C65.7605 188.248 60.3968 187.233 54.7948 188.546C54.616 188.606 54.3776 188.427 53.9008 188.248C56.7019 186.159 59.3837 184.368 62.1847 182.697C63.5555 181.861 64.9858 181.503 66.5949 181.503C69.0383 181.503 71.3626 181.981 73.6869 182.697C77.0839 183.711 80.3021 185.204 83.4607 186.755C85.9041 188.009 88.4072 189.202 90.9103 190.336C94.1285 191.709 97.4659 192.425 100.982 192.485C101.459 192.485 101.936 192.545 102.412 192.605ZM-15.7079 210.63C-16.2443 210.45 -16.5423 210.331 -16.8403 210.152C-17.6746 209.675 -18.4891 209.197 -19.2837 208.72C-27.9252 203.109 -34.2425 195.41 -38.8314 186.218C-39.2486 185.442 -39.3678 184.607 -39.1294 183.771C-38.7122 182.279 -38.3546 180.727 -37.9375 179.235C-37.8779 178.996 -37.6395 178.758 -37.2819 178.28C-34.6001 182.398 -31.501 185.8 -27.6869 188.546C-23.9323 191.232 -19.9989 193.679 -15.5888 194.932C-14.7544 198.991 -14.814 207.407 -15.7079 210.63ZM90.5527 10.2059C90.7116 10.2457 90.8705 10.2855 91.0294 10.3253C91.1486 11.1609 91.2678 11.9965 91.3274 12.8321C91.8042 19.0394 92.8173 25.1273 94.486 31.0958C95.5588 34.9157 96.7507 38.6759 98.0022 42.4361C98.3002 43.4507 98.3002 44.2266 97.7043 45.0622C96.6911 46.614 96.2143 48.3449 95.7972 50.1355C95.4992 51.5082 95.2608 52.8213 94.9032 54.1344C93.9497 57.5365 92.281 60.5207 89.5395 62.7888C89.2415 63.0275 89.0032 63.4453 88.3476 63.1469C88.4072 62.6097 88.4072 62.0129 88.4668 61.416C89.0032 57.2977 89.2415 53.1794 89.0032 49.0611C88.7648 44.2266 88.5264 39.4518 87.99 34.677C87.1557 27.0969 87.99 19.6959 89.8375 12.4143C90.0759 11.6384 90.3143 10.9222 90.5527 10.2059ZM140.137 149.154C139.183 150.168 138.468 150.944 137.753 151.601C135.548 153.57 132.985 154.645 130.244 155.48C127.562 156.256 124.94 157.032 122.377 158.047C117.61 159.897 114.093 163.18 112.246 168.074C112.007 168.611 111.769 169.148 111.531 169.685C110.458 169.805 109.564 169.566 108.73 169.148C110.637 164.612 110.637 164.612 111.59 159.181C111.829 157.748 112.127 156.316 112.484 154.883C113.08 152.615 114.332 150.646 116.06 148.975C117.729 147.363 119.695 146.05 122.139 145.931C127.681 145.751 133.164 146.348 138.409 148.258C138.826 148.437 139.243 148.736 140.137 149.154ZM87.692 170.998C87.8708 170.819 87.9304 170.64 88.1092 170.64C91.7446 169.626 95.4992 169.148 99.3134 169.387C101.697 169.506 103.902 170.163 105.929 171.357C107.716 172.431 109.385 173.625 111.054 174.878C112.782 176.131 114.451 177.504 116.12 178.817C119.517 181.503 123.39 183.115 127.622 183.771C128.992 184.01 130.363 184.129 131.734 184.308C132.091 184.308 132.449 184.487 133.224 184.666C130.423 185.741 127.979 186.218 125.536 186.517C123.033 186.815 120.589 186.934 118.086 187.233C116.835 187.412 115.702 187.293 114.51 186.934C111.729 186.218 109.167 185.024 106.823 183.353C104.975 182.1 103.247 180.667 101.459 179.295C97.4063 176.131 93.1749 173.207 88.2284 171.476C88.0496 171.357 87.8708 171.177 87.692 170.998ZM102.353 90.1844C102.174 91.4975 101.518 92.3927 100.982 93.3477C97.1679 100.212 91.9234 105.882 86.0829 111.015C81.196 115.252 75.7727 118.833 70.6474 122.713C70.409 122.892 70.1111 122.952 69.6939 123.071C69.6939 122.594 69.6939 122.355 69.7535 122.116C71.1838 118.177 72.3757 114.118 73.4485 110C73.6273 109.224 74.104 108.448 74.5808 107.732C76.5475 104.688 79.3485 102.599 82.6263 101.107C84.8314 100.092 87.0961 99.2566 89.3608 98.421C94.0093 96.6901 98.2406 94.3624 101.638 90.6022C101.757 90.4231 101.995 90.3634 102.353 90.1844ZM93.2941 198.633C92.6385 199.051 92.3406 199.349 91.983 199.528C89.5991 200.423 87.0961 201.02 84.4738 201.259C80.5802 201.617 76.7263 201.418 72.9121 200.662C69.4555 200.006 65.9989 199.17 62.6019 198.334C57.4766 197.081 52.4109 195.648 47.1664 195.35C46.8684 195.29 46.5704 195.111 45.9745 194.932C47.1068 193.918 48.0603 193.022 48.9543 192.187C49.3715 191.829 49.7887 191.53 50.2058 191.232C50.4045 191.112 50.623 190.993 50.8614 190.874C54.5564 189.441 58.2514 188.606 62.2443 189.143C65.4029 189.561 68.502 190.336 71.4222 191.65C73.1505 192.425 74.8192 193.261 76.5475 194.037C78.5142 194.992 80.4213 195.887 82.4475 196.723C85.4274 197.917 88.5264 198.633 91.7446 198.513C92.1618 198.513 92.579 198.573 93.2941 198.633ZM55.7483 60.7595C55.8675 61.4757 55.9271 61.8338 55.9867 62.2516C56.1655 63.6841 56.2847 65.1762 56.5826 66.6086C57.2978 69.772 58.6685 72.5772 61.0524 74.9049C63.1383 76.9342 65.4625 78.7248 67.7272 80.5153C69.8131 82.1865 71.899 83.8577 73.8657 85.6483C75.5344 87.2598 76.9051 89.1697 77.9778 91.2587C78.4546 92.2137 78.3354 93.0493 77.3222 93.8252C74.8192 90.9603 71.4222 89.7069 67.9656 88.5729C67.2504 88.3341 66.5353 88.0954 65.7605 87.797C63.7938 87.0211 61.7676 86.3048 59.8009 85.4692C55.6887 83.5593 52.4705 80.6944 50.325 76.6358C49.6695 75.3227 49.4907 74.129 49.9078 72.6966C51.0402 68.7573 52.7089 65.1165 54.9139 61.6548C55.0331 61.416 55.3311 61.1773 55.7483 60.7595ZM35.5451 258.915C34.8895 259.154 34.7107 259.213 34.5915 259.273C30.4794 259.452 26.844 260.825 23.5066 263.153C21.1227 264.824 18.6793 266.495 16.2954 268.166C14.3883 269.479 12.3024 270.494 9.91856 270.852C8.24986 271.091 6.58116 271.509 4.85286 271.807C0.979077 272.464 -2.95429 272.881 -6.94725 272.762C-7.24524 272.762 -7.54322 272.583 -8.13919 272.404C-7.42403 271.867 -7.00685 271.449 -6.47049 271.151C-3.49066 269.3 -0.510837 267.45 2.46899 265.54C6.46196 263.093 10.6933 261.123 15.1035 259.631C18.4409 258.557 21.8379 257.662 25.4137 257.304C28.7511 256.945 32.0289 257.363 35.5451 258.915ZM74.5212 38.9743C75.1172 42.1376 76.0707 45.0622 77.4414 47.8674C78.0771 49.2999 78.7327 50.7124 79.4081 52.1051C81.6132 56.5815 82.8051 61.2966 82.3879 66.3102C82.1893 68.2202 81.9708 70.1102 81.7324 71.9803C81.2556 74.9049 81.196 77.8295 81.9112 80.6944C82.0304 81.1122 82.0304 81.53 82.0304 81.9478C81.494 81.6494 81.1364 81.2913 81.0172 80.8138C80.5405 78.9038 80.0637 76.9939 79.8253 75.0243C79.5273 72.995 79.4677 70.906 79.2889 68.8767C78.9313 65.4746 77.7394 62.4904 75.4747 59.9836C73.9848 58.3124 72.3161 56.8202 70.707 55.2684C69.4555 54.015 68.1444 52.7616 66.8929 51.4486C66.2969 50.9114 65.8797 50.2548 65.9393 49.2402C69.0383 46.1962 71.9586 42.8539 74.5212 38.9743ZM50.027 273.359C52.7685 272.225 55.3907 271.807 58.0726 271.867C60.3372 271.867 62.4827 272.344 64.3302 273.836C65.4625 274.732 66.7141 275.567 67.7272 276.582C69.9919 278.91 72.197 281.357 74.3424 283.744C78.0374 287.803 81.7324 291.742 86.3809 294.667C86.5597 294.786 86.6789 294.965 87.0365 295.323C86.4405 295.323 86.1425 295.323 85.8445 295.263C81.196 294.249 76.7859 292.637 72.7929 289.951C70.2899 288.28 67.8464 286.549 65.5221 284.639C60.6948 280.879 55.9867 277 50.6826 273.956C50.5634 273.896 50.4442 273.717 50.027 273.359ZM-11.1786 103.673C-8.97354 106.777 -7.66243 109.582 -7.54323 112.925C-7.48363 116.565 -7.78161 120.146 -8.85435 123.608C-9.98669 127.189 -11.5958 130.532 -13.4433 133.755C-14.9332 136.262 -16.4231 138.768 -17.913 141.275C-20.4161 145.692 -22.6807 150.288 -24.0515 155.241C-24.1707 155.6 -24.3495 155.958 -24.5282 156.376C-24.7666 156.196 -25.005 156.077 -25.0646 155.958C-25.3626 155.003 -25.6606 153.988 -26.0182 153.033C-26.7333 151.183 -26.5545 149.333 -25.9586 147.482C-24.7666 143.663 -23.0383 140.141 -20.8333 136.799C-19.3433 134.531 -17.9726 132.263 -16.6615 129.935C-12.4897 122.295 -10.6423 114.059 -11.1786 105.285C-11.2382 104.986 -11.2382 104.628 -11.1786 103.673ZM117.61 122.832C117.61 122.952 117.629 123.071 117.669 123.19C115.166 125.399 112.663 127.607 110.1 129.756C108.491 131.188 106.823 132.501 105.094 133.874C101.399 136.858 97.1083 138.41 92.3406 138.768C87.6921 139.186 83.1031 139.664 78.4546 140.081C78.1566 140.141 77.8586 140.022 77.3222 139.902C79.1101 137.813 81.0768 136.262 83.2223 135.068C86.0829 133.456 89.0032 132.024 92.1022 131.069C96.8699 129.577 101.697 128.144 106.405 126.652C109.385 125.757 112.305 124.683 115.226 123.728C116 123.429 116.775 123.131 117.61 122.832ZM81.3152 156.674C80.898 157.39 80.7788 157.689 80.6001 157.987C79.8253 159.479 78.8718 160.912 78.1566 162.523C77.4414 164.135 76.9647 165.925 76.3091 167.596C75.5343 169.566 74.7 171.595 73.8657 173.565C73.3293 174.759 72.4353 175.654 71.1838 176.251C68.9191 177.444 66.6545 178.698 64.3302 179.892C63.913 180.13 63.4959 180.548 62.8999 180.13C62.4231 179.056 62.3039 177.862 62.4231 176.669C62.5423 174.52 62.7807 172.371 63.0787 170.223C63.3767 168.134 64.211 166.283 66.1181 165.09C66.4757 164.851 66.7737 164.493 67.0716 164.254C71.1242 160.733 75.6535 158.226 81.3152 156.674ZM114.868 172.491C119.815 172.789 124.523 173.386 129.231 172.968C134.118 172.491 138.587 170.819 142.878 169.029C143.951 169.387 144.845 169.745 145.739 169.984C146.693 170.163 147.646 170.282 148.54 170.402C149.434 170.581 150.447 170.342 151.46 170.879C149.076 173.087 146.693 175.057 144.547 177.265C143.355 178.459 142.044 179.056 140.435 179.175C139.064 179.235 137.694 179.354 136.323 179.295C132.032 179.116 127.801 178.399 123.629 177.086C120.828 176.191 118.205 174.938 115.762 173.266C115.464 173.087 115.166 172.729 114.868 172.491ZM83.6395 296.218C79.5273 296.517 75.4748 296.278 71.5414 295.323C71.1441 295.204 70.7468 295.064 70.3495 294.905C65.2242 292.995 60.516 290.369 56.4635 286.669C55.0332 285.316 53.6227 283.923 52.2321 282.491C48.8351 278.969 45.6765 275.269 41.7431 272.285C41.6239 272.165 41.5643 271.986 41.3259 271.449C42.0411 271.688 42.5179 271.867 42.9946 272.046C45.6765 272.941 48.2987 274.135 50.7422 275.508C54.02 277.418 57.0594 279.626 60.0393 282.013C62.6615 284.043 65.2242 286.191 67.906 288.221C72.4949 291.623 77.3818 294.488 82.9839 295.92C83.2223 295.98 83.4011 296.099 83.6395 296.218ZM-28.2828 130.054C-28.5808 129.457 -28.8788 129.099 -28.9384 128.681C-29.1768 127.249 -29.4748 125.817 -29.4748 124.384C-29.4152 122.415 -29.2364 120.445 -28.998 118.475C-28.6404 115.968 -28.104 113.521 -27.6869 111.074C-27.2101 108.269 -27.0909 105.464 -27.6869 102.599C-27.8061 102.301 -27.7465 101.942 -27.8061 101.763C-26.2565 99.4356 -24.6474 97.2273 -23.3363 94.9592C-22.0252 92.6912 -20.9524 90.3038 -19.6413 87.5582C-19.0454 89.5278 -18.9858 91.1393 -18.9262 92.7509C-18.8666 96.7498 -19.3433 100.689 -20.3565 104.509C-21.5484 108.806 -22.9191 113.104 -24.1707 117.341C-25.3626 121.221 -26.6141 125.1 -27.8061 128.92C-27.8657 129.219 -28.0444 129.517 -28.2828 130.054ZM105.809 76.2777C106.107 79.1426 105.929 81.9478 104.677 84.4546C102.412 88.8116 99.1346 92.2734 94.8436 94.7802C92.4598 96.1529 89.8971 97.1676 87.2749 98.1225C83.2223 99.4953 79.3485 101.346 76.0707 104.21C75.8919 104.33 75.6535 104.33 75.1768 104.449C75.4748 103.733 75.6536 103.255 75.8919 102.838C77.8586 99.3162 80.6597 96.511 83.9971 94.3624C87.4537 92.0943 91.0294 90.0053 94.6052 87.976C99.1942 85.3499 103.008 81.9478 105.273 77.1133C105.452 76.8148 105.631 76.5164 105.809 76.2777ZM61.3504 292.16C60.3372 291.802 59.7413 291.563 59.0857 291.384C57.0594 290.608 55.0928 289.772 53.0665 289.056C51.4574 288.519 50.0866 287.683 48.8351 286.669C47.226 285.236 45.5573 283.804 44.0078 282.371C38.5845 277.238 32.5653 273.001 25.4137 270.494C25.2349 270.434 25.1157 270.255 24.7581 269.897C25.2945 269.837 25.5925 269.718 25.95 269.718C28.3339 269.798 30.7376 269.877 33.1612 269.957C34.8299 270.017 36.3794 270.494 37.8098 271.27C39.2401 272.046 40.6704 272.881 41.9815 273.836C44.6038 275.806 46.8088 278.253 49.0735 280.641C52.7089 284.401 56.2847 288.28 60.6352 291.205C60.814 291.384 60.9332 291.623 61.3504 292.16ZM24.2813 286.43C17.4277 287.206 11.2893 286.37 5.50842 282.968C1.27707 280.521 -2.7159 277.656 -6.58968 274.732C-6.70887 274.672 -6.70887 274.433 -6.76847 274.194C-5.09977 274.075 -3.43106 274.135 -1.88155 273.896C0.263928 273.598 2.29021 273.956 4.1973 274.791C5.62761 275.448 7.05793 276.045 8.36905 276.821C10.3357 278.014 12.3024 279.327 14.2095 280.641C17.1894 282.67 20.1692 284.699 23.6854 285.833C23.8046 285.893 23.9238 286.072 24.2813 286.43ZM17.1894 269.181C17.4873 268.763 17.6065 268.524 17.7853 268.405C20.4076 266.555 22.9702 264.705 25.6521 263.033C29.2874 260.765 33.2804 259.93 37.5118 260.288C38.6441 260.407 39.7168 260.646 40.6704 261.243C42.7563 262.556 44.7825 263.75 46.8684 265.063C47.0472 265.122 47.1068 265.421 47.2856 265.659C46.928 265.719 46.63 265.779 46.3917 265.779C42.2795 265.6 38.4057 266.495 34.6511 268.286C33.9956 268.584 33.3996 268.644 32.6845 268.584C27.9763 268.166 23.2682 268.405 18.5601 269.181C18.2025 269.241 17.7853 269.181 17.1894 269.181ZM86.7981 71.5029C86.7981 71.0851 86.7385 70.7269 86.7981 70.4285C87.0365 69.2348 87.3345 68.1008 87.5728 66.9071C87.7516 65.8327 88.2284 65.0568 89.1223 64.4003C92.7577 61.8935 94.9032 58.3124 95.976 54.0747C96.3335 52.881 96.5123 51.5679 96.8103 50.3145C97.1282 49.081 97.5056 47.8475 97.9426 46.614C98.0618 46.2559 98.4194 46.0172 98.777 45.48C100.148 47.8674 100.684 50.3145 101.459 52.6423C102.234 54.97 103.247 57.238 103.485 59.7448C103.068 60.0433 102.71 60.282 102.293 60.4611C99.9093 61.4757 97.8234 62.9082 95.976 64.7584C94.486 66.1908 92.9365 67.5636 91.387 68.9364C90.0759 70.0704 88.6456 70.9657 86.7981 71.5029ZM79.2889 135.844C79.8253 135.008 80.0637 134.65 80.3021 134.292C82.2092 131.845 84.5334 129.815 86.8577 127.727C89.4799 125.399 92.5194 123.847 95.976 123.19C98.3002 122.713 100.744 122.414 103.128 122.176C106.227 121.877 109.266 121.519 112.305 120.803C114.153 120.445 116 120.266 117.907 120.027C118.265 119.967 118.682 120.087 119.457 120.206C118.563 120.743 118.086 121.101 117.55 121.34C113.736 122.952 109.862 124.384 105.929 125.518C101.439 126.791 96.9891 128.144 92.579 129.577C90.5527 130.174 88.5264 131.009 86.6193 131.904C84.295 133.039 82.09 134.352 79.2889 135.844ZM-38.3546 118.057C-36.0304 112.925 -32.8122 108.627 -29.7727 104.27C-29.5344 103.972 -29.1768 103.733 -28.7 103.315C-28.5212 103.972 -28.402 104.39 -28.3424 104.807C-28.104 106.956 -28.402 109.105 -28.7596 111.194C-29.296 114.238 -29.8323 117.282 -30.2495 120.385C-30.7859 124.265 -30.6071 128.085 -28.998 131.785C-28.8192 132.143 -28.7 132.561 -28.7 132.979C-28.7 133.337 -28.8788 133.635 -28.998 133.993C-30.9647 132.621 -31.8586 131.666 -32.693 129.696C-33.13 128.582 -33.5273 127.448 -33.8849 126.294C-34.8384 123.31 -35.8516 120.385 -38.3546 118.057ZM112.723 169.864C113.378 167.775 114.272 165.925 115.524 164.254C117.371 161.807 119.815 160.076 122.675 159.002C125.476 157.987 128.396 157.092 131.257 156.196C133.999 155.361 136.502 154.048 138.647 152.138C139.481 151.362 140.256 150.407 141.091 149.571C143.832 150.347 148.183 152.556 149.792 153.928C149.434 154.645 148.778 155.003 148.123 155.421C146.037 156.734 143.772 157.45 141.329 157.748C138.707 158.047 136.084 158.285 133.403 158.524C131.019 158.703 128.635 159.061 126.37 159.837C121.245 161.568 117.192 164.493 114.749 169.387C114.63 169.566 114.57 169.685 114.51 169.864C114.034 170.461 113.497 170.402 112.723 169.864ZM74.998 174.162C76.3091 170.461 77.4414 167.238 78.6334 164.015C79.1101 162.762 79.6465 161.449 80.3617 160.315C81.0172 159.121 81.9112 158.047 82.8051 156.972C83.4011 156.256 84.2354 155.779 85.189 155.659C87.4537 155.241 89.7779 154.824 92.0426 154.466C92.4002 154.406 92.7578 154.406 92.8769 154.824C91.9234 155.958 90.8507 156.972 90.0163 158.106C89.1224 159.36 88.4072 160.733 87.6324 162.105C87.0365 163.12 86.5001 164.254 85.8445 165.209C84.7321 166.96 83.5401 168.651 82.2687 170.282C81.792 170.879 81.196 171.416 80.5405 171.715C78.8718 172.55 77.0839 173.266 74.998 174.162ZM73.0909 106.359C71.4818 111.552 70.5878 116.864 68.204 121.877C67.9656 121.519 67.7272 121.34 67.7272 121.101C66.7737 116.923 64.7474 113.223 62.3635 109.761C60.3968 106.837 58.3705 103.972 56.3443 101.047C56.0463 100.629 55.8079 100.092 55.5695 99.6744C60.8736 103.255 66.5949 105.643 73.0909 106.359ZM-23.0383 168.253C-25.005 168.73 -26.4949 168.253 -27.8061 167.477C-29.1172 166.701 -30.3687 165.746 -31.5606 164.731C-32.8718 163.657 -34.0041 162.344 -35.3152 161.21C-35.9708 160.613 -36.3284 159.957 -36.6263 159.121C-37.3812 156.654 -38.1759 154.207 -39.0102 151.78C-40.2021 148.378 -41.3345 144.916 -41.8708 141.335C-41.9304 140.917 -41.8112 140.439 -41.8112 139.843C-39.7254 141.693 -38.7718 142.887 -37.7587 145.035C-36.09 148.616 -34.4809 152.257 -32.8718 155.838C-31.3818 159.061 -29.7727 162.225 -27.1505 164.672C-25.9586 165.865 -24.6474 166.94 -23.0383 168.253ZM62.0655 181.205C56.9402 184.487 52.1129 187.77 47.6432 191.59C47.5836 191.65 47.524 191.65 47.4048 191.65C47.3452 191.65 47.2856 191.59 47.226 191.53C48.7159 186.338 58.1918 172.192 62.0655 169.626C61.41 173.505 60.9928 177.265 62.0655 181.205ZM140.316 180.25C140.137 180.787 140.137 180.966 140.018 181.026C138.349 182.518 136.442 183.353 134.177 183.353C127.562 183.353 121.424 181.801 116.12 177.624C113.259 175.355 110.279 173.147 107.359 170.879C107.359 170.819 107.359 170.7 107.359 170.461C109.326 170.76 111.173 170.998 112.782 172.371C115.762 174.878 119.159 176.728 122.854 177.922C128.039 179.593 133.343 180.548 138.826 180.309C139.243 180.25 139.66 180.25 140.316 180.25ZM-50.5719 244.949C-53.075 242.322 -54.3265 239.279 -54.9225 235.936C-54.9821 235.518 -54.9821 235.041 -54.9225 234.623C-54.5053 231.46 -53.671 228.356 -52.181 225.491C-52.0022 225.252 -51.8831 224.835 -51.2871 225.014C-50.9891 225.969 -50.7507 227.043 -50.3931 228.117C-50.0356 229.251 -49.5588 230.385 -49.1416 231.46C-48.8436 232.176 -48.9628 232.833 -49.1416 233.489C-49.9164 236.772 -50.2739 240.114 -50.3931 243.457C-50.4527 243.994 -50.5123 244.471 -50.5719 244.949ZM-41.7516 215.882C-41.2153 219.403 -41.2153 222.388 -41.0961 225.372C-40.9769 228.953 -42.2284 231.878 -44.4931 234.504C-45.387 235.578 -46.3406 236.533 -47.2941 237.548C-47.5921 237.786 -47.8305 238.204 -48.5456 237.906C-48.4861 237.369 -48.4861 236.772 -48.3669 236.235C-47.7113 233.668 -47.2345 231.042 -46.3406 228.535C-45.0295 224.477 -43.4203 220.478 -41.7516 215.882ZM36.439 268.703C39.2997 267.39 41.8623 266.973 44.5442 266.794C48.7159 266.495 52.5301 267.808 56.1655 269.658C56.6423 269.897 57.2978 269.897 57.4766 270.733C54.616 270.912 51.9341 271.449 49.3119 272.404C48.5371 272.702 47.822 272.583 47.1068 272.225C44.0078 270.872 40.8094 269.877 37.5118 269.241C37.2734 269.181 37.0946 269.002 36.439 268.703ZM167.075 161.091C166.081 161.568 165.068 162.026 164.035 162.463C160.698 164.075 157.599 166.164 154.619 168.372C153.904 168.909 153.129 169.447 152.116 169.506C149.97 169.566 147.825 169.506 145.739 168.909C145.381 168.79 145.143 168.492 144.786 168.253C150.507 164.731 162.009 160.733 167.075 161.091ZM35.4259 242.322C39.2997 241.009 54.4968 240.83 57.417 241.964C57.1786 242.143 56.9402 242.322 56.7615 242.442C54.02 243.277 51.3382 244.113 48.5967 244.889C47.9412 245.068 47.226 245.128 46.5704 245.128C42.9946 245.008 39.5381 244.292 36.2602 242.919C36.0219 242.8 35.7835 242.561 35.4259 242.322ZM-55.0417 240.054C-54.7437 240.592 -54.6245 240.89 -54.4457 241.129C-53.4326 242.919 -52.479 244.77 -51.4063 246.5C-50.8103 247.396 -50.5123 248.291 -50.4527 249.365C-50.2144 252.469 -49.9164 255.573 -49.678 258.617C-49.5191 260.527 -49.38 262.417 -49.2608 264.287C-49.2608 264.704 -49.082 265.182 -49.678 265.421C-50.7507 261.879 -51.8235 258.338 -52.8962 254.797C-53.1346 253.901 -53.4326 252.946 -53.6114 252.051C-54.1477 249.067 -54.6841 246.142 -55.1609 243.158C-55.3397 242.263 -55.4588 241.308 -55.0417 240.054ZM-48.4861 229.848C-48.7244 229.43 -49.082 229.132 -49.1416 228.774C-49.5389 227.381 -49.8965 225.969 -50.2144 224.536C-50.5719 223.104 -50.274 221.791 -49.2608 220.716C-47.3537 218.687 -45.5658 216.598 -43.7183 214.569C-43.6587 214.509 -43.4203 214.628 -43.3012 214.628C-43.5395 217.672 -46.0426 224.954 -48.4861 229.848ZM42.2199 245.844C41.8027 246.62 41.1472 246.5 40.6108 246.56C35.9623 247.038 31.3137 246.739 26.7844 245.605C25.95 245.366 25.0561 245.307 24.0429 244.471C26.9632 243.576 29.645 242.979 32.3269 242.561C32.8632 242.502 33.5188 242.8 33.9956 243.039C36.3198 244.173 38.7633 245.008 41.3259 245.486C41.6239 245.545 41.8623 245.725 42.2199 245.844ZM39.2401 239.995C39.5976 239.219 39.7764 238.682 40.0148 238.145C41.2067 235.757 43.0542 234.563 45.7957 234.862C47.6432 235.041 49.5503 235.101 51.3382 235.757C50.921 236.593 50.2654 236.473 49.6695 236.593C47.9412 237.13 46.2129 237.667 44.7229 238.741C43.1734 239.935 41.5047 240.234 39.2401 239.995ZM37.7502 240.293C35.7835 240.651 33.9956 240.95 32.2077 241.188C30.4198 241.487 28.6319 242.143 26.3076 242.024C30.8965 239.279 35.1279 236.951 40.2532 235.697C39.3593 237.428 38.5845 238.801 37.7502 240.293ZM45.8553 239.875C48.1795 237.846 50.8614 237.19 53.722 236.951C54.0796 236.891 54.5564 237.01 54.914 237.19C56.1655 237.906 57.417 238.622 58.6685 239.398C58.8473 239.517 59.0261 239.696 59.2049 239.816C59.0261 239.995 58.9665 240.174 58.8473 240.174C54.5166 240.094 50.186 239.995 45.8553 239.875Z" fill="url(#paint0_linear_2_89)" fill-opacity="0.7"/>
</g>
<defs>
<linearGradient id="paint0_linear_2_89" x1="113270" y1="79483.4" x2="-24.3533" y2="79483.4" gradientUnits="userSpaceOnUse">
<stop stop-color="#A87D56"/>
<stop offset="0.3" stop-color="#E8C597"/>
<stop offset="0.7" stop-color="#8D6531"/>
<stop offset="1" stop-color="#A87D56"/>
</linearGradient>
<clipPath id="clip0_2_89">
<rect width="308" height="184" fill="white" transform="matrix(4.37114e-08 1 1 -4.37114e-08 0 0)"/>
</clipPath>
</defs>
</svg>
