<svg width="224" height="325" viewBox="0 0 224 325" fill="none" xmlns="http://www.w3.org/2000/svg">
<g clip-path="url(#clip0_2_91)">
<path fill-rule="evenodd" clip-rule="evenodd" d="M91.4462 301.792C92.2952 301.306 93.0229 301.003 93.6899 300.638C97.0858 298.998 100.36 297.115 103.029 294.443C105.818 291.649 108.426 288.673 111.094 285.758C112.367 284.422 113.519 282.964 114.793 281.628C117.886 278.227 121.645 275.676 125.829 273.733C126.84 273.247 127.871 272.801 128.922 272.396C132.864 270.817 136.563 268.813 140.141 266.627C142.809 264.987 145.598 263.408 148.388 262.011C153.603 259.399 159.061 258.852 164.761 260.006C171.431 261.343 177.799 263.59 183.681 266.991C187.744 269.42 191.685 271.971 195.748 274.522C196.233 274.826 196.779 275.129 197.264 275.555C198.295 276.405 199.326 276.526 200.6 275.919C203.692 274.522 206.967 273.915 210.302 273.733C210.848 273.672 211.333 273.611 211.879 273.55C211.939 273.55 212 273.49 212.061 273.429C211.394 272.457 211.394 272.457 210.484 272.032C207.937 270.817 205.329 269.724 202.904 268.327C199.205 266.08 195.566 263.59 191.928 261.1C190.897 260.371 190.048 259.278 189.138 258.367C188.047 257.213 187.016 256.059 185.803 254.965C181.862 251.382 177.132 249.803 171.856 250.046C168.339 250.167 164.882 250.957 161.486 251.868C154.25 253.852 146.973 253.933 139.656 252.111C138.079 251.686 136.442 251.261 134.865 250.835C129.771 249.378 125.041 247.131 120.069 245.309C119.887 245.248 119.705 245.005 119.341 244.762C119.705 244.58 119.947 244.337 120.251 244.276C122.919 243.608 125.344 242.454 127.649 240.936C128.013 240.693 128.376 240.45 128.74 240.207C134.501 236.563 140.626 235.834 147.114 237.595C151.844 238.871 156.15 240.996 160.273 243.486C162.456 244.823 164.64 246.139 166.823 247.434C167.49 247.859 168.217 248.163 169.066 247.981C174.463 247.07 179.497 248.224 184.227 250.775C184.287 250.835 184.408 250.775 184.651 250.775C184.59 250.41 184.59 250.107 184.408 249.803C180.649 243.426 178.041 236.563 175.858 229.517C174.403 225.023 172.765 220.529 171.189 216.095C170.704 214.516 169.794 213.24 168.642 212.147C160.698 204.495 151.359 200.365 140.141 201.033C136.927 201.215 133.713 201.701 130.559 202.49C127.164 203.28 123.768 204.252 120.372 204.98C117.037 205.709 113.641 206.438 110.305 206.863C107.88 207.228 105.394 207.228 102.968 207.167C97.3081 207.086 92.1133 205.446 87.3833 202.247C84.5938 200.425 81.865 198.603 79.0148 196.842C75.0732 194.534 70.8283 193.198 66.3409 192.773C64.3398 192.53 62.3386 192.408 60.3375 192.226C56.2746 191.801 52.3936 190.951 48.6945 189.25C45.8444 187.914 43.2975 186.213 40.9931 184.209C38.143 181.719 35.4142 179.168 32.6247 176.617C29.532 173.823 26.1968 171.455 22.6796 169.268C16.5549 165.442 10.0057 162.587 3.15331 160.279C2.36498 160.037 1.51598 159.672 0.727685 159.368C0.667016 159.368 0.606377 159.247 0.4851 159.065C1.27343 159.004 1.94048 158.883 2.60751 158.883C6.36724 158.822 10.127 158.7 13.9473 158.7C21.2242 158.7 28.1373 157.182 34.6865 153.781C37.8398 152.08 41.1144 150.562 44.4496 149.226C52.3329 146.007 60.5801 145.46 68.9485 146.857C71.5561 147.282 74.0423 148.315 76.4073 149.408C77.7414 150.076 79.0755 150.683 80.4702 151.291C84.23 152.991 88.1716 154.085 92.2952 154.692C95.5698 155.117 98.8444 155.724 102.119 156.392C105.939 157.121 109.517 158.518 112.974 160.219C117.4 162.466 121.1 165.685 124.556 169.208C131.045 175.706 136.017 183.359 140.262 191.497C141.535 193.805 142.688 196.174 143.961 198.603C148.085 199.089 152.269 199.514 156.211 201.154C160.031 202.794 163.548 204.98 167.247 207.592C167.247 206.317 166.762 205.649 166.459 204.98C162.153 195.992 156.696 187.732 149.965 180.383C146.751 176.799 143.415 173.338 140.323 169.633C138.079 166.96 136.017 164.045 134.137 161.13C129.953 154.692 124.192 150.319 117.218 147.525C113.277 145.946 109.214 144.974 104.969 144.61C101.755 144.367 98.5412 144.003 95.2666 143.699C94.175 143.638 93.0229 143.456 91.8707 143.395C86.4737 142.849 81.7437 140.662 77.6808 137.139C73.0721 133.252 68.5847 129.183 64.0366 125.175C62.5004 123.838 60.9843 122.502 59.4885 121.166C59.246 120.984 59.064 120.68 58.7002 120.255C59.1853 120.073 59.4885 119.891 59.7311 119.891C64.2185 119.526 68.7059 119.587 73.0721 120.62C76.4073 121.409 79.8032 121.834 83.1991 122.077C85.2002 122.259 87.2013 122.563 89.2025 122.867C93.9325 123.656 97.8741 125.964 101.452 129.122C106.061 133.252 109.881 137.99 112.852 143.638C118.856 145.399 124.617 147.829 129.65 152.445C129.589 151.777 129.65 151.412 129.589 151.109C128.255 147.464 126.982 143.82 125.526 140.298C123.646 135.803 120.675 132.159 116.915 129.122C114.328 127.057 111.68 125.053 108.971 123.11C103.938 119.405 98.9656 115.7 94.4782 111.327C88.6567 105.739 83.8055 99.5445 80.4702 92.1348C76.8924 84.4215 75.8615 76.4044 77.5595 68.023C78.7117 62.1925 80.4702 56.6048 82.3501 51.0779C84.3512 45.0652 86.413 39.1131 88.2929 33.1004C90.7792 24.9012 91.992 16.5197 92.2952 7.95609C92.4165 5.40522 92.5984 2.91508 92.7197 0.424946C93.4473 0.121271 93.6293 0.607151 93.8718 0.850091C99.2082 7.04506 103.453 13.8474 106.546 21.3785C107.94 24.7797 109.396 28.1808 110.669 31.6427C113.034 38.3236 116.915 43.9112 122.07 48.77C124.617 51.1387 127.103 53.6288 129.407 56.3012C135.289 63.1642 139.049 71.0598 139.838 80.2308C140.383 86.365 138.928 92.0741 136.017 97.4188C133.834 101.367 131.348 105.071 128.619 108.655C126.497 111.509 124.495 114.485 122.858 117.704C121.827 119.648 120.978 121.713 120.614 123.838C120.372 125.053 120.372 126.268 120.311 127.543C120.271 128.515 120.614 129.365 121.342 130.094C124.981 133.617 127.224 137.929 128.983 142.545C129.65 144.367 130.378 146.128 130.923 148.011C133.531 156.757 138.321 164.227 144.446 170.908C147.6 174.431 150.813 177.893 153.967 181.476C161.547 190.222 167.186 200.182 171.613 210.872C174.1 216.763 176.222 222.837 178.102 228.971C179.678 234.133 181.498 239.296 183.984 244.155C186.895 249.985 190.473 255.33 195.202 259.946C198.174 262.8 201.57 265.169 205.269 266.991C209.635 269.177 214.183 271.121 218.67 273.125C218.913 273.247 219.277 273.307 219.883 273.55C219.641 273.004 219.641 272.639 219.459 272.457C215.153 268.145 212.667 262.922 210.969 257.213C210.12 254.419 209.21 251.686 208.362 248.892C206.603 243.426 203.995 238.385 200.418 233.83C196.355 228.728 192.17 223.626 188.047 218.464C185.803 215.67 183.62 212.815 181.862 209.657C180.467 207.167 179.133 204.555 178.041 201.883C174.645 193.502 174.403 184.999 177.738 176.496C179.375 172.305 181.194 168.236 182.953 164.106C183.984 161.616 185.075 159.126 186.046 156.575C187.865 151.777 188.835 146.796 188.896 141.695C188.896 139.508 188.835 137.322 188.835 135.135C188.835 132.098 188.835 129.122 188.956 126.146C189.078 119.587 191.2 113.635 194.354 107.926C196.9 103.432 199.447 98.9371 201.63 94.2605C203.086 91.1631 204.602 88.0656 206.482 85.211C206.906 84.4822 207.452 83.8141 207.937 83.146C208.24 83.3282 208.483 83.389 208.483 83.5104C209.211 88.6729 211.454 93.228 214.244 97.5402C215.881 100.03 217.7 102.399 219.398 104.828C221.521 107.926 223.764 110.963 225.705 114.182C230.556 122.199 232.86 130.944 232.497 140.298C232.254 145.46 230.92 150.319 229.101 155.117C228.009 157.911 227.039 160.705 226.432 163.62C225.584 167.628 225.462 171.637 226.493 175.645C227.342 178.966 228.191 182.286 229.04 185.606C231.223 193.805 230.313 201.762 226.554 209.353C225.462 211.601 224.31 213.787 222.976 215.791C219.034 221.622 214.971 227.331 211.03 233.101C210.059 234.498 209.089 235.834 208.24 237.292C207.331 238.81 207.209 240.207 208.058 241.968C209.453 245.187 210.545 248.527 211.697 251.807C212.424 253.872 213.031 255.998 213.637 258.124C215.396 264.076 218.913 268.934 223.4 273.186C226.19 275.737 229.161 277.984 232.557 279.685C234.376 280.535 236.014 281.689 237.712 282.661C238.257 282.357 238.075 281.992 237.894 281.689C237.772 281.385 237.59 281.081 237.408 280.778C235.286 276.709 234.013 272.336 233.831 267.72C233.649 263.711 233.346 259.824 232.436 255.937C231.769 253.143 231.041 250.35 230.253 247.556C229.586 245.005 228.858 242.454 228.191 239.903C226.918 234.862 226.554 229.7 226.857 224.476C226.918 222.897 227.221 221.379 227.706 219.861C228.252 218.039 228.737 216.156 229.283 214.334C229.404 213.848 229.768 213.423 230.071 212.876C230.495 213.362 230.738 213.666 230.981 214.03C232.436 216.277 234.255 218.16 236.196 219.982C240.44 223.869 243.109 228.789 244.564 234.315C245.959 239.782 246.201 245.369 245.231 251.018C244.503 254.965 243.654 258.913 242.381 262.739C241.714 264.926 241.108 267.112 240.501 269.299C239.41 273.186 239.652 276.951 241.229 280.656C242.987 284.908 245.474 288.673 248.809 291.832C254.388 297.237 259.3 303.128 263.423 309.748C263.969 310.538 264.394 311.388 264.818 312.238C265 312.724 264.818 313.21 264.394 313.392C264.151 313.514 263.666 313.453 263.423 313.271C263.059 312.967 262.696 312.481 262.453 312.056C258.046 305.375 252.993 299.221 247.293 293.593C240.926 287.276 233.709 282.357 225.523 278.652C224.31 278.166 223.097 277.68 221.945 277.073C220.55 276.344 219.156 276.04 217.64 276.04C215.578 276.04 213.577 275.98 211.575 275.98C206.057 276.04 201.085 277.68 196.476 280.717C194.475 282.114 192.534 283.572 190.473 284.969C187.622 286.791 184.772 288.673 181.801 290.374C177.253 293.046 172.22 294.139 166.944 294.018C164.64 293.957 162.396 293.775 160.091 293.654C157.302 293.471 154.513 293.289 151.723 293.107C146.508 292.743 141.414 293.532 136.502 295.415C132.379 296.933 128.316 298.512 124.192 299.97C119.523 301.731 114.672 303.068 109.699 303.675C106.121 304.1 102.543 304.161 98.9657 303.553C97.0858 303.25 95.2059 302.885 93.2654 302.582C92.659 302.46 92.1132 302.278 91.4462 301.792ZM236.135 262.861C236.135 262.82 236.155 262.76 236.196 262.679C236.196 262.679 236.175 262.658 236.135 262.618C236.135 262.658 236.135 262.699 236.135 262.739C236.135 262.78 236.135 262.82 236.135 262.861ZM236.499 262.071C237.287 256.605 237.469 251.078 237.045 245.551C236.984 244.701 236.62 244.033 235.953 243.547C234.073 242.09 232.436 240.389 231.041 238.506C230.92 238.263 230.617 238.142 230.253 237.899C230.374 238.567 230.374 239.114 230.495 239.539C230.981 241.604 231.526 243.669 232.133 245.673C233.709 250.896 235.043 256.119 235.71 261.586C235.771 261.95 236.014 262.314 236.135 262.618C236.317 262.436 236.499 262.254 236.499 262.071ZM236.014 263.286C236.095 263.286 236.175 263.266 236.256 263.225C236.216 263.104 236.175 262.982 236.135 262.861C236.095 262.982 236.054 263.124 236.014 263.286ZM193.808 115.7C192.413 117.886 191.928 119.709 191.503 122.988C191.079 126.815 191.018 130.641 191.079 134.528C191.119 137.929 191.099 141.35 191.018 144.792C190.958 145.946 191.079 146.979 191.685 148.011C194.96 153.72 196.84 159.915 197.931 166.353C198.538 169.511 199.265 172.669 199.993 175.828C200.6 178.5 201.63 181.051 203.146 183.298C203.389 183.602 203.753 183.784 204.177 184.148C204.905 181.84 205.451 179.715 206.178 177.65C207.694 173.277 209.21 168.904 210.848 164.531C211.333 163.256 211.454 161.98 211.212 160.705C210.969 159.551 210.787 158.397 210.423 157.364C209.392 154.631 208.422 151.898 207.149 149.347C205.572 146.068 203.632 142.909 201.812 139.69C199.993 136.532 198.053 133.374 196.658 129.973C194.899 125.782 193.808 121.47 193.868 116.915C193.868 116.49 193.808 116.125 193.808 115.7ZM184.772 165.806C184.105 167.325 183.62 168.297 183.135 169.329C181.558 172.852 180.103 176.435 178.951 180.14C177.253 185.849 177.253 191.497 178.89 197.206C179.941 200.851 181.417 204.312 183.317 207.592C185.136 210.811 187.259 213.848 189.563 216.702C194.717 223.14 200.175 229.335 204.905 236.077C204.966 236.077 205.208 236.016 205.511 235.955C203.995 227.27 201.57 218.707 201.206 209.961C201.085 209.718 201.024 209.657 200.963 209.596C200.438 209.151 199.892 208.706 199.326 208.26C193.444 203.644 189.442 197.692 187.622 190.343C186.592 186.153 185.924 181.962 185.864 177.589C185.803 175.16 185.803 172.73 185.743 170.24C185.682 168.965 185.621 167.628 184.772 165.806ZM203.692 186.031C200.054 180.383 199.629 179.35 198.113 172.427C197.446 169.45 196.9 166.414 196.294 163.438C195.384 158.822 193.868 154.449 191.746 150.319C191.503 149.894 191.2 149.469 190.715 148.74C190.473 149.529 190.351 149.894 190.291 150.319C189.603 153.599 188.593 156.757 187.259 159.794C186.773 160.948 186.41 162.102 185.864 163.195C185.5 163.984 185.5 164.713 185.803 165.503C186.531 167.143 186.713 168.843 186.773 170.604C186.814 172.993 186.854 175.362 186.895 177.71C186.955 181.962 187.622 186.092 188.653 190.161C190.351 197.085 194.05 202.673 199.508 207.106C199.872 207.41 200.236 207.896 201.024 207.653C201.267 205.891 201.085 204.069 201.267 202.247C201.388 200.425 201.509 198.603 201.752 196.781C201.994 194.959 202.297 193.137 202.601 191.315C202.964 189.493 203.328 187.732 203.692 186.031ZM106.97 92.1955C107.94 90.7379 108.608 89.7054 109.335 88.7337C111.579 85.7576 114.49 83.5104 117.4 81.2632C119.341 79.8056 121.281 78.2872 123.101 76.6474C124.617 75.3112 126.072 73.9143 126.982 72.0923C128.74 68.5696 129.407 64.8041 129.286 60.917C129.286 59.9453 128.983 59.2164 128.316 58.5484C126.618 56.787 124.981 54.965 123.283 53.2037C122.676 52.5963 122.07 51.989 121.342 51.3816C120.978 51.6853 120.675 51.9282 120.493 52.1712C119.159 54.1147 117.461 55.7545 115.642 57.2729C114.672 58.1637 113.701 59.0545 112.731 59.9453C109.76 62.8605 107.88 66.3224 107.577 70.5739C107.455 72.0315 107.395 73.5499 107.213 75.0075C106.91 78.348 106.485 81.6277 104.848 84.6037C104.605 85.0288 104.484 85.6969 104.605 86.122C105.151 88.0048 105.757 89.8876 106.97 92.1955ZM119.159 183.177C116.551 181.84 114.308 180.504 111.943 179.35C109.093 178.014 106.182 176.739 103.332 175.403C101.816 174.734 100.3 174.674 98.7837 175.22C97.4496 175.645 96.1155 176.071 94.8421 176.739C93.0835 177.589 91.2643 178.561 89.627 179.715C87.3833 181.233 85.2002 182.873 83.0778 184.574C79.8638 187.003 76.6499 189.432 72.7689 190.708C72.5263 190.768 72.3444 190.951 71.9199 191.254C72.5263 191.497 73.0114 191.74 73.4359 191.922C74.8306 192.469 76.286 192.894 77.6201 193.562C79.1361 194.291 80.7128 194.777 82.4107 194.777C84.2906 194.777 86.2311 194.716 88.111 194.473C91.3249 194.048 94.2357 192.894 97.0858 191.497C99.5721 190.283 102.058 188.946 104.605 187.732C108.971 185.667 113.459 184.027 118.371 183.662C118.492 183.662 118.613 183.48 119.159 183.177ZM107.637 99.2408C107.819 99.1193 107.94 98.9979 107.88 98.9371C107.759 98.4512 107.637 97.9654 107.455 97.4795C104.545 90.4342 101.937 83.2675 99.9965 75.8578C99.6933 74.7039 99.0263 74.0965 97.9954 73.6714C95.8123 72.7603 93.9325 71.3634 92.1739 69.7236C90.8398 68.3874 89.3844 67.112 87.9897 65.7758C86.4737 64.3789 84.8364 63.2857 82.9565 62.4961C82.532 62.3139 82.0469 62.2532 81.5618 62.1317C80.5309 64.6826 79.1968 70.5739 79.2574 73.0033C79.2574 73.5499 79.3787 74.218 79.5606 74.7646C81.5618 80.413 85.1396 84.8466 90.2334 87.9441C92.2952 89.1588 94.357 90.3128 96.4187 91.4667C99.8146 93.3495 103.15 95.4752 106.061 98.1476C106.546 98.6335 107.152 98.9371 107.637 99.2408ZM96.2368 7.47021C96.0751 7.5107 95.9134 7.57143 95.7517 7.65241C95.873 8.13829 95.9943 8.62417 96.1155 9.11005C98.905 17.8559 100.057 26.7232 98.9657 35.8942C98.5412 39.1739 98.3592 42.5143 98.1167 45.8547C97.2071 57.2122 98.905 68.266 102.301 79.0768C102.422 79.4412 102.604 79.8056 103.029 80.7166C103.211 79.6234 103.332 79.1375 103.332 78.7124C103.211 76.7081 103.089 74.6431 102.907 72.6389C102.725 70.0273 102.422 67.4157 102.301 64.8041C102.24 61.5244 102.968 58.3661 104.302 55.3294C105.151 53.3454 106.061 51.3614 107.031 49.3774C108.547 46.1584 109.76 42.9395 110.124 39.3561C110.245 38.0807 110.305 36.8052 109.76 35.5298C107.94 31.1569 106.243 26.7232 104.423 22.3503C102.907 18.5847 101.088 15.0013 98.9657 11.5395C98.1167 10.1425 97.1464 8.80638 96.2368 7.47021ZM14.9176 161.251C15.9485 161.798 16.9187 161.859 17.8283 162.041C23.5892 163.073 29.2288 164.652 34.6258 167.021C37.9004 168.479 41.175 170.119 44.389 171.576C52.2723 175.22 60.4588 175.524 68.8272 173.884C69.0698 173.823 69.3123 173.702 69.5549 173.52C69.6155 172.487 69.0091 171.698 68.4634 170.908C65.7345 166.839 61.7929 164.531 57.1842 163.316C55.0011 162.77 52.6968 162.587 50.4531 162.284C47.6636 161.919 44.8741 161.737 42.1453 161.312C39.5377 160.948 37.2334 159.915 35.1716 158.397C34.5652 157.911 33.8982 157.486 33.4737 157.243C30.2597 158.215 27.4096 159.247 24.4382 159.915C21.3455 160.583 18.2528 160.826 14.9176 161.251ZM108.85 97.2973C109.457 98.9371 110.063 100.516 110.669 102.095C111.336 103.674 111.64 105.436 112.61 106.954C113.095 106.954 113.519 107.076 113.944 107.015C114.732 106.954 115.521 106.893 116.248 106.711C122.07 105.254 127.285 102.824 131.651 98.6335C133.349 97.0139 134.643 95.1513 135.532 93.0458C137.412 88.7944 138.018 84.3 137.473 79.6841C137.412 79.259 137.412 78.8338 136.805 78.7124C136.442 79.259 136.017 79.8663 135.653 80.413C134.016 83.0853 131.772 85.1503 129.104 86.7294C127.709 87.4582 126.254 88.187 124.799 88.7337C122.373 89.7054 119.887 90.5557 117.461 91.4667C115.945 92.0133 114.49 92.56 113.095 93.2888C111.397 94.1391 109.76 95.2323 108.85 97.2973ZM214.971 149.59C215.093 148.74 215.214 148.133 215.275 147.586C215.881 142.241 215.578 137.018 214.244 131.916C213.455 128.637 212.364 125.478 211.394 122.32C210.12 118.19 208.725 114.121 207.513 109.991C205.997 104.768 205.026 99.423 205.148 93.9569C205.208 93.6532 205.026 93.3495 204.905 92.8029C203.632 95.4752 202.419 97.9046 201.327 100.395C200.903 101.306 200.478 102.338 200.236 103.31C199.205 108.108 199.387 112.906 200.175 117.704C201.327 124.567 204.117 130.762 207.937 136.532C210.545 140.48 213.031 144.549 214.426 149.104C214.486 149.165 214.547 149.226 214.971 149.59ZM227.524 190.465C227.1 191.072 226.857 191.315 226.736 191.558C225.523 194.291 223.764 196.721 222.066 199.15C217.458 205.709 211.636 210.933 204.723 214.88C204.177 215.184 203.692 215.488 203.207 215.731C203.389 219.01 204.844 226.845 206.482 233.708C206.542 233.89 206.724 234.073 206.846 234.376C207.149 234.133 207.331 234.073 207.513 233.89C212.485 227.513 216.973 220.832 221.339 214.091C222.976 211.601 224.31 208.928 225.462 206.195C227.403 201.822 228.13 197.146 227.827 192.348C227.767 191.862 227.645 191.376 227.524 190.465ZM78.2265 171.819C80.8341 171.515 83.4416 171.212 86.0492 171.03C88.6567 170.847 91.3249 170.969 93.8718 171.455C96.4187 172.001 98.905 172.609 101.573 173.155C101.452 172.791 101.452 172.487 101.331 172.305C99.754 169.693 98.1773 167.021 96.6007 164.47C95.691 163.013 94.8421 161.555 93.8112 160.28C92.2345 158.397 90.294 156.818 87.8684 156.271C83.8055 155.299 80.0457 153.72 76.3467 151.898C74.2242 150.926 72.0412 149.894 69.7368 149.408C69.373 149.347 69.0091 149.469 68.5846 149.529C68.8272 149.833 68.8878 150.015 69.0091 150.137C69.1304 150.258 69.3123 150.319 69.4336 150.44C71.8592 152.627 73.4157 155.319 74.103 158.518C74.4062 160.037 74.6487 161.616 74.9519 163.134C75.2551 164.774 75.5583 166.414 75.9828 167.993C76.4073 169.45 76.9531 170.847 78.2265 171.819ZM209.574 172.366C209.21 173.095 208.907 173.641 208.725 174.188C208.119 175.888 207.573 177.528 207.088 179.229C205.451 184.513 204.056 189.797 203.268 195.324C203.207 195.87 202.843 196.538 203.571 196.963C211.09 195.081 220.793 187.307 224.977 179.654C224.553 177.407 223.946 175.099 223.643 172.791C223.4 170.362 223.522 167.932 223.461 165.321C223.037 165.624 222.673 165.806 222.37 166.11C221.521 166.9 220.793 167.75 219.944 168.479C217.094 171.151 213.94 173.095 209.574 172.366ZM183.074 278.166C178.466 277.194 174.342 276.526 170.279 275.555C167.55 274.947 165.064 275.19 162.517 276.04C157.727 277.62 153.239 279.745 149.297 282.903C146.083 285.515 143.112 288.309 140.019 290.981C139.837 291.163 139.837 291.406 139.656 291.832C140.323 291.771 140.868 291.71 141.354 291.589C144.143 290.921 147.054 290.678 149.964 290.738C151.662 290.799 153.421 290.921 155.18 290.981C156.392 290.981 157.666 290.921 158.818 290.738C162.153 290.313 165.307 289.159 168.157 287.337C169.915 286.244 171.674 285.09 173.372 283.875C176.101 281.932 178.89 280.11 181.983 278.834C182.225 278.774 182.407 278.591 183.074 278.166ZM226.675 121.531C225.583 121.956 225.098 122.745 224.735 123.535C224.249 124.567 223.825 125.6 223.461 126.693C222.794 128.454 222.248 130.337 221.521 132.098C220.793 133.92 219.762 135.5 218.185 136.714C217.7 137.079 217.276 137.504 216.791 137.929C216.791 138.415 216.73 138.84 216.791 139.265C217.215 145.278 216.487 151.169 214.729 156.878C213.637 160.401 212.364 163.863 211.212 167.325C211.03 167.993 210.848 168.6 210.605 169.572C211.272 169.208 211.697 169.025 212 168.782C214.426 166.839 216.487 164.592 217.882 161.798C219.277 159.004 220.55 156.089 221.824 153.234C223.764 148.74 225.765 144.245 229.525 140.844C230.253 140.298 230.192 139.508 230.192 138.719C230.313 133.009 229.161 127.543 227.16 122.259C227.039 122.077 226.857 121.834 226.675 121.531ZM83.0171 195.992C82.9767 196.154 82.9363 196.316 82.8959 196.478C84.048 197.267 85.2608 198.057 86.3524 198.846C87.5046 199.757 88.778 200.243 90.1728 200.486C94.0538 201.336 97.8741 201.033 101.573 199.697C103.938 198.786 106.243 197.692 108.547 196.66C110.73 195.688 112.792 194.595 115.035 193.684C120.311 191.558 125.769 190.526 131.469 191.862C131.651 191.922 131.894 191.74 132.379 191.558C129.529 189.432 126.8 187.61 123.95 185.91C122.555 185.059 121.1 184.695 119.462 184.695C116.976 184.695 114.611 185.181 112.246 185.91C108.789 186.942 105.515 188.461 102.301 190.04C99.8146 191.315 97.2677 192.53 94.7208 193.684C91.4462 195.081 88.0503 195.809 84.4725 195.87C83.9874 195.87 83.5023 195.931 83.0171 195.992ZM203.207 214.334C203.753 214.151 204.056 214.03 204.359 213.848C205.208 213.362 206.037 212.876 206.846 212.39C215.638 206.681 222.066 198.846 226.736 189.493C227.16 188.703 227.281 187.853 227.039 187.003C226.614 185.485 226.251 183.905 225.826 182.387C225.765 182.144 225.523 181.901 225.159 181.415C222.43 185.606 219.277 189.068 215.396 191.862C211.575 194.595 207.573 197.085 203.086 198.36C202.237 202.49 202.297 211.054 203.207 214.334ZM95.0846 10.3855C94.9229 10.426 94.7612 10.4665 94.5995 10.507C94.4782 11.3572 94.357 12.2075 94.2963 13.0578C93.8112 19.3743 92.7803 25.5692 91.0824 31.6427C89.9908 35.5298 88.778 39.3561 87.5045 43.1824C87.2014 44.2149 87.2014 45.0044 87.8078 45.8547C88.8387 47.4338 89.3238 49.1952 89.7483 51.0172C90.0515 52.4141 90.294 53.7503 90.6579 55.0865C91.6281 58.5483 93.3261 61.5851 96.1155 63.893C96.4187 64.136 96.6613 64.5611 97.3284 64.2574C97.2677 63.7108 97.2677 63.1035 97.2071 62.4961C96.6613 58.3054 96.4187 54.1147 96.6613 49.924C96.9039 45.0044 97.1464 40.1456 97.6922 35.2868C98.5412 27.5735 97.6922 20.0424 95.8123 12.6327C95.5698 11.8431 95.3272 11.1143 95.0846 10.3855ZM44.6316 151.777C45.6018 152.809 46.3295 153.599 47.0572 154.267C49.3009 156.271 51.9085 157.364 54.6979 158.215C57.4268 159.004 60.0949 159.794 62.7025 160.826C67.5537 162.709 71.1316 166.049 73.0114 171.03C73.254 171.576 73.4965 172.123 73.7391 172.669C74.8307 172.791 75.7402 172.548 76.5892 172.123C74.6487 167.507 74.6487 167.507 73.6785 161.98C73.4359 160.522 73.1327 159.065 72.7689 157.607C72.1625 155.299 70.889 153.295 69.1304 151.594C67.4325 149.955 65.4313 148.618 62.945 148.497C57.3055 148.315 51.7265 148.922 46.3901 150.866C45.9656 151.048 45.5412 151.351 44.6316 151.777ZM97.9954 174.006C97.8135 173.823 97.7528 173.641 97.5709 173.641C93.8718 172.609 90.0515 172.123 86.1705 172.366C83.7448 172.487 81.5011 173.155 79.4393 174.37C77.6201 175.463 75.9222 176.678 74.2242 177.953C72.4656 179.229 70.7677 180.626 69.0698 181.962C65.6132 184.695 61.6716 186.335 57.3661 187.003C55.9714 187.246 54.5766 187.367 53.1819 187.55C52.8181 187.55 52.4542 187.732 51.6659 187.914C54.516 189.007 57.0023 189.493 59.4885 189.797C62.0355 190.1 64.5217 190.222 67.0686 190.526C68.3421 190.708 69.4943 190.586 70.7071 190.222C73.537 189.493 76.1445 188.278 78.5297 186.578C80.4096 185.302 82.1682 183.845 83.9874 182.448C88.111 179.229 92.4165 176.253 97.4496 174.491C97.6316 174.37 97.8135 174.188 97.9954 174.006ZM83.0778 91.7704C83.2597 93.1066 83.9267 94.0176 84.4725 94.9894C88.3535 101.974 93.6899 107.744 99.6327 112.967C104.605 117.279 110.124 120.923 115.339 124.871C115.581 125.053 115.884 125.114 116.309 125.235C116.309 124.75 116.309 124.507 116.248 124.264C114.793 120.255 113.58 116.125 112.489 111.934C112.307 111.145 111.821 110.355 111.336 109.626C109.335 106.529 106.485 104.403 103.15 102.885C100.906 101.852 98.6018 101.002 96.2975 100.152C91.5675 98.3905 87.262 96.0219 83.8055 92.1955C83.6842 92.0133 83.4416 91.9526 83.0778 91.7704ZM92.2952 202.126C92.9622 202.551 93.2654 202.855 93.6293 203.037C96.0549 203.948 98.6018 204.555 101.27 204.798C105.232 205.163 109.153 204.96 113.034 204.191C116.551 203.523 120.069 202.673 123.525 201.822C128.74 200.547 133.895 199.089 139.231 198.786C139.534 198.725 139.838 198.543 140.444 198.36C139.292 197.328 138.321 196.417 137.412 195.567C136.987 195.202 136.563 194.898 136.138 194.595C135.936 194.473 135.714 194.352 135.471 194.23C131.712 192.773 127.952 191.922 123.889 192.469C120.675 192.894 117.522 193.684 114.55 195.02C112.792 195.809 111.094 196.66 109.335 197.449C107.334 198.421 105.394 199.332 103.332 200.182C100.3 201.397 97.1464 202.126 93.8718 202.004C93.4473 202.004 93.0229 202.065 92.2952 202.126ZM130.499 61.828C130.378 62.5569 130.317 62.9213 130.256 63.3464C130.074 64.8041 129.953 66.3224 129.65 67.7801C128.922 70.999 127.527 73.8536 125.102 76.2222C122.979 78.2872 120.614 80.1093 118.31 81.9313C116.188 83.6319 114.065 85.3325 112.064 87.1545C110.366 88.7944 108.971 90.7379 107.88 92.8636C107.395 93.8354 107.516 94.6857 108.547 95.4752C111.094 92.56 114.55 91.2845 118.067 90.1306C118.795 89.8876 119.523 89.6447 120.311 89.341C122.312 88.5515 124.374 87.8226 126.375 86.9723C130.559 85.0288 133.834 82.1135 136.017 77.9836C136.684 76.6474 136.866 75.4327 136.442 73.975C135.289 69.9665 133.592 66.2617 131.348 62.7391C131.227 62.4961 130.923 62.2532 130.499 61.828ZM151.056 263.468C151.723 263.711 151.905 263.772 152.026 263.833C156.21 264.015 159.91 265.412 163.305 267.78C165.731 269.481 168.217 271.182 170.643 272.882C172.583 274.218 174.706 275.251 177.132 275.615C178.829 275.858 180.527 276.283 182.286 276.587C186.228 277.255 190.23 277.68 194.293 277.559C194.596 277.559 194.899 277.377 195.506 277.194C194.778 276.648 194.354 276.223 193.808 275.919C190.776 274.036 187.744 272.153 184.712 270.21C180.649 267.72 176.343 265.715 171.856 264.197C168.46 263.104 165.003 262.193 161.365 261.828C157.969 261.464 154.634 261.889 151.056 263.468ZM111.397 39.6598C110.791 42.8787 109.82 45.8547 108.426 48.7093C107.779 50.1669 107.112 51.6043 106.424 53.0215C104.181 57.5766 102.968 62.3747 103.392 67.4764C103.595 69.4199 103.817 71.3432 104.059 73.2462C104.545 76.2222 104.605 79.1983 103.878 82.1135C103.756 82.5387 103.756 82.9638 103.756 83.389C104.302 83.0853 104.666 82.7209 104.787 82.235C105.272 80.2915 105.757 78.348 106 76.3437C106.303 74.2787 106.364 72.153 106.546 70.088C106.91 66.6261 108.122 63.5894 110.427 61.0385C111.943 59.3379 113.641 57.8195 115.278 56.2404C116.551 54.965 117.886 53.6895 119.159 52.3534C119.765 51.8068 120.19 51.1387 120.129 50.1062C116.976 47.0087 114.005 43.6075 111.397 39.6598ZM136.32 278.166C133.531 277.012 130.863 276.587 128.134 276.648C125.829 276.648 123.646 277.134 121.767 278.652C120.614 279.563 119.341 280.413 118.31 281.446C116.006 283.815 113.762 286.305 111.579 288.734C107.819 292.864 104.059 296.873 99.3295 299.849C99.1476 299.97 99.0263 300.152 98.6624 300.517C99.2689 300.517 99.5721 300.517 99.8753 300.456C104.605 299.423 109.093 297.784 113.156 295.05C115.702 293.35 118.189 291.589 120.554 289.645C125.466 285.819 130.256 281.871 135.653 278.774C135.775 278.713 135.896 278.531 136.32 278.166ZM198.598 105.497C196.355 108.655 195.021 111.509 194.899 114.91C194.839 118.615 195.142 122.259 196.233 125.782C197.386 129.426 199.023 132.827 200.903 136.107C202.419 138.658 203.935 141.209 205.451 143.76C207.998 148.254 210.302 152.931 211.697 157.972C211.818 158.336 212 158.7 212.182 159.126C212.424 158.943 212.667 158.822 212.728 158.7C213.031 157.729 213.334 156.696 213.698 155.724C214.426 153.842 214.244 151.959 213.637 150.076C212.424 146.189 210.666 142.606 208.422 139.204C206.906 136.897 205.511 134.589 204.177 132.22C199.932 124.446 198.053 116.064 198.598 107.136C198.659 106.833 198.659 106.468 198.598 105.497ZM67.5538 124.992C67.5538 125.114 67.5335 125.235 67.4931 125.357C70.04 127.604 72.5869 129.851 75.1945 132.038C76.8318 133.495 78.5297 134.832 80.2883 136.228C84.048 139.265 88.4142 140.844 93.2654 141.209C97.9954 141.634 102.665 142.12 107.395 142.545C107.698 142.606 108.001 142.484 108.547 142.363C106.728 140.237 104.727 138.658 102.543 137.443C99.6327 135.803 96.6613 134.346 93.508 133.374C88.6567 131.856 83.7448 130.398 78.9542 128.879C75.9222 127.968 72.9508 126.875 69.9794 125.903C69.191 125.6 68.4027 125.296 67.5538 124.992ZM104.484 159.429C104.908 160.158 105.03 160.462 105.212 160.765C106 162.284 106.97 163.741 107.698 165.381C108.426 167.021 108.911 168.843 109.578 170.544C110.366 172.548 111.215 174.613 112.064 176.617C112.61 177.832 113.519 178.743 114.793 179.35C117.097 180.565 119.402 181.84 121.767 183.055C122.191 183.298 122.616 183.723 123.222 183.298C123.707 182.205 123.828 180.99 123.707 179.775C123.586 177.589 123.343 175.403 123.04 173.216C122.737 171.09 121.888 169.208 119.947 167.993C119.583 167.75 119.28 167.386 118.977 167.143C114.854 163.559 110.245 161.008 104.484 159.429ZM70.3432 175.524C65.3101 175.828 60.5194 176.435 55.7288 176.01C50.7563 175.524 46.2082 173.823 41.8421 172.001C40.7505 172.366 39.841 172.73 38.9313 172.973C37.9611 173.155 36.9908 173.277 36.0812 173.398C35.1716 173.58 34.1407 173.338 33.1098 173.884C35.5355 176.131 37.9611 178.136 40.1441 180.383C41.357 181.597 42.691 182.205 44.3283 182.326C45.7231 182.387 47.1178 182.509 48.5126 182.448C52.8787 182.266 57.1842 181.537 61.429 180.201C64.2791 179.29 66.9473 178.014 69.4336 176.314C69.7368 176.131 70.04 175.767 70.3432 175.524ZM102.119 301.428C106.303 301.731 110.427 301.488 114.429 300.517C114.833 300.395 115.238 300.253 115.642 300.092C120.857 298.148 125.648 295.476 129.771 291.71C131.227 290.333 132.662 288.916 134.077 287.459C137.533 283.875 140.747 280.11 144.749 277.073C144.871 276.951 144.931 276.769 145.174 276.223C144.446 276.466 143.961 276.648 143.476 276.83C140.747 277.741 138.079 278.956 135.593 280.353C132.257 282.296 129.165 284.543 126.133 286.973C123.464 289.038 120.857 291.224 118.128 293.289C113.459 296.751 108.486 299.666 102.786 301.124C102.543 301.185 102.362 301.306 102.119 301.428ZM216.002 132.341C216.305 131.734 216.609 131.37 216.669 130.944C216.912 129.487 217.215 128.029 217.215 126.572C217.154 124.567 216.973 122.563 216.73 120.559C216.366 118.008 215.82 115.518 215.396 113.028C214.911 110.173 214.789 107.319 215.396 104.403C215.517 104.1 215.456 103.735 215.517 103.553C213.94 101.184 212.303 98.9371 210.969 96.6292C209.635 94.3213 208.543 91.8919 207.209 89.0981C206.603 91.1023 206.542 92.7422 206.482 94.382C206.421 98.4513 206.906 102.46 207.937 106.347C209.15 110.72 210.545 115.093 211.818 119.405C213.031 123.353 214.304 127.3 215.517 131.187C215.578 131.491 215.76 131.795 216.002 132.341ZM79.5606 77.6191C79.2574 80.5344 79.4393 83.389 80.7128 85.9398C83.0171 90.3735 86.3524 93.8961 90.7185 96.447C93.1441 97.8439 95.7517 98.8764 98.4199 99.8482C102.543 101.245 106.485 103.128 109.82 106.043C110.002 106.165 110.245 106.165 110.73 106.286C110.427 105.557 110.245 105.071 110.002 104.646C108.001 101.063 105.151 98.2083 101.755 96.0219C98.238 93.7139 94.5995 91.5882 90.9611 89.5232C86.2917 86.8509 82.4107 83.389 80.1064 78.4694C79.9245 78.1658 79.7426 77.8621 79.5606 77.6191ZM124.799 297.298C125.829 296.933 126.436 296.69 127.103 296.508C129.165 295.719 131.166 294.868 133.228 294.139C134.865 293.593 136.26 292.743 137.533 291.71C139.17 290.252 140.868 288.795 142.445 287.337C147.963 282.114 154.088 277.802 161.365 275.251C161.547 275.19 161.668 275.008 162.032 274.644C161.486 274.583 161.183 274.461 160.819 274.461C158.394 274.542 155.948 274.623 153.482 274.704C151.784 274.765 150.207 275.251 148.752 276.04C147.296 276.83 145.841 277.68 144.507 278.652C141.839 280.656 139.595 283.146 137.291 285.576C133.591 289.402 129.953 293.35 125.526 296.326C125.344 296.508 125.223 296.751 124.799 297.298ZM162.517 291.467C169.491 292.257 175.737 291.406 181.619 287.945C185.924 285.454 189.987 282.539 193.929 279.563C194.05 279.502 194.05 279.259 194.111 279.016C192.413 278.895 190.715 278.956 189.138 278.713C186.955 278.409 184.894 278.774 182.953 279.624C181.498 280.292 180.042 280.899 178.708 281.689C176.707 282.903 174.706 284.24 172.765 285.576C169.733 287.641 166.701 289.706 163.124 290.86C163.002 290.92 162.881 291.103 162.517 291.467ZM169.733 273.915C169.43 273.49 169.309 273.247 169.127 273.125C166.459 271.242 163.851 269.36 161.122 267.659C157.423 265.351 153.36 264.501 149.055 264.865C147.903 264.987 146.811 265.23 145.841 265.837C143.719 267.173 141.657 268.388 139.534 269.724C139.352 269.785 139.292 270.088 139.11 270.331C139.474 270.392 139.777 270.453 140.019 270.453C144.204 270.271 148.145 271.182 151.966 273.004C152.633 273.307 153.239 273.368 153.967 273.307C158.757 272.882 163.548 273.125 168.339 273.915C168.702 273.975 169.127 273.915 169.733 273.915ZM98.905 72.7603C98.905 72.3352 98.9657 71.9708 98.905 71.6671C98.6625 70.4524 98.3592 69.2984 98.1167 68.0837C97.9348 66.9905 97.4496 66.201 96.54 65.5329C92.841 62.982 90.6579 59.3379 89.5663 55.0257C89.2025 53.811 89.0206 52.4749 88.7174 51.1994C88.3939 49.9442 88.0099 48.689 87.5652 47.4338C87.4439 47.0694 87.0801 46.8265 86.7162 46.2799C85.3215 48.7093 84.7757 51.1994 83.9874 53.5681C83.1991 55.9367 82.1682 58.2447 81.9256 60.7955C82.3501 61.0992 82.7139 61.3422 83.1384 61.5244C85.5641 62.5569 87.6865 64.0145 89.5663 65.8973C91.0824 67.3549 92.659 68.7518 94.2357 70.1487C95.5698 71.3027 97.0252 72.2137 98.905 72.7603ZM106.546 138.233C106 137.382 105.757 137.018 105.515 136.654C103.574 134.163 101.209 132.098 98.8444 129.973C96.1762 127.604 93.0835 126.025 89.5663 125.357C87.2014 124.871 84.7151 124.567 82.2895 124.324C79.1361 124.021 76.0435 123.656 72.9508 122.927C71.0709 122.563 69.191 122.381 67.2505 122.138C66.8867 122.077 66.4622 122.199 65.6739 122.32C66.5835 122.867 67.0686 123.231 67.6144 123.474C71.4954 125.114 75.4371 126.572 79.4393 127.726C84.0076 129.021 88.5354 130.398 93.0229 131.856C95.0846 132.463 97.1464 133.313 99.0869 134.224C101.452 135.378 103.696 136.714 106.546 138.233ZM226.251 120.134C223.886 114.91 220.611 110.538 217.518 106.104C217.276 105.8 216.912 105.557 216.427 105.132C216.245 105.8 216.124 106.225 216.063 106.65C215.82 108.837 216.124 111.023 216.487 113.149C217.033 116.247 217.579 119.344 218.003 122.502C218.549 126.45 218.367 130.337 216.73 134.103C216.548 134.467 216.427 134.892 216.427 135.317C216.427 135.682 216.609 135.986 216.73 136.35C218.731 134.953 219.641 133.981 220.49 131.977C220.934 130.843 221.339 129.689 221.702 128.515C222.673 125.478 223.704 122.502 226.251 120.134ZM72.5263 172.852C71.8592 170.726 70.9496 168.843 69.6762 167.143C67.7963 164.652 65.31 162.891 62.3993 161.798C59.5492 160.765 56.5778 159.854 53.667 158.943C50.8776 158.093 48.3306 156.757 46.1476 154.813C45.2986 154.024 44.5103 153.052 43.6613 152.202C40.8718 152.991 36.445 155.238 34.8077 156.635C35.1716 157.364 35.8387 157.729 36.5057 158.154C38.6281 159.49 40.9325 160.219 43.4187 160.522C46.0869 160.826 48.7551 161.069 51.484 161.312C53.9096 161.494 56.3352 161.859 58.6396 162.648C63.8547 164.409 67.9782 167.385 70.4645 172.366C70.5858 172.548 70.6464 172.669 70.7071 172.852C71.1922 173.459 71.738 173.398 72.5263 172.852ZM110.912 177.225C109.578 173.459 108.426 170.179 107.213 166.9C106.728 165.624 106.182 164.288 105.454 163.134C104.787 161.919 103.878 160.826 102.968 159.733C102.362 159.004 101.513 158.518 100.542 158.397C98.238 157.972 95.873 157.546 93.5686 157.182C93.2048 157.121 92.8409 157.121 92.7197 157.546C93.6899 158.7 94.7814 159.733 95.6304 160.887C96.54 162.162 97.2677 163.559 98.0561 164.956C98.6625 165.989 99.2082 167.143 99.8753 168.114C101.007 169.896 102.22 171.617 103.514 173.277C103.999 173.884 104.605 174.431 105.272 174.734C106.97 175.585 108.789 176.314 110.912 177.225ZM112.852 108.23C114.49 113.514 115.399 118.919 117.825 124.021C118.067 123.656 118.31 123.474 118.31 123.231C119.28 118.98 121.342 115.214 123.768 111.691C125.769 108.715 127.831 105.8 129.892 102.824C130.196 102.399 130.438 101.852 130.681 101.427C125.284 105.071 119.462 107.501 112.852 108.23ZM210.666 171.212C212.667 171.698 214.183 171.212 215.517 170.422C216.851 169.633 218.125 168.661 219.337 167.628C220.672 166.535 221.824 165.199 223.158 164.045C223.825 163.438 224.189 162.77 224.492 161.919C225.26 159.409 226.069 156.919 226.918 154.449C228.13 150.987 229.283 147.464 229.828 143.82C229.889 143.395 229.768 142.909 229.768 142.302C227.645 144.185 226.675 145.399 225.644 147.586C223.946 151.23 222.309 154.935 220.672 158.579C219.156 161.859 217.518 165.078 214.85 167.568C213.637 168.782 212.303 169.876 210.666 171.212ZM124.071 184.391C129.286 187.732 134.198 191.072 138.746 194.959C138.807 195.02 138.867 195.02 138.989 195.02C139.049 195.02 139.11 194.959 139.17 194.898C137.654 189.615 128.013 175.22 124.071 172.609C124.738 176.556 125.162 180.383 124.071 184.391ZM44.4496 183.42C44.6315 183.966 44.6315 184.148 44.7528 184.209C46.4508 185.727 48.3913 186.578 50.6956 186.578C57.4267 186.578 63.6727 184.999 69.0698 180.747C71.9805 178.439 75.0126 176.192 77.984 173.884C77.984 173.823 77.984 173.702 77.984 173.459C75.9828 173.763 74.1029 174.006 72.4656 175.403C69.4336 177.953 65.9771 179.836 62.2174 181.051C56.9416 182.751 51.5446 183.723 45.9656 183.48C45.5412 183.42 45.1167 183.42 44.4496 183.42ZM238.682 249.256C241.229 246.584 242.502 243.486 243.109 240.085C243.169 239.66 243.169 239.174 243.109 238.749C242.684 235.53 241.835 232.372 240.319 229.457C240.137 229.214 240.016 228.789 239.41 228.971C239.106 229.943 238.864 231.036 238.5 232.129C238.136 233.283 237.651 234.437 237.227 235.53C236.923 236.259 237.045 236.927 237.227 237.595C238.015 240.936 238.379 244.337 238.5 247.738C238.561 248.285 238.621 248.77 238.682 249.256ZM229.707 219.678C229.161 223.262 229.161 226.298 229.04 229.335C228.919 232.979 230.192 235.955 232.497 238.628C233.406 239.721 234.376 240.693 235.347 241.725C235.65 241.968 235.892 242.393 236.62 242.09C236.559 241.543 236.559 240.936 236.438 240.389C235.771 237.777 235.286 235.105 234.376 232.554C233.042 228.424 231.405 224.355 229.707 219.678ZM150.146 273.429C147.236 272.093 144.628 271.668 141.899 271.485C137.654 271.182 133.773 272.518 130.074 274.401C129.589 274.644 128.922 274.644 128.74 275.494C131.651 275.676 134.38 276.223 137.048 277.194C137.836 277.498 138.564 277.377 139.292 277.012C142.445 275.636 145.699 274.623 149.055 273.975C149.297 273.915 149.479 273.733 150.146 273.429ZM17.2219 163.924C18.2326 164.409 19.2635 164.875 20.3146 165.321C23.7105 166.96 26.8638 169.086 29.8959 171.333C30.6235 171.88 31.4119 172.427 32.4428 172.487C34.6258 172.548 36.8089 172.487 38.9313 171.88C39.2952 171.758 39.5377 171.455 39.9016 171.212C34.0801 167.628 22.3764 163.559 17.2219 163.924ZM151.177 246.584C147.236 245.248 131.772 245.066 128.801 246.22C129.043 246.402 129.286 246.584 129.468 246.705C132.257 247.556 134.986 248.406 137.776 249.196C138.443 249.378 139.17 249.439 139.837 249.439C143.476 249.317 146.993 248.588 150.328 247.191C150.571 247.07 150.813 246.827 151.177 246.584ZM243.23 244.276C242.927 244.823 242.805 245.126 242.624 245.369C241.593 247.191 240.622 249.074 239.531 250.835C238.924 251.746 238.621 252.657 238.561 253.751C238.318 256.909 238.015 260.067 237.772 263.165C237.611 265.108 237.469 267.031 237.348 268.934C237.348 269.36 237.166 269.845 237.772 270.088C238.864 266.485 239.955 262.881 241.047 259.278C241.289 258.367 241.593 257.395 241.775 256.484C242.32 253.447 242.866 250.471 243.351 247.434C243.533 246.523 243.654 245.551 243.23 244.276ZM236.559 233.89C236.802 233.465 237.166 233.162 237.227 232.797C237.631 231.38 237.995 229.943 238.318 228.485C238.682 227.027 238.379 225.691 237.348 224.598C235.407 222.533 233.588 220.407 231.708 218.342C231.648 218.281 231.405 218.403 231.284 218.403C231.526 221.5 234.073 228.91 236.559 233.89ZM144.264 250.167C144.689 250.957 145.356 250.835 145.902 250.896C150.632 251.382 155.362 251.078 159.97 249.924C160.819 249.681 161.729 249.621 162.76 248.77C159.788 247.859 157.059 247.252 154.331 246.827C153.785 246.766 153.118 247.07 152.633 247.313C150.268 248.467 147.781 249.317 145.174 249.803C144.871 249.864 144.628 250.046 144.264 250.167ZM147.296 244.215C146.932 243.426 146.751 242.879 146.508 242.332C145.295 239.903 143.415 238.688 140.626 238.992C138.746 239.174 136.805 239.235 134.986 239.903C135.411 240.753 136.078 240.632 136.684 240.753C138.443 241.3 140.201 241.847 141.717 242.94C143.294 244.155 144.992 244.458 147.296 244.215ZM148.812 244.519C150.813 244.883 152.633 245.187 154.452 245.43C156.271 245.734 158.09 246.402 160.455 246.28C155.786 243.486 151.481 241.118 146.265 239.842C147.175 241.604 147.963 243.001 148.812 244.519ZM140.565 244.094C138.2 242.029 135.471 241.361 132.561 241.118C132.197 241.057 131.712 241.179 131.348 241.361C130.074 242.09 128.801 242.818 127.527 243.608C127.346 243.729 127.164 243.912 126.982 244.033C127.164 244.215 127.224 244.397 127.346 244.397C131.752 244.317 136.159 244.215 140.565 244.094Z" fill="url(#paint0_linear_2_91)" fill-opacity="0.7"/>
</g>
<defs>
<linearGradient id="paint0_linear_2_91" x1="-115068" y1="80881.2" x2="212.004" y2="80881.2" gradientUnits="userSpaceOnUse">
<stop stop-color="#A87D56"/>
<stop offset="0.3" stop-color="#E8C597"/>
<stop offset="0.7" stop-color="#8D6531"/>
<stop offset="1" stop-color="#A87D56"/>
</linearGradient>
<clipPath id="clip0_2_91">
<rect width="325" height="224" fill="white" transform="translate(224) rotate(90)"/>
</clipPath>
</defs>
</svg>
