<svg width="114" height="120" viewBox="0 0 114 120" fill="none" xmlns="http://www.w3.org/2000/svg">
<g clip-path="url(#clip0_2_459)">
<path fill-rule="evenodd" clip-rule="evenodd" d="M112.986 0.061432C112.617 0.614365 112.464 0.860092 112.279 1.10585C110.128 3.96265 108.623 7.09593 107.609 10.5057C106.656 13.7618 106.656 16.9565 107.885 20.1205C108.346 21.3492 108.868 22.578 109.422 23.776C110.19 25.5269 111.019 27.2164 111.726 28.9674C112.248 30.1654 112.648 31.4556 113.047 32.715C114.369 36.862 113.754 40.7632 111.542 44.4494C110.313 46.5076 109.084 48.5964 107.947 50.6852C106.41 53.5421 105.826 56.6139 106.226 59.87C106.349 60.7609 106.441 61.6824 106.595 62.5732C107.127 66.2799 106.369 69.6897 104.321 72.8024C103.133 74.5841 101.924 76.3555 100.695 78.1167C99.1277 80.3899 97.6528 82.6937 96.4237 85.1819C94.6722 88.7453 93.904 92.4929 94.2727 96.4556C94.3956 97.6536 94.5493 98.8823 94.7336 100.08C95.6555 105.579 95.4097 111.077 94.2727 116.515C93.3816 120.815 91.2 124.471 88.1579 127.604C86.007 129.846 83.4873 131.597 80.6603 132.857C78.4787 133.84 76.2355 134.7 74.0231 135.591C71.4113 136.635 68.7994 137.649 66.2183 138.724C65.2043 139.123 64.2517 139.584 63.2992 140.076C60.6258 141.427 58.7514 143.485 57.5531 146.219C56.9385 147.602 56.4776 149.076 55.863 150.489C55.2485 151.871 54.6339 153.284 53.8965 154.605C52.8824 156.51 51.2846 157.862 49.3795 158.814C48.0889 159.469 46.8291 160.155 45.6 160.872C42.7423 162.561 40.9908 165.111 40.0382 168.244C38.8091 172.299 38.6555 176.385 39.4544 180.501C39.6695 181.76 39.9153 183.02 40.2226 184.249C40.8064 186.491 41.5746 188.641 42.773 190.638C43.5719 191.99 44.3709 193.372 45.2005 194.693C45.6307 195.43 46.0916 196.198 46.9213 196.597C47.1671 196.72 47.2593 197.027 47.1364 197.273C47.0134 197.457 46.7369 197.642 46.5525 197.642C46.276 197.672 45.938 197.58 45.6921 197.396C45.3541 197.12 45.0161 196.782 44.7703 196.413C43.4798 194.324 42.1277 192.266 40.9908 190.116C39.7002 187.72 38.9935 185.109 38.4711 182.436C38.0717 180.317 37.7644 178.197 37.4264 176.108C37.1191 174.234 36.8733 172.361 36.4738 170.517C35.9207 167.814 34.876 165.265 33.524 162.838C32.725 161.456 31.7725 160.196 30.5434 159.152C29.345 158.138 28.1159 157.155 26.856 156.203C24.7973 154.605 22.4312 153.93 19.8501 153.868C18.5288 153.868 17.2075 153.96 15.8862 153.991C14.3191 154.052 12.7212 154.175 11.1541 154.145C10.0787 154.114 9.00319 153.991 7.98918 153.745C6.2377 153.346 4.91641 152.332 4.20967 150.673C3.77948 149.69 3.4722 148.646 3.25711 147.602C2.64255 144.407 2.79619 141.212 3.44147 138.048C3.96385 135.529 4.48622 133.041 4.97786 130.553C5.53096 127.696 5.19295 124.962 4.02529 122.32C3.44147 121 2.82691 119.709 2.24308 118.419C0.61451 114.887 -0.122955 111.17 0.0306852 107.268C0.153594 104.319 0.860336 101.524 2.18163 98.8823C3.93311 95.3497 6.20696 92.155 8.84955 89.206C10.8571 86.9943 13.2334 85.2741 15.9784 84.0454C18.1908 83.0931 20.4646 82.3251 22.7385 81.6186C23.9676 81.2193 25.1967 80.8814 26.3951 80.482C27.4091 80.1134 28.4231 79.7448 29.3757 79.2533C31.4652 78.2396 33.0016 76.6422 33.9541 74.5227C34.876 72.4031 35.5827 70.2221 36.1665 68.0104C36.9347 65 38.2867 62.2968 40.2533 59.87C42.0355 57.689 44.1865 56.0302 46.7369 54.8322C48.9493 53.7878 51.3153 53.112 53.7121 52.6205C56.0167 52.1597 58.3212 51.699 60.5951 51.2075C61.8549 50.931 63.0841 50.5931 64.3132 50.2245C65.1735 49.948 66.0339 49.6408 66.8943 49.2722C71.1654 47.4598 73.6544 44.1115 74.7606 39.7188C75.283 37.6607 75.4981 35.5104 75.8668 33.3908C76.9423 27.2164 79.5234 21.7793 83.9482 17.233C86.0991 15.052 88.4037 13.0246 90.9234 11.3043C96.0549 7.86388 101.555 5.00708 107.086 2.30386C108.653 1.5359 110.251 0.798661 111.91 0.337891C112.156 0.276444 112.402 0.215027 112.986 0.061432ZM35.214 150.366C35.3983 150.09 35.552 149.905 35.6442 149.69C37.0269 147.079 38.9013 144.898 41.2981 143.178C44.7396 140.659 48.5191 138.724 52.6673 137.71C54.6954 137.219 56.7541 136.789 58.8129 136.482C62.1622 136.021 65.5116 135.683 68.8301 135.253C70.6738 135.038 72.456 134.7 74.2075 134.086C76.6657 133.225 79.0932 132.273 81.3978 131.044C86.6215 128.218 90.3703 124.071 92.3983 118.45C93.2894 115.87 93.6275 113.197 93.7811 110.494C93.7811 110.402 93.7196 110.31 93.6889 110.156C93.5045 110.248 93.3202 110.31 93.1665 110.432C92.1832 111.293 91.077 111.907 89.9401 112.491C87.3795 113.781 84.7369 114.856 82.0124 115.716C78.1407 116.914 74.2075 117.682 70.1822 118.081C66.2797 118.481 62.3466 118.757 58.4442 119.064C55.5558 119.31 52.6673 119.617 49.8097 120.17C46.2145 120.846 42.8345 122.167 39.7002 123.979C38.256 124.809 36.9347 125.792 35.8285 126.99C33.4318 129.539 32.1105 132.488 32.387 136.113C32.725 140.813 33.7083 145.39 34.9067 149.936C34.9374 150.059 35.0603 150.151 35.214 150.366ZM33.739 123.119C34.0463 123.058 34.1078 123.088 34.1385 123.058C34.3229 122.935 34.4867 122.802 34.6302 122.658C38.9628 118.665 44.0636 116.115 49.6868 114.518C52.6366 113.689 55.6479 113.166 58.69 112.675C62.5617 112.03 66.4334 111.354 70.2744 110.617C73.3471 110.033 76.3277 109.204 79.2776 108.159C81.4593 107.422 83.5487 106.5 85.5768 105.395C88.1272 103.982 90.3396 102.108 92.1218 99.7731C92.8593 98.8209 93.1665 97.8686 93.0129 96.6399C92.5827 93.3223 93.0743 90.0661 94.3035 86.9022C95.0102 85.0898 95.8398 83.3388 96.8231 81.68C97.2226 81.035 97.2226 81.035 97.2533 80.3592C97.1304 80.4513 97.0075 80.5435 96.8846 80.6356C90.6161 85.9806 83.3644 89.1139 75.283 90.4041C72.3638 90.8955 69.414 91.1106 66.4641 91.3256C64.1288 91.5099 61.7935 91.7557 59.4889 92.0321C57.5838 92.2779 55.8016 92.8308 54.0501 93.5681C52.9746 93.9981 52.0221 94.551 51.2231 95.3804C49.3487 97.3157 47.3822 99.1895 45.5692 101.186C40.3455 106.992 36.566 113.627 34.2614 121.092C34.077 121.737 33.9541 122.382 33.739 123.119ZM74.0846 44.9409C73.6851 45.4324 73.47 45.6474 73.3164 45.8932C71.9951 47.767 70.2436 49.1493 68.1849 50.1016C66.9865 50.6545 65.7266 51.146 64.4668 51.5147C62.2851 52.129 60.1342 52.6819 57.9218 53.112C56.7849 53.327 56.1088 53.88 55.5865 54.8322C54.5725 56.6753 53.9272 58.672 53.5584 60.7302C53.0668 63.6791 53.159 66.6281 53.7735 69.5463C54.2037 71.6352 54.7568 73.724 55.2177 75.8128C55.7094 77.9324 56.201 80.0827 56.5698 82.233C56.9385 84.2604 57.0307 86.2878 56.7541 88.3459C56.7234 88.5302 56.7234 88.7146 56.7234 89.0524C57.0921 88.8681 57.3687 88.7453 57.5838 88.5917C59.2124 87.5165 60.8409 86.4721 62.4695 85.397C65.1121 83.6153 67.7854 81.8029 70.4587 79.9905C71.0425 79.5912 71.5649 79.1304 71.9644 78.5161C73.6237 75.8743 75.0064 73.1096 75.8668 70.0685C77.2188 65.2765 77.4954 60.4537 76.3892 55.5695C75.621 52.1597 74.5148 48.7807 74.0846 44.9409ZM30.7277 133.41C30.8097 133.389 30.8814 133.369 30.9428 133.348C30.9633 133.103 30.9838 132.857 31.0043 132.611C31.1272 131.044 31.1886 129.478 31.4037 127.911C31.8339 124.563 32.7558 121.307 33.862 118.143C34.1385 117.344 34.2307 116.576 34.2 115.747C34.077 113.392 33.6571 111.088 32.9401 108.835C32.469 107.381 31.9876 105.937 31.4959 104.504C30.0824 100.48 28.9455 96.4249 28.2695 92.2164C27.7471 88.9296 27.532 85.6427 28.0237 82.3251C28.0544 82.0487 27.9929 81.7722 27.9929 81.465C27.8086 81.465 27.6857 81.4343 27.5935 81.465C24.8894 82.3251 22.1239 83.1238 19.4506 84.1068C17.7299 84.7212 16.1013 85.5813 14.4113 86.3185C13.2743 86.8407 12.6291 87.7316 12.1681 88.8989C10.8469 92.37 10.5396 95.9027 11.0312 99.5581C11.5536 103.429 13.0285 106.931 15.0873 110.217C17.146 113.566 19.6043 116.607 22.1239 119.617C23.435 121.174 24.7153 122.761 25.9649 124.379C27.7779 126.744 29.1606 129.355 30.2053 132.15C30.359 132.58 30.5434 132.98 30.7277 133.41ZM55.4328 53.8492C55.1563 53.7571 55.0641 53.7264 54.9719 53.7264C52.6059 54.1564 50.2706 54.7401 48.0582 55.6616C46.4911 56.3374 45.0161 57.1361 43.7256 58.242C43.2339 58.672 42.773 59.1635 42.4043 59.7164C41.8819 60.5766 41.421 61.4981 40.9908 62.4197C38.6248 67.5496 37.6107 72.956 37.4571 78.5775C37.3035 83.8918 37.7644 89.1753 38.4711 94.4282C38.9628 98.2372 39.4544 102.016 39.5159 105.855C39.5159 106.009 39.5773 106.132 39.6388 106.408C39.8539 106.193 40.069 106.07 40.2226 105.886C41.2366 104.534 42.1892 103.152 43.2646 101.862C46.6447 97.8379 50.332 94.121 54.5417 90.8956C55.4943 90.1583 56.0474 89.2675 56.1089 88.1002C56.201 87.1479 56.2625 86.1649 56.2318 85.2127C56.1703 82.8473 55.7401 80.5435 55.187 78.2703C54.6339 75.9357 54.0194 73.6011 53.497 71.2665C53.0361 69.3313 52.6981 67.3653 52.6366 65.3686C52.5444 61.6517 53.1283 58.0577 54.9719 54.7401C55.1256 54.4943 55.2485 54.2179 55.4328 53.8492ZM105.888 4.42345C105.519 4.57703 105.181 4.66919 104.905 4.82277C103.43 5.59073 101.985 6.32796 100.541 7.09592C97.3148 8.84686 94.1191 10.6592 91.1078 12.7788C88.9876 14.284 87.0517 16.0042 85.1773 17.8166C83.7638 19.1682 82.8727 20.7656 82.3196 22.6087C81.9509 23.776 81.6436 24.974 81.4593 26.172C80.6911 30.534 80.7832 34.896 81.3978 39.258C81.7665 41.8384 82.166 44.4187 82.5962 46.9683C83.0878 50.1323 83.4258 53.327 83.6102 56.5524C83.7638 59.2557 83.7024 61.9589 83.18 64.6314C82.9956 65.6144 82.7805 66.5974 82.5655 67.5803C82.9649 67.3653 83.2415 67.0888 83.4258 66.7816C85.9762 62.4811 87.697 57.8426 88.7725 52.9891C89.5714 49.3644 89.9401 45.6474 90.2781 41.9305C90.5239 38.7973 90.6776 35.6333 90.8927 32.5C91.1385 29.2746 91.6916 26.1106 92.6134 23.0387C93.7811 19.2604 95.8398 16.0043 98.1444 12.871C100.203 10.1063 102.569 7.67957 105.15 5.40642C105.427 5.16066 105.857 5.0071 105.888 4.42345ZM32.8787 148.4C32.9709 148.247 33.063 148.155 33.0323 148.093C32.725 146.803 32.5099 145.482 32.0797 144.223C30.9735 140.966 29.4679 137.925 27.5013 135.099C25.0738 131.597 22.4005 128.341 19.297 125.423C17.5148 123.764 15.7326 122.075 14.0426 120.293C8.60374 114.579 5.00858 107.883 3.90239 99.9575C3.87166 99.7424 3.77947 99.5274 3.71802 99.2817C3.53365 99.3738 3.41074 99.4045 3.38001 99.466C2.58108 101.125 1.9358 102.845 1.62852 104.657C0.860329 109.081 1.47489 113.32 3.22637 117.405C3.74874 118.604 4.33257 119.802 4.88567 121C5.62314 122.689 6.20696 124.409 6.48351 126.252C6.54497 126.867 6.76007 127.45 6.97516 128.003C8.14282 130.707 10.0479 132.795 12.3218 134.608C14.1347 136.082 16.132 137.28 18.1908 138.448C20.649 139.799 23.138 141.089 25.5655 142.502C28.0544 143.915 30.359 145.574 32.2334 147.786C32.4485 148.001 32.6636 148.185 32.8787 148.4ZM38.594 167.538C38.676 167.558 38.7682 167.569 38.8706 167.569C38.9525 167.343 39.0345 167.108 39.1164 166.862C40.2841 163.667 42.3121 161.21 45.262 159.52C46.4296 158.875 47.5973 158.261 48.7649 157.646C50.5779 156.756 51.9913 155.496 52.9132 153.715C53.3434 152.916 53.7736 152.086 54.1116 151.257C54.6647 149.936 55.1256 148.585 55.6787 147.264C56.1396 146.127 56.662 145.021 57.2765 143.946C58.5671 141.734 60.38 140.045 62.6846 138.939C64.2824 138.14 65.9417 137.465 67.5703 136.727C67.939 136.543 68.3385 136.359 68.7072 136.174C68.3078 135.99 67.9698 135.99 67.6318 136.052C64.7434 136.389 61.8549 136.727 58.9973 137.096C57.8603 137.219 56.7541 137.434 55.6787 137.618C50.6393 138.57 45.9994 140.506 41.8512 143.516C40.4992 144.53 39.2393 145.636 38.1946 146.957C37.1498 148.247 36.2587 149.598 35.7056 151.165C35.5213 151.687 35.4598 152.209 35.6134 152.793C35.9822 154.114 36.2894 155.465 36.6889 156.786C37.58 159.981 38.1946 163.237 38.4404 166.555C38.4404 166.893 38.5326 167.231 38.594 167.538ZM93.2894 99.4967C93.0436 99.5888 92.9822 99.5888 92.9822 99.6196C92.8388 99.7834 92.7056 99.9472 92.5827 100.111C90.6776 102.722 88.2501 104.688 85.4231 106.193C83.477 107.217 81.4593 108.088 79.3698 108.804C76.4814 109.787 73.5315 110.647 70.5202 111.2C66.6177 111.938 62.6846 112.583 58.7822 113.289C56.2625 113.75 53.7428 114.211 51.2539 114.764C48.3655 115.409 45.6 116.453 42.9266 117.743C39.731 119.31 36.8733 121.337 34.3229 123.826C33.5239 124.594 33.063 125.515 32.9094 126.621C32.7865 127.573 32.6021 128.526 32.5099 129.478C32.4792 129.754 32.5714 130 32.6328 130.522C34.2 127.266 36.5353 125.116 39.3622 123.457C42.5579 121.583 45.9687 120.262 49.6253 119.586C52.1142 119.095 54.6339 118.757 57.1843 118.542C60.5029 118.296 63.7908 118.051 67.1094 117.774C70.9811 117.467 74.8221 116.914 78.6016 116.023C82.6884 115.04 86.5908 113.566 90.3089 111.6C91.2921 111.077 92.2447 110.494 93.0436 109.664C93.6582 109.081 93.9962 108.405 93.9962 107.514C94.0269 105.21 93.8425 102.937 93.5045 100.664C93.4431 100.295 93.3816 99.9575 93.2894 99.4967ZM89.3563 56.276C89.6636 56.2146 89.7865 56.2145 89.8479 56.1531C91.538 54.7401 93.4738 53.7264 95.3482 52.5898C96.9768 51.6375 98.6053 50.6852 100.142 49.6101C103.553 47.2141 106.287 44.2651 108.162 40.5175C109.821 37.1692 110.558 33.6059 110.282 29.8582C110.22 28.9981 110.036 28.1687 109.637 27.37C108.93 25.8955 108.254 24.4211 107.578 22.9466C107.455 22.7316 107.424 22.4244 106.963 22.4858C106.871 22.7316 106.748 22.9773 106.625 23.2538C106.103 24.6361 105.365 25.9263 104.536 27.155C101.402 31.6399 97.4991 35.2954 92.8593 38.2136C92.5212 38.4286 92.214 38.6744 91.876 38.8894C91.3229 44.7259 90.8312 50.5009 89.3563 56.276ZM105.304 65.6758C104.874 66.2287 104.628 66.5666 104.382 66.8738C103.522 67.8875 102.754 68.9627 101.801 69.8842C95.2867 76.12 87.6663 80.3284 78.7552 82.1408C76.8808 82.5094 74.945 82.7859 73.0091 83.0317C71.0118 83.3081 68.9838 83.646 67.0479 84.2911C66.4334 84.5061 65.8188 84.7826 65.2657 85.1512C63.1148 86.5028 60.9741 87.8954 58.8436 89.3289C57.7067 90.0969 56.6312 90.9263 55.525 91.7557C55.3407 91.8785 55.0641 92.0321 55.2792 92.3393C55.3714 92.3393 55.4943 92.3393 55.5865 92.3086C58.5363 91.4178 61.5477 91.0184 64.6204 90.8034C66.4641 90.6805 68.277 90.5884 70.1207 90.4348C76.2663 89.9126 82.1967 88.6224 87.7892 85.8577C94.2727 82.6323 99.7423 78.301 103.337 71.8809C103.829 70.9901 104.29 70.0685 104.659 69.1162C105.058 68.1333 105.427 67.1196 105.304 65.6758ZM5.22368 135.898C4.97785 137.188 4.73204 138.325 4.51694 139.492C4.05603 142.164 4.05603 144.868 4.5784 147.54C4.73204 148.37 5.00858 149.23 5.31586 150.028C5.77678 151.103 6.5757 151.841 7.71263 152.271C8.97247 152.732 10.263 152.885 11.615 152.854C13.2436 152.824 14.8722 152.701 16.5008 152.67C17.8221 152.609 19.1434 152.547 20.4646 152.609C22.8614 152.701 25.0431 153.469 27.0711 154.759C31.2501 157.431 34.5687 160.872 36.4431 165.541C36.5046 165.746 36.5865 165.93 36.6889 166.094C36.7504 166.155 36.8425 166.186 36.9347 166.248C36.9655 166.155 37.0576 166.063 37.0576 166.002C36.904 163.483 36.4431 161.056 35.2447 158.783C33.9234 156.356 32.4485 154.022 30.3283 152.209C28.8841 150.95 27.2862 149.813 25.6884 148.738C22.6463 146.68 19.2048 145.298 15.8862 143.762C14.2269 142.963 12.5676 142.164 11.0005 141.243C8.91101 140.014 7.06735 138.509 5.74605 136.42C5.65387 136.267 5.50023 136.144 5.22368 135.898ZM74.1768 79.069C74.4226 79.0997 74.5762 79.1304 74.6991 79.0997C77.4442 78.342 80.1994 77.5945 82.9649 76.8573C87.6048 75.5978 91.7223 73.3247 95.4404 70.2835C99.1277 67.3039 102.139 63.7405 104.321 59.5014C104.628 58.9485 104.812 58.3956 104.812 57.7812C104.782 56.1838 105.058 54.6172 105.519 53.112C105.55 53.0506 105.458 52.9277 105.427 52.8663C105.396 52.8355 105.335 52.8048 105.304 52.8355C105.089 52.9584 104.874 53.0813 104.689 53.2656C102.354 55.3851 99.773 57.1975 96.9768 58.7335C95.7784 59.3785 94.5493 59.9929 93.3509 60.6994C91.8452 61.6517 90.3088 62.5732 88.8646 63.6177C86.683 65.215 84.8393 67.181 83.3029 69.4234C82.5347 70.56 81.6744 71.6352 80.7832 72.7103C79.0932 74.6763 77.1881 76.4579 75.1908 78.086C74.8528 78.3625 74.4226 78.5775 74.1768 79.069ZM34.8452 114.887C34.9272 114.887 35.0194 114.897 35.1218 114.917C35.7671 113.596 36.3816 112.245 37.1191 110.955C37.5186 110.248 37.6107 109.572 37.4571 108.774C37.2727 107.975 37.1806 107.176 37.0576 106.378C36.1665 101.002 35.2754 95.5955 34.4765 90.2198C33.8005 85.9806 33.6161 81.7108 34.415 77.4409C34.4458 77.2873 34.3536 77.103 34.3229 76.888C33.4318 77.7481 32.6943 78.6082 31.8032 79.2533C30.8814 79.9598 29.8366 80.5128 28.7919 81.1271C28.7611 81.3729 28.669 81.6186 28.6382 81.8644C28.331 84.3833 28.2388 86.9329 28.546 89.4825C29.007 93.8445 29.9903 98.1144 31.4037 102.292C32.0797 104.258 32.7558 106.255 33.401 108.221C34.0463 110.187 34.5072 112.153 34.6916 114.211C34.7223 114.426 34.7838 114.672 34.8452 114.887ZM92.1218 35.0496C92.6134 34.681 92.89 34.4967 93.1665 34.2816C95.5018 32.285 97.4377 29.9196 99.1584 27.37C101.064 24.5746 102.477 21.5335 103.43 18.2774C104.444 14.8062 105.826 11.4886 107.025 8.0482C107.332 7.15736 107.793 6.29724 108.162 5.40642C108.254 5.19139 108.346 4.97636 108.407 4.76134C108.254 4.73062 108.192 4.69989 108.162 4.69989C107.977 4.82277 107.793 4.91493 107.639 5.03781C103.337 8.50897 99.6194 12.5331 96.7309 17.2637C95.5633 19.199 94.5493 21.1956 93.904 23.3459C93.1665 25.742 92.7056 28.1994 92.3983 30.6876C92.2447 32.0392 92.0296 33.3908 92.1218 35.0496ZM81.5514 22.7009C81.4695 22.6599 81.3978 22.6292 81.3363 22.6087C80.9983 23.1616 80.6296 23.7146 80.3223 24.2675C79.0318 26.5714 78.2021 29.0288 77.5876 31.5477C76.6964 35.1111 76.4199 38.7051 77.0959 42.3299C77.4954 44.5723 77.9256 46.8454 78.4172 49.0879C79.001 51.8833 79.5234 54.6786 79.8307 57.5354C80.0765 60.0339 80.0663 62.5221 79.8 65C79.4927 67.6418 78.8167 70.2221 77.7412 72.6796C77.5261 73.2018 77.1881 73.6933 77.1574 74.5534C78.2328 73.6626 78.9396 72.741 79.7385 71.9116C80.7218 70.9286 81.2749 69.792 81.6436 68.4712C82.7805 64.5699 83.2415 60.6073 82.9956 56.5217C82.7498 53.0813 82.3811 49.6101 81.828 46.2004C81.3568 43.2719 80.9369 40.3434 80.5681 37.4149C80.0765 33.6366 80.1994 29.8889 80.814 26.1413C80.9983 24.974 81.3056 23.8374 81.5514 22.7009ZM35.0296 157.001C35.1116 156.96 35.1935 156.93 35.2754 156.909C35.214 156.633 35.1832 156.356 35.1218 156.08C34.7838 154.728 34.3843 153.407 34.077 152.056C33.8619 151.042 33.401 150.182 32.7558 149.353C31.3013 147.489 29.601 145.881 27.6549 144.53C25.1045 142.779 22.3083 141.396 19.5735 139.891C16.9924 138.478 14.4113 137.034 12.076 135.191C10.0787 133.625 8.35791 131.874 7.1288 129.631C7.00589 129.416 6.85224 129.232 6.5757 128.894C6.48351 129.447 6.42207 129.846 6.36061 130.246C6.14552 131.352 5.99188 132.457 5.74605 133.533C5.56169 134.301 5.65386 134.946 5.99187 135.591C6.51425 136.604 7.22099 137.465 8.05064 138.233C9.5563 139.646 11.2156 140.813 13.0593 141.734C15.2921 142.84 17.5558 143.895 19.8501 144.898C22.4927 146.035 24.9509 147.448 27.3169 149.045C30.2668 151.042 32.8479 153.407 34.6609 156.51C34.7838 156.664 34.9067 156.817 35.0296 157.001ZM30.1746 134.638C29.3142 131.167 27.9008 128.034 25.7805 125.239C24.5207 123.518 23.138 121.86 21.8167 120.201C20.0959 118.02 18.3444 115.9 16.6851 113.719C14.9644 111.446 13.4587 108.989 12.3218 106.347C9.95575 100.756 9.37192 95.0425 11.4307 89.206C11.4921 89.0525 11.6765 88.8682 11.3385 88.6531C11.1541 88.8067 10.939 88.9296 10.7854 89.1139C10.0787 89.8511 9.40265 90.5884 8.69591 91.3256C7.92771 92.155 7.58971 93.1073 7.43608 94.2131C7.15953 96.8242 7.22098 99.4045 7.74335 101.985C8.51155 105.61 10.0172 108.927 12.1067 112.03C13.766 114.457 15.6404 116.76 17.6377 118.941C19.3584 120.815 21.1099 122.658 22.8307 124.532C25.5347 127.42 27.8393 130.584 29.8059 133.993C29.9288 134.219 30.0517 134.434 30.1746 134.638ZM68.9223 83.0317C70.4792 82.8064 72.0361 82.5811 73.593 82.3559C75.0986 82.1101 76.635 81.9258 78.1407 81.6186C87.0517 79.9291 94.7029 75.7821 101.279 69.5463C102.692 68.2254 103.829 66.6588 104.935 65.0614C105.273 64.5699 105.458 64.0784 105.365 63.4948C105.243 62.5732 105.15 61.6824 104.997 60.7608C104.966 60.6073 104.843 60.4537 104.72 60.2079C103.891 61.4981 103.184 62.7576 102.354 63.8941C97.5606 70.345 91.415 74.9527 83.6409 77.2873C81.3671 77.9631 79.001 78.4853 76.7272 79.1919C75.0679 79.6834 73.4393 80.267 71.8107 80.8507C70.6431 81.2807 69.752 82.0794 68.9223 83.0317ZM30.4512 138.663C30.5331 138.642 30.6151 138.611 30.697 138.57C30.6663 138.325 30.6355 138.079 30.5741 137.833C30.1234 136.092 29.4167 134.464 28.4539 132.949C26.5487 129.918 24.3773 127.092 21.9396 124.471C19.3584 121.706 16.8388 118.911 14.3498 116.054C12.4754 113.904 10.8776 111.538 9.58702 108.958C7.40535 104.688 6.3606 100.172 6.72933 95.3497C6.76006 95.0118 6.76006 94.7046 6.79079 94.1517C6.48351 94.3974 6.29915 94.5203 6.20697 94.6432C5.80751 95.2576 5.4695 95.8719 5.00857 96.4556C4.45547 97.1928 4.27111 97.9915 4.39402 98.8823C4.48621 99.3431 4.48621 99.8039 4.57839 100.265C5.16222 103.951 6.26842 107.483 7.98917 110.832C9.77139 114.241 12.0145 117.344 14.7186 120.109C16.4086 121.86 18.1908 123.518 19.973 125.208C23.9369 129.017 27.3477 133.256 30.0517 138.048C30.1746 138.263 30.3283 138.478 30.4512 138.663ZM111.019 31.5477C110.999 31.8549 110.968 32.1518 110.927 32.4386C110.558 37.6607 108.592 42.207 105.089 46.0775C102.999 48.3506 100.603 50.2245 97.9601 51.7911C96.3315 52.7741 94.7029 53.6956 93.0743 54.6479C91.8452 55.3851 90.6776 56.2145 89.6636 57.2282C89.0183 57.8119 88.4959 58.4877 88.2501 59.3785C88.1579 59.7471 87.9735 60.1158 87.8506 60.5151C87.8199 60.6687 87.8199 60.853 87.8199 61.2216C90.6469 59.5321 93.3202 57.9655 95.9628 56.3374C97.3455 55.4773 98.6668 54.525 99.9574 53.5421C102.999 51.2689 105.642 48.5964 107.916 45.5553C109.544 43.3743 110.958 41.1011 111.972 38.5822C112.187 38.06 112.402 37.5071 112.402 36.9541C112.402 35.0496 111.972 33.2372 111.019 31.5477ZM38.1638 108.681C38.8091 108.251 38.8399 107.821 38.8091 107.361C38.8091 105.671 38.8399 103.982 38.6862 102.323C38.4711 99.6196 38.1331 96.9471 37.7951 94.2438C37.1805 89.3289 36.7196 84.414 36.8118 79.4683C36.8733 74.6763 37.5186 70.0071 39.0857 65.4915C39.4237 64.5392 39.7924 63.587 40.2533 62.3275C39.7924 62.9112 39.4851 63.1876 39.3315 63.5562C38.8091 64.6621 38.2867 65.768 37.8873 66.9352C37.3342 68.6248 36.904 70.3757 36.3509 72.0345C35.4598 74.6148 34.9989 77.2873 34.6916 79.9598C34.2921 83.4003 34.5687 86.81 35.0911 90.189C35.9822 95.9641 36.9347 101.77 37.8566 107.545C37.918 107.883 38.0409 108.221 38.1638 108.681ZM91.9374 37.9986C92.552 37.6607 92.9207 37.4764 93.2587 37.2613C97.1919 34.6196 100.603 31.4556 103.43 27.6465C104.689 25.9263 105.765 24.0832 106.472 22.025C106.687 21.38 106.717 20.7963 106.502 20.1205C105.919 18.4924 105.581 16.7722 105.611 15.0213C105.611 14.8677 105.488 14.6834 105.365 14.2533C104.966 15.5435 104.659 16.5572 104.321 17.5709C103.337 20.4584 102.323 23.3459 100.756 25.9877C98.5132 29.7046 95.8091 33.0837 92.3369 35.7562C92.214 35.8483 92.1218 35.9712 91.9681 36.1247C91.9681 36.647 91.9681 37.1692 91.9374 37.9986ZM73.2857 77.6867C74.2997 77.1337 74.8221 76.4887 75.283 75.8436C76.9423 73.5704 77.8948 71.0208 78.5708 68.3176C79.4927 64.6314 79.6156 60.853 79.1239 57.0747C78.8167 54.6479 78.3557 52.2519 77.9256 49.8559C77.4032 47.0298 76.8501 44.2344 76.297 41.439C76.2663 41.224 76.2048 40.9783 76.0819 40.5482C75.621 41.224 75.5595 41.8384 75.2522 42.3606C74.6684 43.4357 74.607 44.603 74.8221 45.7703C75.0884 47.2858 75.3956 48.7807 75.7439 50.2552C76.2048 52.4055 76.8194 54.525 77.2188 56.6753C78.4172 62.9419 77.4032 68.9319 74.7606 74.707C74.3611 75.6285 73.8695 76.5194 73.2857 77.6867ZM86.0991 64.9386C86.345 64.8157 86.4986 64.7542 86.5908 64.6621C88.7725 62.7268 91.2 61.1602 93.7811 59.7472C95.0717 59.0714 96.3622 58.3648 97.6528 57.6276C100.633 55.9074 103.368 53.8492 105.703 51.3303C106.195 50.8388 106.595 50.2245 106.963 49.6408C107.977 47.982 108.991 46.3232 109.913 44.6337C110.466 43.6507 111.173 42.7599 111.388 41.5619C111.265 41.6848 111.173 41.7462 111.112 41.8384C108.899 45.6474 106.164 49.0572 102.846 51.9754C99.9266 54.5558 96.731 56.706 93.3816 58.672C91.9681 59.4912 90.5547 60.3103 89.1412 61.1295C87.7584 61.9589 86.5908 62.9726 86.1299 64.6006C86.0991 64.6621 86.1299 64.6928 86.0991 64.9386Z" fill="#E8C597" fill-opacity="0.35"/>
</g>
<defs>
<clipPath id="clip0_2_459">
<rect width="114" height="120" fill="white" transform="translate(114 120) rotate(180)"/>
</clipPath>
</defs>
</svg>
