<svg width="229" height="314" viewBox="0 0 229 314" fill="none" xmlns="http://www.w3.org/2000/svg">
<g clip-path="url(#clip0_2_205)">
<path fill-rule="evenodd" clip-rule="evenodd" d="M137.554 301.792C136.705 301.306 135.977 301.003 135.31 300.638C131.914 298.998 128.64 297.116 125.971 294.443C123.182 291.649 120.574 288.674 117.906 285.758C116.633 284.422 115.481 282.964 114.207 281.628C111.114 278.227 107.355 275.676 103.171 273.733C102.16 273.247 101.129 272.801 100.078 272.397C96.1362 270.817 92.4371 268.813 88.8593 266.627C86.1911 264.987 83.4016 263.408 80.6122 262.011C75.3971 259.399 69.9394 258.853 64.2392 260.007C57.5687 261.343 51.2014 263.59 45.3193 266.991C41.2563 269.42 37.3147 271.971 33.2518 274.522C32.7666 274.826 32.2209 275.13 31.7357 275.555C30.7048 276.405 29.6739 276.526 28.4005 275.919C25.3078 274.522 22.0332 273.915 18.698 273.733C18.1522 273.672 17.6671 273.611 17.1213 273.55C17.0607 273.55 17 273.49 16.9394 273.429C17.6064 272.457 17.6064 272.457 18.5161 272.032C21.063 270.817 23.6705 269.724 26.0961 268.327C29.7952 266.08 33.4337 263.59 37.0721 261.1C38.103 260.371 38.952 259.278 39.8616 258.367C40.9531 257.213 41.984 256.059 43.1968 254.966C47.1385 251.382 51.8685 249.803 57.1442 250.046C60.6614 250.168 64.1179 250.957 67.5138 251.868C74.7502 253.852 82.0271 253.933 89.3444 252.111C90.9211 251.686 92.5584 251.261 94.1351 250.836C99.2289 249.378 103.959 247.131 108.931 245.309C109.113 245.248 109.295 245.005 109.659 244.762C109.295 244.58 109.053 244.337 108.749 244.276C106.081 243.608 103.656 242.454 101.351 240.936C100.987 240.693 100.624 240.45 100.26 240.207C94.4989 236.563 88.3742 235.834 81.8856 237.595C77.1556 238.871 72.8501 240.997 68.7266 243.487C66.5435 244.823 64.3604 246.139 62.1774 247.434C61.5103 247.86 60.7826 248.163 59.9337 247.981C54.5366 247.07 49.5035 248.224 44.7735 250.775C44.7128 250.836 44.5916 250.775 44.349 250.775C44.4096 250.41 44.4096 250.107 44.5916 249.803C48.3513 243.426 50.9588 236.563 53.1419 229.518C54.5973 225.023 56.2346 220.529 57.8112 216.095C58.2964 214.516 59.206 213.241 60.3581 212.147C68.3021 204.495 77.6408 200.365 88.8593 201.033C92.0733 201.215 95.2872 201.701 98.4405 202.491C101.836 203.28 105.232 204.252 108.628 204.981C111.963 205.709 115.359 206.438 118.695 206.863C121.12 207.228 123.606 207.228 126.032 207.167C131.692 207.086 136.887 205.446 141.617 202.248C144.406 200.426 147.135 198.603 149.985 196.842C153.927 194.534 158.172 193.198 162.659 192.773C164.66 192.53 166.661 192.408 168.662 192.226C172.725 191.801 176.606 190.951 180.306 189.25C183.156 187.914 185.703 186.214 188.007 184.209C190.857 181.719 193.586 179.168 196.375 176.617C199.468 173.824 202.803 171.455 206.32 169.268C212.445 165.442 218.994 162.588 225.847 160.28C226.635 160.037 227.484 159.672 228.272 159.369C228.333 159.369 228.394 159.247 228.515 159.065C227.727 159.004 227.06 158.883 226.392 158.883C222.633 158.822 218.873 158.701 215.053 158.701C207.776 158.701 200.863 157.182 194.314 153.781C191.16 152.08 187.886 150.562 184.55 149.226C176.667 146.007 168.42 145.46 160.052 146.857C157.444 147.282 154.958 148.315 152.593 149.408C151.259 150.076 149.925 150.684 148.53 151.291C144.77 152.991 140.828 154.085 136.705 154.692C133.43 155.117 130.156 155.725 126.881 156.393C123.061 157.121 119.483 158.518 116.026 160.219C111.6 162.466 107.9 165.685 104.444 169.208C97.9554 175.706 92.9829 183.359 88.738 191.497C87.4646 193.805 86.3124 196.174 85.0389 198.603C80.9154 199.089 76.7311 199.515 72.7895 201.154C68.9691 202.794 65.452 204.981 61.7529 207.592C61.7529 206.317 62.238 205.649 62.5412 204.981C66.8467 195.992 72.3044 187.732 79.0355 180.383C82.2495 176.8 85.5847 173.338 88.6774 169.633C90.9211 166.961 92.9829 164.045 94.8627 161.13C99.0469 154.692 104.808 150.319 111.782 147.525C115.723 145.946 119.786 144.974 124.031 144.61C127.245 144.367 130.459 144.003 133.733 143.699C134.825 143.638 135.977 143.456 137.129 143.395C142.526 142.849 147.256 140.662 151.319 137.14C155.928 133.253 160.415 129.183 164.963 125.175C166.5 123.839 168.016 122.503 169.511 121.166C169.754 120.984 169.936 120.68 170.3 120.255C169.815 120.073 169.511 119.891 169.269 119.891C164.781 119.526 160.294 119.587 155.928 120.62C152.593 121.409 149.197 121.834 145.801 122.077C143.8 122.26 141.799 122.563 139.798 122.867C135.068 123.656 131.126 125.964 127.548 129.123C122.939 133.253 119.119 137.99 116.148 143.638C110.144 145.4 104.383 147.829 99.3502 152.445C99.4108 151.777 99.3502 151.412 99.4108 151.109C100.745 147.465 102.018 143.82 103.474 140.298C105.354 135.803 108.325 132.159 112.085 129.123C114.672 127.058 117.32 125.053 120.029 123.11C125.062 119.405 130.034 115.7 134.522 111.327C140.343 105.74 145.195 99.5447 148.53 92.135C152.108 84.4216 153.138 76.4046 151.441 68.0232C150.288 62.1926 148.53 56.605 146.65 51.0781C144.649 45.0654 142.587 39.1133 140.707 33.1006C138.221 24.9013 137.008 16.5199 136.705 7.95627C136.584 5.4054 136.402 2.91526 136.28 0.425129C135.553 0.121454 135.371 0.607334 135.128 0.850274C129.792 7.04525 125.547 13.8476 122.454 21.3787C121.06 24.7799 119.604 28.181 118.331 31.6429C115.966 38.3238 112.085 43.9114 106.93 48.7702C104.383 51.1389 101.897 53.629 99.5927 56.3013C93.7106 63.1644 89.9508 71.06 89.1625 80.2309C88.6167 86.3652 90.0721 92.0743 92.9829 97.4189C95.1659 101.367 97.6522 105.072 100.381 108.655C102.503 111.509 104.505 114.485 106.142 117.704C107.173 119.648 108.022 121.713 108.386 123.839C108.628 125.053 108.628 126.268 108.689 127.544C108.729 128.515 108.386 129.366 107.658 130.094C104.019 133.617 101.776 137.929 100.017 142.545C99.3501 144.367 98.6225 146.128 98.0767 148.011C95.4691 156.757 90.6785 164.227 84.5538 170.908C81.4005 174.431 78.1865 177.893 75.0332 181.476C67.4531 190.222 61.8135 200.183 57.3868 210.872C54.9005 216.763 52.7781 222.837 50.8982 228.971C49.3215 234.133 47.5023 239.296 45.0161 244.155C42.1053 249.985 38.5275 255.33 33.7975 259.946C30.8261 262.8 27.4302 265.169 23.7312 266.991C19.365 269.178 14.817 271.121 10.3296 273.125C10.087 273.247 9.72315 273.308 9.11674 273.55C9.3593 273.004 9.3593 272.639 9.54122 272.457C13.8467 268.145 16.333 262.922 18.0309 257.213C18.8799 254.419 19.7895 251.686 20.6385 248.892C22.3971 243.426 25.0046 238.385 28.5824 233.83C32.6453 228.728 36.8296 223.626 40.9531 218.464C43.1968 215.67 45.3799 212.815 47.1385 209.657C48.5332 207.167 49.8673 204.556 50.9588 201.883C54.3547 193.502 54.5973 184.999 51.262 176.496C49.6247 172.305 47.8055 168.236 46.0469 164.106C45.0161 161.616 43.9245 159.126 42.9543 156.575C41.135 151.777 40.1648 146.797 40.1041 141.695C40.1041 139.508 40.1648 137.322 40.1648 135.135C40.1648 132.099 40.1648 129.123 40.0435 126.147C39.9222 119.587 37.7998 113.635 34.6465 107.926C32.0996 103.432 29.5527 98.9373 27.3696 94.2607C25.9142 91.1632 24.3982 88.0658 22.5183 85.2112C22.0938 84.4824 21.5481 83.8143 21.063 83.1462C20.7598 83.3284 20.5172 83.3892 20.5172 83.5106C19.7895 88.6731 17.5458 93.2282 14.7563 97.5404C13.119 100.031 11.2998 102.399 9.60185 104.829C7.47943 107.926 5.23573 110.963 3.29522 114.182C-1.55604 122.199 -3.86039 130.945 -3.49655 140.298C-3.25398 145.46 -1.91988 150.319 -0.100659 155.117C0.990871 157.911 1.96112 160.705 2.56753 163.62C3.4165 167.629 3.53778 171.637 2.50689 175.646C1.65792 178.966 0.808949 182.286 -0.0400195 185.606C-2.22309 193.805 -1.31347 201.762 2.44625 209.354C3.53779 211.601 4.68996 213.787 6.02406 215.791C9.96571 221.622 14.0286 227.331 17.9703 233.101C18.9405 234.498 19.9108 235.834 20.7598 237.292C21.6694 238.81 21.7907 240.207 20.9417 241.968C19.5469 245.187 18.4554 248.528 17.3032 251.807C16.5755 253.872 15.9691 255.998 15.3627 258.124C13.6041 264.076 10.087 268.935 5.59958 273.186C2.8101 275.737 -0.161296 277.984 -3.55718 279.685C-5.3764 280.535 -7.0137 281.689 -8.71164 282.661C-9.25741 282.357 -9.07548 281.993 -8.89356 281.689C-8.77228 281.385 -8.59036 281.082 -8.40844 280.778C-6.28601 276.709 -5.01256 272.336 -4.83063 267.72C-4.64871 263.711 -4.34551 259.824 -3.4359 255.937C-2.76885 253.144 -2.04116 250.35 -1.25283 247.556C-0.585786 245.005 0.141906 242.454 0.808955 239.903C2.08241 234.862 2.44625 229.7 2.14305 224.477C2.08241 222.897 1.7792 221.379 1.29408 219.861C0.748312 218.039 0.263185 216.156 -0.28258 214.334C-0.40386 213.848 -0.767706 213.423 -1.07091 212.876C-1.4954 213.362 -1.73796 213.666 -1.98052 214.03C-3.4359 216.277 -5.25512 218.16 -7.19563 219.982C-11.4405 223.869 -14.1087 228.789 -15.564 234.316C-16.9588 239.782 -17.2013 245.369 -16.2311 251.018C-15.5034 254.966 -14.6544 258.913 -13.381 262.74C-12.7139 264.926 -12.1075 267.113 -11.5011 269.299C-10.4096 273.186 -10.6521 276.952 -12.2288 280.656C-13.9874 284.908 -16.4737 288.674 -19.8089 291.832C-25.3878 297.237 -30.2997 303.128 -34.4233 309.749C-34.9691 310.538 -35.3936 311.388 -35.818 312.239C-36 312.725 -35.818 313.21 -35.3936 313.393C-35.151 313.514 -34.6659 313.453 -34.4233 313.271C-34.0595 312.967 -33.6956 312.482 -33.4531 312.056C-29.0465 305.376 -23.9931 299.221 -18.2929 293.593C-11.9256 287.277 -4.70935 282.357 3.47715 278.652C4.68996 278.166 5.90278 277.68 7.05495 277.073C8.44969 276.344 9.84443 276.041 11.3604 276.041C13.4222 276.041 15.4234 275.98 17.4245 275.98C22.9428 276.041 27.9154 277.68 32.5241 280.717C34.5252 282.114 36.4657 283.572 38.5275 284.969C41.3776 286.791 44.2277 288.674 47.1991 290.374C51.7472 293.046 56.7804 294.14 62.0561 294.018C64.3604 293.957 66.6042 293.775 68.9085 293.654C71.698 293.472 74.4875 293.289 77.2769 293.107C82.492 292.743 87.5858 293.532 92.4977 295.415C96.6213 296.933 100.684 298.513 104.808 299.97C109.477 301.732 114.328 303.068 119.301 303.675C122.879 304.1 126.457 304.161 130.034 303.554C131.914 303.25 133.794 302.885 135.735 302.582C136.341 302.46 136.887 302.278 137.554 301.792ZM-7.13498 262.861C-7.13498 262.821 -7.1552 262.76 -7.19562 262.679C-7.19562 262.679 -7.17541 262.659 -7.13498 262.618C-7.13498 262.659 -7.13498 262.699 -7.13498 262.74C-7.13498 262.78 -7.13498 262.821 -7.13498 262.861ZM-7.49883 262.072C-8.28716 256.605 -8.46908 251.079 -8.04459 245.552C-7.98395 244.701 -7.62011 244.033 -6.95306 243.547C-5.0732 242.09 -3.4359 240.389 -2.04116 238.506C-1.91988 238.263 -1.61668 238.142 -1.25283 237.899C-1.37411 238.567 -1.37411 239.114 -1.49539 239.539C-1.98052 241.604 -2.52629 243.669 -3.13269 245.673C-4.70935 250.896 -6.04345 256.12 -6.7105 261.586C-6.77114 261.95 -7.0137 262.315 -7.13498 262.618C-7.31691 262.436 -7.49883 262.254 -7.49883 262.072ZM-7.0137 263.286C-7.09455 263.286 -7.17541 263.266 -7.25626 263.226C-7.21584 263.104 -7.17541 262.983 -7.13498 262.861C-7.09455 262.983 -7.05413 263.124 -7.0137 263.286ZM35.1923 115.7C36.587 117.887 37.0721 119.709 37.4966 122.988C37.9211 126.815 37.9817 130.641 37.9211 134.528C37.8807 137.929 37.9009 141.351 37.9817 144.792C38.0424 145.946 37.9211 146.979 37.3147 148.011C34.0401 153.72 32.1602 159.915 31.0687 166.353C30.4623 169.511 29.7346 172.67 29.0069 175.828C28.4005 178.5 27.3696 181.051 25.8536 183.298C25.611 183.602 25.2472 183.784 24.8227 184.149C24.095 181.841 23.5492 179.715 22.8215 177.65C21.3055 173.277 19.7895 168.904 18.1522 164.531C17.6671 163.256 17.5458 161.98 17.7884 160.705C18.0309 159.551 18.2128 158.397 18.5767 157.364C19.6076 154.631 20.5778 151.898 21.8513 149.347C23.4279 146.068 25.3684 142.909 27.1877 139.691C29.0069 136.532 30.9474 133.374 32.3421 129.973C34.1007 125.782 35.1923 121.47 35.1316 116.915C35.1316 116.49 35.1923 116.125 35.1923 115.7ZM44.2277 165.807C44.8948 167.325 45.3799 168.297 45.865 169.329C47.4417 172.852 48.897 176.435 50.0492 180.14C51.7472 185.849 51.7472 191.497 50.1099 197.207C49.0588 200.851 47.5832 204.313 45.6831 207.592C43.8639 210.811 41.7414 213.848 39.4371 216.703C34.2826 223.14 28.825 229.335 24.095 236.077C24.0344 236.077 23.7918 236.016 23.4886 235.956C25.0046 227.27 27.4302 218.707 27.7941 209.961C27.9154 209.718 27.976 209.657 28.0366 209.597C28.5622 209.151 29.108 208.706 29.6739 208.26C35.5561 203.644 39.5584 197.692 41.3776 190.344C42.4085 186.153 43.0755 181.962 43.1362 177.589C43.1968 175.16 43.1968 172.73 43.2575 170.24C43.3181 168.965 43.3788 167.629 44.2277 165.807ZM25.3078 186.031C28.9463 180.383 29.3707 179.35 30.8868 172.427C31.5538 169.451 32.0996 166.414 32.706 163.438C33.6156 158.822 35.1316 154.449 37.254 150.319C37.4966 149.894 37.7998 149.469 38.2849 148.74C38.5275 149.53 38.6488 149.894 38.7094 150.319C39.3967 153.599 40.4073 156.757 41.7414 159.794C42.2266 160.948 42.5904 162.102 43.1362 163.195C43.5 163.985 43.5 164.713 43.1968 165.503C42.4691 167.143 42.2872 168.843 42.2266 170.605C42.1861 172.994 42.1457 175.362 42.1053 177.711C42.0447 181.962 41.3776 186.092 40.3467 190.161C38.6488 197.085 34.9497 202.673 29.492 207.106C29.1282 207.41 28.7643 207.896 27.976 207.653C27.7334 205.892 27.9154 204.07 27.7334 202.248C27.6122 200.426 27.4909 198.603 27.2483 196.781C27.0058 194.959 26.7025 193.137 26.3993 191.315C26.0355 189.493 25.6717 187.732 25.3078 186.031ZM122.03 92.1957C121.06 90.7381 120.392 89.7056 119.665 88.7338C117.421 85.7578 114.51 83.5106 111.6 81.2634C109.659 79.8058 107.719 78.2874 105.899 76.6476C104.383 75.3114 102.928 73.9145 102.018 72.0924C100.26 68.5698 99.5927 64.8042 99.714 60.9172C99.714 59.9454 100.017 59.2166 100.684 58.5485C102.382 56.7872 104.019 54.9652 105.717 53.2039C106.324 52.5965 106.93 51.9892 107.658 51.3818C108.022 51.6855 108.325 51.9284 108.507 52.1714C109.841 54.1149 111.539 55.7547 113.358 57.2731C114.328 58.1639 115.299 59.0547 116.269 59.9454C119.24 62.8607 121.12 66.3226 121.423 70.5741C121.545 72.0317 121.605 73.5501 121.787 75.0077C122.09 78.3481 122.515 81.6278 124.152 84.6039C124.395 85.029 124.516 85.6971 124.395 86.1222C123.849 88.005 123.243 89.8878 122.03 92.1957ZM109.841 183.177C112.449 181.841 114.692 180.504 117.057 179.35C119.907 178.014 122.818 176.739 125.668 175.403C127.184 174.735 128.7 174.674 130.216 175.22C131.55 175.646 132.884 176.071 134.158 176.739C135.916 177.589 137.736 178.561 139.373 179.715C141.617 181.233 143.8 182.873 145.922 184.574C149.136 187.003 152.35 189.432 156.231 190.708C156.474 190.769 156.656 190.951 157.08 191.255C156.474 191.497 155.989 191.74 155.564 191.923C154.169 192.469 152.714 192.894 151.38 193.562C149.864 194.291 148.287 194.777 146.589 194.777C144.709 194.777 142.769 194.716 140.889 194.474C137.675 194.048 134.764 192.894 131.914 191.497C129.428 190.283 126.942 188.947 124.395 187.732C120.029 185.667 115.541 184.027 110.629 183.663C110.508 183.663 110.387 183.48 109.841 183.177ZM121.363 99.241C121.181 99.1195 121.06 98.998 121.12 98.9373C121.241 98.4514 121.363 97.9656 121.545 97.4797C124.455 90.4344 127.063 83.2677 129.003 75.858C129.307 74.704 129.974 74.0967 131.005 73.6716C133.188 72.7605 135.068 71.3636 136.826 69.7238C138.16 68.3876 139.616 67.1122 141.01 65.776C142.526 64.3791 144.164 63.2859 146.044 62.4963C146.468 62.3141 146.953 62.2534 147.438 62.1319C148.469 64.6828 149.803 70.5741 149.743 73.0035C149.743 73.5501 149.621 74.2182 149.439 74.7648C147.438 80.4131 143.86 84.8468 138.767 87.9443C136.705 89.159 134.643 90.313 132.581 91.4669C129.185 93.3497 125.85 95.4754 122.939 98.1478C122.454 98.6336 121.848 98.9373 121.363 99.241ZM132.763 7.47039C132.925 7.51088 133.087 7.57162 133.248 7.6526C133.127 8.13848 133.006 8.62436 132.884 9.11024C130.095 17.8561 128.943 26.7234 130.034 35.8944C130.459 39.1741 130.641 42.5145 130.883 45.8549C131.793 57.2124 130.095 68.2661 126.699 79.077C126.578 79.4414 126.396 79.8058 125.971 80.7168C125.789 79.6236 125.668 79.1377 125.668 78.7126C125.789 76.7083 125.911 74.6433 126.093 72.6391C126.275 70.0275 126.578 67.4158 126.699 64.8042C126.76 61.5245 126.032 58.3663 124.698 55.3296C123.849 53.3456 122.939 51.3616 121.969 49.3775C120.453 46.1586 119.24 42.9396 118.876 39.3563C118.755 38.0808 118.695 36.8054 119.24 35.53C121.06 31.157 122.757 26.7234 124.577 22.3505C126.093 18.5849 127.912 15.0015 130.034 11.5396C130.883 10.1427 131.854 8.80656 132.763 7.47039ZM214.082 161.251C213.052 161.798 212.081 161.859 211.172 162.041C205.411 163.073 199.771 164.653 194.374 167.021C191.1 168.479 187.825 170.119 184.611 171.576C176.728 175.22 168.541 175.524 160.173 173.884C159.93 173.824 159.688 173.702 159.445 173.52C159.384 172.487 159.991 171.698 160.537 170.908C163.265 166.839 167.207 164.531 171.816 163.316C173.999 162.77 176.303 162.588 178.547 162.284C181.336 161.92 184.126 161.737 186.855 161.312C189.462 160.948 191.767 159.915 193.828 158.397C194.435 157.911 195.102 157.486 195.526 157.243C198.74 158.215 201.59 159.247 204.562 159.915C207.655 160.583 210.747 160.826 214.082 161.251ZM120.15 97.2975C119.543 98.9373 118.937 100.516 118.331 102.096C117.664 103.675 117.36 105.436 116.39 106.954C115.905 106.954 115.481 107.076 115.056 107.015C114.268 106.954 113.479 106.894 112.752 106.711C106.93 105.254 101.715 102.824 97.349 98.6336C95.6511 97.014 94.3574 95.1515 93.468 93.046C91.5881 88.7946 90.9817 84.3002 91.5275 79.6843C91.5881 79.2592 91.5881 78.834 92.1945 78.7126C92.5584 79.2592 92.9829 79.8665 93.3467 80.4131C94.984 83.0855 97.2277 85.1505 99.8959 86.7296C101.291 87.4584 102.746 88.1872 104.201 88.7338C106.627 89.7056 109.113 90.5559 111.539 91.4669C113.055 92.0135 114.51 92.5601 115.905 93.289C117.603 94.1393 119.24 95.2325 120.15 97.2975ZM14.0286 149.59C13.9074 148.74 13.7861 148.133 13.7254 147.586C13.119 142.241 13.4222 137.018 14.7563 131.916C15.5446 128.637 16.6362 125.479 17.6064 122.32C18.8799 118.19 20.2746 114.121 21.4874 109.991C23.0035 104.768 23.9737 99.4232 23.8524 93.9571C23.7918 93.6534 23.9737 93.3497 24.095 92.8031C25.3684 95.4754 26.5813 97.9048 27.6728 100.395C28.0973 101.306 28.5218 102.338 28.7643 103.31C29.7952 108.108 29.6133 112.906 28.825 117.704C27.6728 124.567 24.8833 130.762 21.063 136.532C18.4554 140.48 15.9691 144.549 14.5744 149.104C14.5138 149.165 14.4531 149.226 14.0286 149.59ZM1.476 190.465C1.90048 191.072 2.14305 191.315 2.26433 191.558C3.47714 194.291 5.23573 196.721 6.93367 199.15C11.5424 205.709 17.3639 210.933 24.2769 214.88C24.8227 215.184 25.3078 215.488 25.7929 215.731C25.611 219.01 24.1556 226.845 22.5183 233.708C22.4577 233.891 22.2758 234.073 22.1545 234.376C21.8513 234.133 21.6694 234.073 21.4874 233.891C16.5149 227.513 12.0275 220.833 7.66136 214.091C6.02406 211.601 4.68996 208.928 3.53779 206.195C1.59728 201.822 0.869592 197.146 1.1728 192.348C1.23344 191.862 1.35472 191.376 1.476 190.465ZM150.773 171.819C148.166 171.516 145.558 171.212 142.951 171.03C140.343 170.848 137.675 170.969 135.128 171.455C132.581 172.002 130.095 172.609 127.427 173.156C127.548 172.791 127.548 172.487 127.669 172.305C129.246 169.694 130.823 167.021 132.399 164.47C133.309 163.013 134.158 161.555 135.189 160.28C136.765 158.397 138.706 156.818 141.132 156.271C145.195 155.299 148.954 153.72 152.653 151.898C154.776 150.926 156.959 149.894 159.263 149.408C159.627 149.347 159.991 149.469 160.415 149.53C160.173 149.833 160.112 150.015 159.991 150.137C159.87 150.258 159.688 150.319 159.566 150.441C157.141 152.627 155.584 155.32 154.897 158.518C154.594 160.037 154.351 161.616 154.048 163.134C153.745 164.774 153.442 166.414 153.017 167.993C152.593 169.451 152.047 170.848 150.773 171.819ZM19.4257 172.366C19.7895 173.095 20.0927 173.641 20.2746 174.188C20.881 175.889 21.4268 177.528 21.9119 179.229C23.5492 184.513 24.944 189.797 25.7323 195.324C25.7929 195.87 26.1568 196.538 25.4291 196.964C17.9096 195.081 8.20712 187.307 4.02291 179.654C4.4474 177.407 5.0538 175.099 5.35701 172.791C5.59957 170.362 5.47829 167.932 5.53893 165.321C5.96342 165.624 6.32726 165.807 6.63047 166.11C7.47943 166.9 8.20712 167.75 9.05609 168.479C11.9062 171.151 15.0595 173.095 19.4257 172.366ZM45.9257 278.166C50.5344 277.195 54.6579 276.527 58.7209 275.555C61.4497 274.947 63.936 275.19 66.4829 276.041C71.2735 277.62 75.7609 279.745 79.7026 282.904C82.9165 285.515 85.8879 288.309 88.9806 290.981C89.1625 291.164 89.1625 291.407 89.3444 291.832C88.6774 291.771 88.1316 291.71 87.6465 291.589C84.857 290.921 81.9463 290.678 79.0355 290.738C77.3376 290.799 75.579 290.921 73.8204 290.981C72.6076 290.981 71.3341 290.921 70.182 290.738C66.8467 290.313 63.6934 289.159 60.8433 287.337C59.0847 286.244 57.3261 285.09 55.6282 283.875C52.8994 281.932 50.1099 280.11 47.0172 278.834C46.7746 278.774 46.5927 278.591 45.9257 278.166ZM2.32497 121.531C3.4165 121.956 3.90163 122.745 4.26547 123.535C4.7506 124.567 5.17508 125.6 5.53893 126.693C6.20598 128.455 6.75174 130.337 7.47943 132.099C8.20712 133.921 9.23801 135.5 10.8147 136.715C11.2998 137.079 11.7243 137.504 12.2094 137.929C12.2094 138.415 12.27 138.84 12.2094 139.265C11.7849 145.278 12.5126 151.169 14.2712 156.879C15.3627 160.401 16.6362 163.863 17.7884 167.325C17.9703 167.993 18.1522 168.6 18.3948 169.572C17.7277 169.208 17.3032 169.026 17 168.783C14.5744 166.839 12.5126 164.592 11.1179 161.798C9.72314 159.004 8.44968 156.089 7.17623 153.234C5.23572 148.74 3.23458 144.246 -0.525148 140.844C-1.25284 140.298 -1.19219 139.508 -1.19219 138.719C-1.31347 133.01 -0.161303 127.544 1.83984 122.26C1.96112 122.077 2.14305 121.834 2.32497 121.531ZM145.983 195.992C146.023 196.154 146.064 196.316 146.104 196.478C144.952 197.267 143.739 198.057 142.648 198.846C141.495 199.757 140.222 200.243 138.827 200.486C134.946 201.337 131.126 201.033 127.427 199.697C125.062 198.786 122.757 197.692 120.453 196.66C118.27 195.688 116.208 194.595 113.965 193.684C108.689 191.558 103.231 190.526 97.5309 191.862C97.349 191.923 97.1064 191.74 96.6213 191.558C99.4714 189.432 102.2 187.61 105.05 185.91C106.445 185.06 107.9 184.695 109.538 184.695C112.024 184.695 114.389 185.181 116.754 185.91C120.211 186.942 123.485 188.461 126.699 190.04C129.185 191.315 131.732 192.53 134.279 193.684C137.554 195.081 140.95 195.81 144.527 195.87C145.013 195.87 145.498 195.931 145.983 195.992ZM25.7929 214.334C25.2472 214.152 24.944 214.03 24.6408 213.848C23.7918 213.362 22.963 212.876 22.1545 212.39C13.3616 206.681 6.93366 198.846 2.26433 189.493C1.83984 188.704 1.71856 187.853 1.96112 187.003C2.38561 185.485 2.74945 183.906 3.17394 182.387C3.23458 182.144 3.47714 181.901 3.84099 181.415C6.56982 185.606 9.72314 189.068 13.6041 191.862C17.4245 194.595 21.4268 197.085 25.9142 198.361C26.7632 202.491 26.7026 211.054 25.7929 214.334ZM133.915 10.3857C134.077 10.4262 134.239 10.4667 134.4 10.5071C134.522 11.3574 134.643 12.2077 134.704 13.058C135.189 19.3745 136.22 25.5694 137.918 31.6429C139.009 35.53 140.222 39.3563 141.495 43.1826C141.799 44.2151 141.799 45.0046 141.192 45.8549C140.161 47.434 139.676 49.1953 139.252 51.0174C138.949 52.4143 138.706 53.7505 138.342 55.0866C137.372 58.5485 135.674 61.5853 132.884 63.8932C132.581 64.1362 132.339 64.5613 131.672 64.2576C131.732 63.711 131.732 63.1037 131.793 62.4963C132.339 58.3056 132.581 54.1149 132.339 49.9242C132.096 45.0046 131.854 40.1458 131.308 35.287C130.459 27.5737 131.308 20.0425 133.188 12.6329C133.43 11.8433 133.673 11.1145 133.915 10.3857ZM184.368 151.777C183.398 152.809 182.671 153.599 181.943 154.267C179.699 156.271 177.092 157.364 174.302 158.215C171.573 159.004 168.905 159.794 166.298 160.826C161.446 162.709 157.868 166.05 155.989 171.03C155.746 171.576 155.503 172.123 155.261 172.67C154.169 172.791 153.26 172.548 152.411 172.123C154.351 167.507 154.351 167.507 155.322 161.98C155.564 160.523 155.867 159.065 156.231 157.607C156.838 155.299 158.111 153.295 159.87 151.595C161.568 149.955 163.569 148.619 166.055 148.497C171.695 148.315 177.273 148.922 182.61 150.866C183.034 151.048 183.459 151.352 184.368 151.777ZM131.005 174.006C131.187 173.824 131.247 173.641 131.429 173.641C135.128 172.609 138.949 172.123 142.83 172.366C145.255 172.487 147.499 173.156 149.561 174.37C151.38 175.463 153.078 176.678 154.776 177.954C156.534 179.229 158.232 180.626 159.93 181.962C163.387 184.695 167.328 186.335 171.634 187.003C173.029 187.246 174.423 187.367 175.818 187.55C176.182 187.55 176.546 187.732 177.334 187.914C174.484 189.007 171.998 189.493 169.511 189.797C166.965 190.101 164.478 190.222 161.931 190.526C160.658 190.708 159.506 190.586 158.293 190.222C155.463 189.493 152.855 188.279 150.47 186.578C148.59 185.303 146.832 183.845 145.013 182.448C140.889 179.229 136.584 176.253 131.55 174.492C131.368 174.37 131.187 174.188 131.005 174.006ZM145.922 91.7706C145.74 93.1068 145.073 94.0178 144.527 94.9895C140.646 101.974 135.31 107.744 129.367 112.967C124.395 117.279 118.876 120.923 113.661 124.871C113.419 125.053 113.116 125.114 112.691 125.236C112.691 124.75 112.691 124.507 112.752 124.264C114.207 120.255 115.42 116.125 116.511 111.935C116.693 111.145 117.179 110.356 117.664 109.627C119.665 106.529 122.515 104.403 125.85 102.885C128.094 101.853 130.398 101.002 132.703 100.152C137.433 98.3907 141.738 96.022 145.195 92.1957C145.316 92.0135 145.558 91.9528 145.922 91.7706ZM136.705 202.126C136.038 202.551 135.735 202.855 135.371 203.037C132.945 203.948 130.398 204.556 127.73 204.798C123.768 205.163 119.847 204.96 115.966 204.191C112.449 203.523 108.931 202.673 105.475 201.822C100.26 200.547 95.1053 199.089 89.7689 198.786C89.4657 198.725 89.1625 198.543 88.5561 198.361C89.7083 197.328 90.6785 196.417 91.5881 195.567C92.0126 195.202 92.4371 194.899 92.8616 194.595C93.0637 194.473 93.2861 194.352 93.5286 194.231C97.2884 192.773 101.048 191.923 105.111 192.469C108.325 192.894 111.478 193.684 114.45 195.02C116.208 195.81 117.906 196.66 119.665 197.45C121.666 198.421 123.606 199.332 125.668 200.183C128.7 201.397 131.854 202.126 135.128 202.005C135.553 202.005 135.977 202.065 136.705 202.126ZM98.5012 61.8282C98.6225 62.557 98.6831 62.9215 98.7437 63.3466C98.9257 64.8042 99.0469 66.3226 99.3501 67.7803C100.078 70.9992 101.473 73.8538 103.898 76.2224C106.021 78.2874 108.386 80.1095 110.69 81.9315C112.812 83.6321 114.935 85.3327 116.936 87.1547C118.634 88.7946 120.029 90.7381 121.12 92.8638C121.605 93.8356 121.484 94.6859 120.453 95.4754C117.906 92.5601 114.45 91.2847 110.933 90.1307C110.205 89.8878 109.477 89.6449 108.689 89.3412C106.688 88.5516 104.626 87.8228 102.625 86.9725C98.4405 85.029 95.1659 82.1137 92.9829 77.9837C92.3158 76.6476 92.1339 75.4329 92.5584 73.9752C93.7106 69.9667 95.4085 66.2619 97.6522 62.7393C97.7735 62.4963 98.0767 62.2534 98.5012 61.8282ZM77.944 263.468C77.2769 263.711 77.095 263.772 76.9737 263.833C72.7895 264.015 69.0904 265.412 65.6945 267.781C63.2689 269.481 60.7827 271.182 58.357 272.882C56.4165 274.219 54.2941 275.251 51.8685 275.615C50.1705 275.858 48.4726 276.284 46.714 276.587C42.7723 277.255 38.7701 277.68 34.7071 277.559C34.4039 277.559 34.1007 277.377 33.4943 277.195C34.222 276.648 34.6465 276.223 35.1923 275.919C38.2243 274.036 41.2563 272.154 44.2884 270.21C48.3513 267.72 52.6568 265.716 57.1442 264.197C60.5401 263.104 63.9966 262.193 67.635 261.829C71.0309 261.464 74.3662 261.889 77.944 263.468ZM117.603 39.6599C118.209 42.8789 119.18 45.8549 120.574 48.7095C121.221 50.1671 121.888 51.6045 122.576 53.0216C124.819 57.5768 126.032 62.3748 125.608 67.4766C125.405 69.4201 125.183 71.3434 124.941 73.2464C124.455 76.2224 124.395 79.1984 125.122 82.1137C125.244 82.5389 125.244 82.964 125.244 83.3892C124.698 83.0855 124.334 82.7211 124.213 82.2352C123.728 80.2917 123.243 78.3481 123 76.3439C122.697 74.2789 122.636 72.1532 122.454 70.0882C122.09 66.6263 120.878 63.5895 118.573 61.0387C117.057 59.3381 115.359 57.8197 113.722 56.2406C112.449 54.9652 111.114 53.6897 109.841 52.3536C109.235 51.8069 108.81 51.1389 108.871 50.1064C112.024 47.0089 114.995 43.6077 117.603 39.6599ZM92.6797 278.166C95.4691 277.012 98.1373 276.587 100.866 276.648C103.171 276.648 105.354 277.134 107.233 278.652C108.386 279.563 109.659 280.414 110.69 281.446C112.994 283.815 115.238 286.305 117.421 288.734C121.181 292.864 124.941 296.873 129.671 299.849C129.852 299.97 129.974 300.152 130.338 300.517C129.731 300.517 129.428 300.517 129.125 300.456C124.395 299.424 119.907 297.784 115.844 295.051C113.298 293.35 110.811 291.589 108.446 289.645C103.534 285.819 98.7437 281.871 93.3467 278.774C93.2254 278.713 93.1042 278.531 92.6797 278.166ZM30.4016 105.497C32.6453 108.655 33.9794 111.509 34.1007 114.911C34.1614 118.615 33.8582 122.26 32.7666 125.782C31.6144 129.426 29.9771 132.827 28.0973 136.107C26.5813 138.658 25.0652 141.209 23.5492 143.76C21.0023 148.254 18.698 152.931 17.3032 157.972C17.182 158.336 17 158.701 16.8181 159.126C16.5755 158.944 16.333 158.822 16.2723 158.701C15.9691 157.729 15.6659 156.696 15.3021 155.725C14.5744 153.842 14.7563 151.959 15.3627 150.076C16.5755 146.189 18.3341 142.606 20.5778 139.205C22.0939 136.897 23.4886 134.589 24.8227 132.22C29.0675 124.446 30.9474 116.065 30.4016 107.137C30.341 106.833 30.341 106.468 30.4016 105.497ZM161.446 124.993C161.446 125.114 161.466 125.236 161.507 125.357C158.96 127.604 156.413 129.851 153.806 132.038C152.168 133.496 150.47 134.832 148.712 136.229C144.952 139.265 140.586 140.844 135.735 141.209C131.005 141.634 126.335 142.12 121.605 142.545C121.302 142.606 120.999 142.484 120.453 142.363C122.272 140.237 124.273 138.658 126.457 137.443C129.367 135.803 132.339 134.346 135.492 133.374C140.343 131.856 145.255 130.398 150.046 128.88C153.078 127.969 156.049 126.875 159.021 125.904C159.809 125.6 160.597 125.296 161.446 124.993ZM124.516 159.429C124.092 160.158 123.97 160.462 123.788 160.766C123 162.284 122.03 163.742 121.302 165.381C120.574 167.021 120.089 168.843 119.422 170.544C118.634 172.548 117.785 174.613 116.936 176.617C116.39 177.832 115.481 178.743 114.207 179.35C111.903 180.565 109.598 181.841 107.233 183.055C106.809 183.298 106.384 183.723 105.778 183.298C105.293 182.205 105.172 180.99 105.293 179.776C105.414 177.589 105.657 175.403 105.96 173.216C106.263 171.091 107.112 169.208 109.053 167.993C109.417 167.75 109.72 167.386 110.023 167.143C114.146 163.559 118.755 161.009 124.516 159.429ZM158.657 175.524C163.69 175.828 168.481 176.435 173.271 176.01C178.244 175.524 182.792 173.824 187.158 172.002C188.249 172.366 189.159 172.73 190.069 172.973C191.039 173.155 192.009 173.277 192.919 173.398C193.828 173.581 194.859 173.338 195.89 173.884C193.465 176.132 191.039 178.136 188.856 180.383C187.643 181.598 186.309 182.205 184.672 182.326C183.277 182.387 181.882 182.509 180.487 182.448C176.121 182.266 171.816 181.537 167.571 180.201C164.721 179.29 162.053 178.014 159.566 176.314C159.263 176.132 158.96 175.767 158.657 175.524ZM126.881 301.428C122.697 301.732 118.573 301.489 114.571 300.517C114.167 300.395 113.762 300.254 113.358 300.092C108.143 298.148 103.352 295.476 99.2289 291.71C97.7735 290.334 96.3383 288.916 94.9234 287.459C91.4669 283.875 88.2529 280.11 84.2506 277.073C84.1293 276.952 84.0687 276.769 83.8261 276.223C84.5538 276.466 85.0389 276.648 85.5241 276.83C88.2529 277.741 90.9211 278.956 93.4074 280.353C96.7426 282.296 99.8353 284.544 102.867 286.973C105.536 289.038 108.143 291.224 110.872 293.289C115.541 296.751 120.514 299.667 126.214 301.124C126.457 301.185 126.638 301.306 126.881 301.428ZM12.9977 132.342C12.6945 131.734 12.3913 131.37 12.3307 130.945C12.0881 129.487 11.7849 128.029 11.7849 126.572C11.8456 124.567 12.0275 122.563 12.27 120.559C12.6339 118.008 13.1797 115.518 13.6041 113.028C14.0893 110.173 14.2106 107.319 13.6041 104.403C13.4829 104.1 13.5435 103.735 13.4829 103.553C15.0595 101.185 16.6968 98.9373 18.0309 96.6294C19.365 94.3215 20.4566 91.8921 21.7906 89.0982C22.3971 91.1025 22.4577 92.7423 22.5183 94.3822C22.579 98.4514 22.0938 102.46 21.063 106.347C19.8501 110.72 18.4554 115.093 17.1819 119.405C15.9691 123.353 14.6957 127.301 13.4829 131.188C13.4222 131.491 13.2403 131.795 12.9977 132.342ZM149.439 77.6193C149.743 80.5346 149.561 83.3892 148.287 85.94C145.983 90.3737 142.648 93.8963 138.281 96.4472C135.856 97.8441 133.248 98.8766 130.58 99.8483C126.457 101.245 122.515 103.128 119.18 106.043C118.998 106.165 118.755 106.165 118.27 106.286C118.573 105.557 118.755 105.072 118.998 104.646C120.999 101.063 123.849 98.2085 127.245 96.022C130.762 93.7141 134.4 91.5884 138.039 89.5234C142.708 86.851 146.589 83.3892 148.894 78.4696C149.076 78.1659 149.257 77.8623 149.439 77.6193ZM104.201 297.298C103.171 296.933 102.564 296.691 101.897 296.508C99.8353 295.719 97.8341 294.868 95.7724 294.14C94.1351 293.593 92.7403 292.743 91.4669 291.71C89.8296 290.253 88.1316 288.795 86.555 287.337C81.0367 282.114 74.9119 277.802 67.635 275.251C67.4531 275.19 67.3318 275.008 66.968 274.644C67.5138 274.583 67.817 274.462 68.1808 274.462C70.6064 274.542 73.0523 274.623 75.5183 274.704C77.2163 274.765 78.7929 275.251 80.2483 276.041C81.7037 276.83 83.1591 277.68 84.4932 278.652C87.1614 280.656 89.4051 283.147 91.7094 285.576C95.4085 289.402 99.0469 293.35 103.474 296.326C103.656 296.508 103.777 296.751 104.201 297.298ZM66.4829 291.467C59.5092 292.257 53.2632 291.407 47.381 287.945C43.0756 285.455 39.0126 282.539 35.071 279.563C34.9497 279.502 34.9497 279.26 34.8891 279.017C36.587 278.895 38.2849 278.956 39.8616 278.713C42.0447 278.409 44.1064 278.774 46.0469 279.624C47.5023 280.292 48.9577 280.899 50.2918 281.689C52.2929 282.904 54.2941 284.24 56.2346 285.576C59.2666 287.641 62.2987 289.706 65.8765 290.86C65.9977 290.921 66.119 291.103 66.4829 291.467ZM59.2666 273.915C59.5698 273.49 59.6911 273.247 59.873 273.125C62.5412 271.243 65.1488 269.36 67.8776 267.659C71.5767 265.351 75.6396 264.501 79.9451 264.865C81.0973 264.987 82.1888 265.23 83.1591 265.837C85.2815 267.173 87.3433 268.388 89.4657 269.724C89.6476 269.785 89.7083 270.089 89.8902 270.332C89.5264 270.392 89.2231 270.453 88.9806 270.453C84.7964 270.271 80.8547 271.182 77.0344 273.004C76.3673 273.308 75.7609 273.368 75.0332 273.308C70.2426 272.882 65.452 273.125 60.6614 273.915C60.2975 273.976 59.873 273.915 59.2666 273.915ZM130.095 72.7605C130.095 72.3354 130.034 71.971 130.095 71.6673C130.338 70.4526 130.641 69.2986 130.883 68.0839C131.065 66.9907 131.55 66.2011 132.46 65.5331C136.159 62.9822 138.342 59.3381 139.434 55.0259C139.797 53.8112 139.979 52.475 140.283 51.1996C140.606 49.9444 140.99 48.6892 141.435 47.434C141.556 47.0696 141.92 46.8267 142.284 46.2801C143.679 48.7095 144.224 51.1996 145.013 53.5683C145.801 55.9369 146.832 58.2449 147.074 60.7957C146.65 61.0994 146.286 61.3423 145.862 61.5246C143.436 62.557 141.314 64.0147 139.434 65.8975C137.918 67.3551 136.341 68.752 134.764 70.1489C133.43 71.3029 131.975 72.2139 130.095 72.7605ZM122.454 138.233C123 137.383 123.243 137.018 123.485 136.654C125.426 134.164 127.791 132.099 130.156 129.973C132.824 127.604 135.916 126.025 139.434 125.357C141.799 124.871 144.285 124.567 146.711 124.325C149.864 124.021 152.957 123.656 156.049 122.928C157.929 122.563 159.809 122.381 161.749 122.138C162.113 122.077 162.538 122.199 163.326 122.32C162.417 122.867 161.931 123.231 161.386 123.474C157.505 125.114 153.563 126.572 149.561 127.726C144.992 129.021 140.465 130.398 135.977 131.856C133.915 132.463 131.854 133.313 129.913 134.224C127.548 135.378 125.304 136.715 122.454 138.233ZM2.74945 120.134C5.11444 114.911 8.38904 110.538 11.4817 106.104C11.7243 105.8 12.0881 105.557 12.5733 105.132C12.7552 105.8 12.8765 106.226 12.9371 106.651C13.1797 108.837 12.8765 111.024 12.5126 113.149C11.9668 116.247 11.4211 119.344 10.9966 122.503C10.4508 126.45 10.6327 130.337 12.27 134.103C12.452 134.467 12.5733 134.892 12.5733 135.318C12.5733 135.682 12.3913 135.986 12.27 136.35C10.2689 134.953 9.3593 133.981 8.51032 131.977C8.06563 130.843 7.66136 129.689 7.29751 128.515C6.32726 125.479 5.29636 122.503 2.74945 120.134ZM156.474 172.852C157.141 170.726 158.05 168.843 159.324 167.143C161.204 164.653 163.69 162.891 166.601 161.798C169.451 160.766 172.422 159.855 175.333 158.944C178.122 158.093 180.669 156.757 182.852 154.814C183.701 154.024 184.49 153.052 185.339 152.202C188.128 152.991 192.555 155.239 194.192 156.636C193.828 157.364 193.161 157.729 192.494 158.154C190.372 159.49 188.068 160.219 185.581 160.523C182.913 160.826 180.245 161.069 177.516 161.312C175.09 161.494 172.665 161.859 170.36 162.648C165.145 164.41 161.022 167.386 158.535 172.366C158.414 172.548 158.354 172.67 158.293 172.852C157.808 173.459 157.262 173.398 156.474 172.852ZM118.088 177.225C119.422 173.459 120.574 170.179 121.787 166.9C122.272 165.624 122.818 164.288 123.546 163.134C124.213 161.92 125.122 160.826 126.032 159.733C126.638 159.004 127.487 158.518 128.458 158.397C130.762 157.972 133.127 157.547 135.431 157.182C135.795 157.121 136.159 157.121 136.28 157.547C135.31 158.701 134.219 159.733 133.37 160.887C132.46 162.162 131.732 163.559 130.944 164.956C130.338 165.989 129.792 167.143 129.125 168.114C127.993 169.896 126.78 171.617 125.486 173.277C125.001 173.884 124.395 174.431 123.728 174.735C122.03 175.585 120.211 176.314 118.088 177.225ZM116.148 108.23C114.51 113.514 113.601 118.919 111.175 124.021C110.933 123.656 110.69 123.474 110.69 123.231C109.72 118.98 107.658 115.214 105.232 111.692C103.231 108.716 101.169 105.8 99.1076 102.824C98.8044 102.399 98.5618 101.853 98.3192 101.427C103.716 105.072 109.538 107.501 116.148 108.23ZM18.3341 171.212C16.333 171.698 14.817 171.212 13.4829 170.422C12.1488 169.633 10.8753 168.661 9.6625 167.629C8.32841 166.535 7.17623 165.199 5.84213 164.045C5.17509 163.438 4.81124 162.77 4.50804 161.92C3.73992 159.409 2.93138 156.919 2.0824 154.449C0.86959 150.987 -0.282583 147.465 -0.828351 143.82C-0.88899 143.395 -0.767709 142.909 -0.767709 142.302C1.35472 144.185 2.32497 145.4 3.35586 147.586C5.05381 151.23 6.6911 154.935 8.3284 158.579C9.84442 161.859 11.4817 165.078 14.1499 167.568C15.3627 168.783 16.6968 169.876 18.3341 171.212ZM104.929 184.391C99.714 187.732 94.8021 191.072 90.254 194.959C90.1934 195.02 90.1328 195.02 90.0115 195.02C89.9508 195.02 89.8902 194.959 89.8296 194.899C91.3456 189.615 100.987 175.221 104.929 172.609C104.262 176.557 103.838 180.383 104.929 184.391ZM184.55 183.42C184.368 183.966 184.368 184.149 184.247 184.209C182.549 185.728 180.609 186.578 178.304 186.578C171.573 186.578 165.327 184.999 159.93 180.747C157.019 178.439 153.987 176.192 151.016 173.884C151.016 173.824 151.016 173.702 151.016 173.459C153.017 173.763 154.897 174.006 156.534 175.403C159.566 177.954 163.023 179.836 166.783 181.051C172.058 182.752 177.455 183.723 183.034 183.48C183.459 183.42 183.883 183.42 184.55 183.42ZM-9.68189 249.256C-12.2288 246.584 -13.5023 243.487 -14.1087 240.085C-14.1693 239.66 -14.1693 239.174 -14.1087 238.749C-13.6842 235.53 -12.8352 232.372 -11.3192 229.457C-11.1373 229.214 -11.016 228.789 -10.4096 228.971C-10.1064 229.943 -9.86382 231.036 -9.49997 232.129C-9.13613 233.283 -8.651 234.437 -8.22652 235.53C-7.92331 236.259 -8.04459 236.927 -8.22652 237.595C-9.01485 240.936 -9.37869 244.337 -9.49997 247.738C-9.56061 248.285 -9.62125 248.771 -9.68189 249.256ZM-0.707064 219.679C-0.161299 223.262 -0.161298 226.299 -0.0400176 229.335C0.0812632 232.98 -1.19219 235.956 -3.49654 238.628C-4.40615 239.721 -5.3764 240.693 -6.34665 241.725C-6.64986 241.968 -6.89242 242.393 -7.62011 242.09C-7.55947 241.543 -7.55947 240.936 -7.43819 240.389C-6.77114 237.778 -6.28601 235.105 -5.3764 232.554C-4.04231 228.424 -2.405 224.355 -0.707064 219.679ZM78.8536 273.429C81.7643 272.093 84.3719 271.668 87.1007 271.485C91.3456 271.182 95.2266 272.518 98.9257 274.401C99.4108 274.644 100.078 274.644 100.26 275.494C97.349 275.676 94.6202 276.223 91.952 277.195C91.1637 277.498 90.436 277.377 89.7083 277.012C86.555 275.636 83.3006 274.623 79.9451 273.976C79.7025 273.915 79.5206 273.733 78.8536 273.429ZM211.778 163.924C210.767 164.41 209.736 164.875 208.685 165.321C205.289 166.961 202.136 169.086 199.104 171.333C198.376 171.88 197.588 172.427 196.557 172.487C194.374 172.548 192.191 172.487 190.069 171.88C189.705 171.759 189.462 171.455 189.098 171.212C194.92 167.629 206.624 163.559 211.778 163.924ZM77.8227 246.584C81.7643 245.248 97.2277 245.066 100.199 246.22C99.9566 246.402 99.714 246.584 99.5321 246.706C96.7426 247.556 94.0138 248.406 91.2243 249.196C90.5572 249.378 89.8295 249.439 89.1625 249.439C85.5241 249.317 82.0069 248.588 78.6717 247.191C78.4291 247.07 78.1865 246.827 77.8227 246.584ZM-14.2299 244.276C-13.9267 244.823 -13.8055 245.127 -13.6235 245.369C-12.5926 247.191 -11.6224 249.074 -10.5309 250.836C-9.92446 251.747 -9.62125 252.658 -9.56061 253.751C-9.31805 256.909 -9.01484 260.067 -8.77228 263.165C-8.61057 265.108 -8.46908 267.032 -8.3478 268.935C-8.3478 269.36 -8.16587 269.846 -8.77228 270.089C-9.86381 266.485 -10.9553 262.881 -12.0469 259.278C-12.2894 258.367 -12.5926 257.395 -12.7746 256.484C-13.3203 253.447 -13.8661 250.471 -14.3512 247.434C-14.5332 246.523 -14.6544 245.552 -14.2299 244.276ZM-7.55947 233.891C-7.80203 233.465 -8.16588 233.162 -8.22652 232.797C-8.63079 231.38 -8.99463 229.943 -9.31805 228.485C-9.68189 227.027 -9.37869 225.691 -8.3478 224.598C-6.4073 222.533 -4.58807 220.407 -2.70821 218.342C-2.64757 218.282 -2.40501 218.403 -2.28373 218.403C-2.52629 221.501 -5.0732 228.91 -7.55947 233.891ZM84.7357 250.168C84.3113 250.957 83.6442 250.836 83.0984 250.896C78.3684 251.382 73.6385 251.079 69.0298 249.925C68.1808 249.682 67.2712 249.621 66.2403 248.771C69.2117 247.86 71.9405 247.252 74.6694 246.827C75.2151 246.766 75.8822 247.07 76.3673 247.313C78.7323 248.467 81.2186 249.317 83.8261 249.803C84.1293 249.864 84.3719 250.046 84.7357 250.168ZM81.7037 244.215C82.0675 243.426 82.2495 242.879 82.492 242.333C83.7048 239.903 85.5847 238.689 88.3742 238.992C90.254 239.174 92.1945 239.235 94.0138 239.903C93.5893 240.754 92.9222 240.632 92.3158 240.754C90.5572 241.3 88.7987 241.847 87.2826 242.94C85.706 244.155 84.008 244.458 81.7037 244.215ZM80.1877 244.519C78.1865 244.884 76.3673 245.187 74.5481 245.43C72.7289 245.734 70.9096 246.402 68.5447 246.28C73.214 243.487 77.5195 241.118 82.7346 239.843C81.825 241.604 81.0367 243.001 80.1877 244.519ZM88.4348 244.094C90.7998 242.029 93.5286 241.361 96.4394 241.118C96.8032 241.057 97.2884 241.179 97.6522 241.361C98.9257 242.09 100.199 242.819 101.473 243.608C101.654 243.73 101.836 243.912 102.018 244.033C101.836 244.215 101.776 244.398 101.654 244.398C97.2479 244.317 92.8414 244.215 88.4348 244.094Z" fill="url(#paint0_linear_2_205)" fill-opacity="0.7"/>
</g>
<defs>
<linearGradient id="paint0_linear_2_205" x1="115297" y1="80881.2" x2="16.9961" y2="80881.2" gradientUnits="userSpaceOnUse">
<stop stop-color="#A87D56"/>
<stop offset="0.3" stop-color="#E8C597"/>
<stop offset="0.7" stop-color="#8D6531"/>
<stop offset="1" stop-color="#A87D56"/>
</linearGradient>
<clipPath id="clip0_2_205">
<rect width="314" height="265" fill="white" transform="matrix(4.37114e-08 1 1 -4.37114e-08 -36 0)"/>
</clipPath>
</defs>
</svg>
