<svg width="42" height="41" viewBox="0 0 42 41" fill="none" xmlns="http://www.w3.org/2000/svg">
<path d="M21 0L21.3551 9.4801C21.5724 15.28 26.2761 19.9314 32.1384 20.1434L42 20.5L32.1384 20.8566C26.2761 21.0686 21.5724 25.72 21.3551 31.5199L21 41L20.6449 31.5199C20.4276 25.72 15.7239 21.0686 9.86165 20.8566L0 20.5L9.86164 20.1434C15.7239 19.9314 20.4276 15.28 20.6449 9.4801L21 0Z" fill="#FF7A00"/>
<path d="M31.36 2.74646L26.8766 11.1321C24.1337 16.2625 25.8566 22.6176 30.8263 25.7012L39.1865 30.8885L30.4659 26.3189C25.2819 23.6025 18.8577 25.3038 15.7385 30.2192L10.64 38.2535L15.1234 29.8678C17.8663 24.7375 16.1434 18.3824 11.1737 15.2988L2.81347 10.1115L11.5341 14.6811C16.7181 17.3975 23.1423 15.6962 26.2615 10.7808L31.36 2.74646Z" fill="#FF7A00"/>
<path d="M38.944 10.25L30.8235 15.2943C25.8554 18.3804 24.1358 24.7364 26.8813 29.8654L31.5 38.4934L26.257 30.222C23.1403 25.305 16.717 23.6004 11.5316 26.3142L3.05595 30.75L11.1765 25.7057C16.1446 22.6196 17.8642 16.2636 15.1187 11.1346L10.5 2.50657L15.743 10.778C18.8597 15.695 25.283 17.3996 30.4684 14.6858L38.944 10.25Z" fill="#FF7A00"/>
</svg>
